if (_typeface_js && _typeface_js.loadFace) _typeface_js.loadFace({"glyphs":{"\u0000":{"x_min":0,"x_max":0,"ha":0},"¦":{"x_min":114,"x_max":304,"ha":415,"o":"m 114 1002 q 121 1023 114 1014 q 144 1033 129 1033 l 270 1033 q 293 1024 283 1033 q 304 1002 304 1016 l 304 484 q 270 453 304 453 l 144 453 q 114 484 114 453 l 114 1002 m 114 279 q 121 301 114 292 q 144 310 129 310 l 270 310 q 293 301 283 310 q 304 279 304 293 l 304 -238 q 270 -269 304 -269 l 144 -269 q 114 -238 114 -269 l 114 279 "},"Ő":{"x_min":64,"x_max":1127,"ha":1185,"o":"m 333 515 q 352 407 333 457 q 406 320 371 357 q 489 262 441 283 q 595 241 537 241 q 700 262 652 241 q 784 320 749 283 q 838 407 819 357 q 858 515 858 457 q 838 622 858 572 q 784 710 819 672 q 700 769 749 747 q 595 791 652 791 q 489 769 537 791 q 406 710 441 747 q 352 622 371 672 q 333 515 333 572 m 64 514 q 82 656 64 588 q 136 783 101 724 q 219 891 171 842 q 326 974 267 940 q 453 1027 385 1008 q 595 1047 521 1047 q 736 1027 668 1047 q 863 974 804 1008 q 971 891 922 940 q 1054 783 1019 842 q 1107 656 1088 724 q 1127 514 1127 588 q 1107 373 1127 441 q 1054 247 1088 305 q 971 140 1019 188 q 863 57 922 91 q 736 3 804 22 q 595 -15 668 -15 q 453 3 521 -15 q 326 57 385 22 q 219 140 267 91 q 136 247 171 188 q 82 373 101 305 q 64 514 64 441 m 407 1308 q 444 1338 421 1338 l 591 1338 q 608 1333 603 1338 q 614 1323 614 1329 q 613 1309 615 1317 q 607 1293 610 1301 l 546 1151 q 529 1128 537 1135 q 508 1122 521 1122 l 356 1122 q 338 1137 338 1122 q 339 1149 338 1142 q 344 1162 339 1155 l 407 1308 m 721 1308 q 758 1338 734 1338 l 905 1338 q 922 1333 917 1338 q 928 1323 928 1329 q 926 1309 929 1317 q 921 1293 924 1301 l 859 1151 q 843 1128 851 1135 q 822 1122 835 1122 l 670 1122 q 652 1137 652 1122 q 652 1149 652 1142 q 658 1162 653 1155 l 721 1308 "},"‥":{"x_min":118,"x_max":719,"ha":809,"o":"m 473 200 q 480 222 473 214 q 503 231 488 231 l 687 231 q 708 222 698 231 q 719 200 719 214 l 719 32 q 711 9 719 19 q 687 0 703 0 l 503 0 q 473 32 473 0 l 473 200 m 118 200 q 125 222 118 214 q 148 231 133 231 l 332 231 q 353 222 343 231 q 364 200 364 214 l 364 32 q 356 9 364 19 q 332 0 348 0 l 148 0 q 118 32 118 0 l 118 200 "},"Ž":{"x_min":75,"x_max":947.296875,"ha":995,"o":"m 75 1000 q 83 1022 75 1014 q 107 1031 92 1031 l 913 1031 q 936 1023 927 1031 q 945 1000 945 1015 l 945 860 q 945 849 945 854 q 941 837 945 844 l 438 238 l 916 238 q 938 230 929 238 q 947 206 947 222 l 947 34 q 938 11 947 22 q 916 0 929 0 l 109 0 q 86 9 95 0 q 77 34 77 18 l 77 183 q 81 201 77 194 l 583 793 l 107 793 q 83 800 92 793 q 75 826 75 808 l 75 1000 m 544 1107 q 537 1102 539 1103 q 529 1101 534 1101 q 515 1107 523 1101 l 337 1284 q 331 1300 331 1288 q 337 1313 331 1306 l 398 1376 q 417 1384 406 1384 q 432 1377 426 1384 l 529 1279 l 628 1378 q 644 1384 635 1386 q 658 1376 653 1382 l 721 1316 q 725 1308 724 1312 q 727 1300 726 1304 q 725 1291 727 1295 q 721 1285 723 1288 l 544 1107 "},"Á":{"x_min":27.703125,"x_max":1039.21875,"ha":1063,"o":"m 406 1003 q 411 1012 407 1008 q 420 1021 415 1017 q 432 1028 426 1026 q 444 1031 438 1031 l 622 1031 q 642 1023 634 1031 q 654 1010 650 1016 l 672 971 l 1036 31 q 1034 8 1042 17 q 1008 0 1027 0 l 809 0 q 784 5 793 0 q 770 25 775 11 q 743 96 757 61 q 717 167 730 131 l 348 167 q 321 96 335 131 q 295 25 308 61 q 259 0 286 0 l 54 0 q 32 6 41 0 q 29 27 24 13 l 406 1003 m 533 707 q 506 630 520 671 q 479 548 493 590 q 453 466 466 506 q 426 390 439 425 l 639 390 l 533 707 m 476 1310 q 491 1333 480 1326 q 513 1340 501 1340 l 692 1340 q 708 1335 703 1340 q 715 1325 713 1331 q 715 1311 717 1319 q 710 1295 714 1303 l 642 1146 q 626 1123 634 1130 q 605 1117 618 1117 l 453 1117 q 439 1122 442 1117 q 435 1135 435 1128 q 437 1152 435 1143 q 440 1167 439 1161 l 476 1310 "},"ĥ":{"x_min":83.34375,"x_max":892.4375,"ha":976,"o":"m 350 789 q 381 828 363 809 q 426 862 400 847 q 483 886 451 877 q 556 896 516 896 q 698 865 636 896 q 803 782 760 835 q 869 659 847 729 q 892 509 892 588 l 892 54 q 880 14 892 27 q 844 0 869 0 l 684 0 q 643 10 654 0 q 632 49 632 20 l 632 509 q 620 564 632 538 q 589 609 609 590 q 544 639 570 628 q 488 650 518 650 q 439 639 463 650 q 396 611 416 629 q 364 567 377 593 q 350 510 352 541 l 350 52 q 345 28 350 40 q 331 10 341 16 q 314 2 322 4 q 296 0 306 0 l 139 0 q 96 15 109 0 q 83 54 83 29 l 83 619 l 83 624 l 83 830 l 83 834 l 83 1092 q 96 1130 83 1115 q 139 1144 109 1144 l 296 1144 q 331 1133 312 1144 q 345 1115 341 1127 q 350 1093 350 1103 l 350 789 m 608 1251 q 615 1255 613 1254 q 623 1257 618 1257 q 637 1251 629 1257 l 815 1073 q 821 1057 821 1069 q 815 1044 821 1050 l 754 981 q 735 973 746 973 q 719 980 726 973 l 623 1078 l 524 979 q 508 973 517 971 q 494 981 499 975 l 431 1041 q 427 1049 428 1045 q 425 1057 426 1053 q 427 1066 425 1062 q 431 1072 428 1069 l 608 1251 "},"Κ":{"x_min":111,"x_max":1035.609375,"ha":1062,"o":"m 111 1000 q 118 1021 111 1012 q 141 1031 126 1031 l 346 1031 q 368 1022 357 1031 q 380 1000 380 1014 l 380 622 q 528 813 455 719 q 676 1005 601 908 q 696 1024 684 1017 q 720 1032 708 1032 l 984 1032 q 1000 1022 1000 1032 q 993 1005 1000 1015 l 666 573 l 1027 29 q 1035 10 1035 17 q 1020 0 1035 0 l 757 0 q 734 6 746 0 q 715 25 723 13 q 648 121 678 75 q 589 212 618 167 q 532 304 561 258 q 468 402 502 351 l 380 301 l 380 30 q 346 0 380 0 l 142 0 q 111 30 111 0 l 111 1000 "},"Î":{"x_min":49.5,"x_max":445.375,"ha":495,"o":"m 114 1000 q 121 1021 114 1012 q 144 1031 129 1031 l 348 1031 q 371 1022 359 1031 q 383 1000 383 1014 l 383 30 q 348 0 383 0 l 144 0 q 114 30 114 0 l 114 1000 m 232 1379 q 239 1383 237 1382 q 247 1385 242 1385 q 261 1379 253 1385 l 439 1201 q 445 1185 445 1197 q 439 1172 445 1178 l 378 1109 q 359 1101 370 1101 q 343 1108 350 1101 l 247 1206 l 148 1107 q 132 1101 141 1099 q 118 1109 123 1103 l 55 1169 q 51 1177 52 1173 q 49 1185 50 1181 q 51 1194 49 1190 q 55 1200 52 1197 l 232 1379 "},"e":{"x_min":55.5625,"x_max":921.59375,"ha":983,"o":"m 822 105 q 684 17 761 49 q 522 -13 608 -13 q 343 20 427 -13 q 194 117 258 55 q 93 261 130 178 q 55 443 55 345 q 70 561 55 504 q 112 668 85 618 q 179 760 140 718 q 267 832 218 802 q 372 879 316 862 q 493 895 429 895 q 604 880 550 895 q 706 837 659 865 q 793 770 754 809 q 861 685 833 732 q 905 587 890 639 q 921 479 921 534 q 920 420 921 443 q 909 383 919 397 q 877 364 900 370 q 811 359 854 359 l 311 359 q 339 285 318 315 q 388 237 360 255 q 447 212 416 220 q 506 204 478 204 q 557 210 531 204 q 608 223 584 215 q 653 244 633 232 q 686 268 674 255 q 705 281 697 277 q 722 286 713 286 q 741 279 732 286 q 762 261 750 273 l 836 178 q 845 162 843 169 q 847 147 847 154 q 840 123 847 133 q 822 105 832 113 m 488 684 q 435 673 461 684 q 388 644 410 662 q 348 603 366 626 q 319 556 330 580 l 674 556 q 642 606 659 584 q 603 647 625 629 q 553 674 581 664 q 488 684 525 684 "},"»":{"x_min":15.28125,"x_max":989.65625,"ha":1024,"o":"m 979 459 q 989 438 989 449 q 979 417 989 428 l 616 53 q 595 44 607 44 q 575 53 584 44 l 472 152 q 462 177 462 162 q 470 198 462 189 l 709 438 l 470 678 q 464 689 466 684 q 462 700 463 695 q 472 721 463 712 l 572 822 q 595 831 580 831 q 615 823 609 831 l 979 459 m 531 459 q 542 438 542 449 q 531 417 542 428 l 168 53 q 147 44 160 44 q 127 53 137 44 l 25 152 q 15 177 15 162 q 23 198 15 189 l 262 438 l 23 678 q 17 689 18 684 q 15 700 15 695 q 25 721 16 712 l 125 822 q 147 831 133 831 q 168 823 161 831 l 531 459 "},"∆":{"x_min":12.5,"x_max":1007.71875,"ha":1063,"o":"m 395 1016 q 424 1031 402 1031 l 595 1031 q 614 1024 606 1031 q 629 1007 622 1017 q 640 985 635 996 q 648 963 645 973 l 1007 31 l 1007 29 q 1007 21 1007 27 q 1001 5 1007 11 q 978 0 994 0 l 38 0 q 12 19 12 0 q 13 24 12 22 q 14 31 14 27 l 370 963 q 382 990 376 977 q 395 1016 388 1003 m 352 217 l 665 217 q 588 451 625 335 q 509 685 552 567 l 352 217 "},"ļ":{"x_min":86.34375,"x_max":350.25,"ha":431,"o":"m 86 1091 q 97 1128 86 1113 q 135 1143 108 1143 l 305 1143 q 320 1140 312 1143 q 334 1129 328 1136 q 345 1112 341 1122 q 350 1091 350 1102 l 350 53 q 335 13 350 27 q 296 0 320 0 l 135 0 q 97 13 108 0 q 86 53 86 27 l 86 1091 m 105 -157 q 112 -137 105 -145 q 132 -130 119 -130 l 296 -130 q 316 -137 307 -130 q 326 -157 326 -144 l 326 -335 q 295 -445 326 -393 q 208 -530 265 -496 q 199 -531 207 -531 q 186 -528 190 -531 q 177 -523 181 -526 l 134 -486 q 125 -476 127 -481 q 122 -466 122 -471 q 131 -450 122 -457 q 149 -432 139 -442 q 168 -409 160 -422 q 177 -376 177 -395 l 177 -349 q 165 -336 177 -338 l 130 -336 q 105 -308 105 -335 l 105 -157 "},"Ĕ":{"x_min":112,"x_max":878.953125,"ha":938,"o":"m 112 999 q 119 1022 112 1013 q 142 1031 127 1031 l 831 1031 q 855 1022 847 1031 q 863 997 863 1013 l 863 826 q 855 803 863 814 q 831 793 847 793 l 381 793 l 381 621 l 728 621 q 750 614 741 621 q 758 593 758 608 l 758 443 q 751 425 758 434 q 728 416 743 416 l 381 416 l 381 238 l 847 238 q 878 206 878 238 l 878 31 q 873 19 878 24 q 844 0 870 0 l 142 0 q 120 7 128 0 q 112 29 112 14 l 112 999 m 494 1128 q 418 1143 453 1128 q 358 1182 383 1158 q 317 1238 332 1207 q 303 1302 303 1268 q 311 1321 303 1314 q 329 1328 319 1328 l 429 1328 q 441 1323 437 1328 q 445 1312 445 1318 q 458 1283 445 1296 q 497 1271 470 1271 q 533 1284 520 1271 q 546 1312 546 1297 q 549 1323 546 1318 q 561 1328 553 1328 l 662 1328 q 680 1321 672 1328 q 688 1302 688 1314 q 673 1237 688 1268 q 632 1181 658 1205 q 570 1143 606 1157 q 494 1128 535 1128 "},"ò":{"x_min":73.25,"x_max":985.140625,"ha":1055,"o":"m 73 440 q 89 563 73 504 q 135 672 105 622 q 206 764 164 723 q 298 834 247 805 q 407 880 348 864 q 530 896 466 896 q 707 860 624 896 q 852 764 790 825 q 949 619 913 702 q 985 440 985 536 q 968 317 985 376 q 922 208 952 259 q 852 116 893 157 q 760 45 810 74 q 651 0 709 15 q 530 -16 593 -16 q 407 0 466 -16 q 298 45 348 15 q 206 116 247 74 q 135 208 164 157 q 89 317 105 259 q 73 440 73 376 m 326 440 q 340 354 326 394 q 381 285 355 314 q 444 239 407 256 q 528 222 481 222 q 609 239 573 222 q 671 285 646 256 q 710 354 696 314 q 724 440 724 394 q 710 525 724 484 q 671 595 696 565 q 609 644 646 626 q 528 662 573 662 q 444 644 481 662 q 381 595 407 626 q 340 525 355 565 q 326 440 326 484 m 615 1016 q 619 1001 617 1010 q 621 984 621 992 q 617 971 621 977 q 603 966 613 966 l 451 966 q 429 972 437 966 q 413 995 421 979 l 345 1144 q 340 1160 342 1152 q 341 1174 339 1168 q 347 1184 342 1180 q 363 1189 353 1189 l 542 1189 q 565 1182 554 1189 q 579 1159 576 1175 l 615 1016 "},"ţ":{"x_min":31.953125,"x_max":570.1875,"ha":588,"o":"m 136 1019 q 151 1051 136 1041 q 191 1072 165 1062 l 349 1127 q 355 1127 352 1127 q 361 1127 359 1127 q 396 1112 387 1127 q 404 1073 404 1098 l 404 854 l 520 854 q 556 841 542 854 q 570 802 570 828 l 570 668 q 556 625 570 638 q 520 611 542 611 l 404 611 l 404 53 q 389 13 404 27 q 347 0 374 0 l 190 0 q 136 53 136 0 l 136 611 l 85 611 q 31 668 31 611 l 31 802 q 85 854 31 854 l 136 854 l 136 1019 m 157 -157 q 164 -137 157 -145 q 184 -130 171 -130 l 348 -130 q 368 -137 359 -130 q 378 -157 378 -144 l 378 -335 q 347 -445 378 -393 q 260 -530 317 -496 q 251 -531 259 -531 q 238 -528 242 -531 q 229 -523 233 -526 l 186 -486 q 177 -476 179 -481 q 174 -466 174 -471 q 183 -450 174 -457 q 201 -432 191 -442 q 220 -409 212 -422 q 229 -376 229 -395 l 229 -349 q 217 -336 229 -338 l 182 -336 q 157 -308 157 -335 l 157 -157 "},"^":{"x_min":52.09375,"x_max":626.4375,"ha":679,"o":"m 318 1098 q 338 1109 328 1109 q 359 1098 348 1109 l 617 841 q 626 820 626 832 q 617 800 626 809 l 528 710 q 504 698 516 698 q 482 707 492 698 l 338 852 l 193 707 q 172 699 181 699 q 151 708 161 699 l 62 796 q 52 819 52 805 q 61 841 52 832 l 318 1098 "},"«":{"x_min":15.28125,"x_max":989.65625,"ha":1020,"o":"m 389 823 q 409 831 395 831 q 432 822 424 831 l 532 721 q 542 700 541 712 q 540 689 541 695 q 534 678 538 684 l 295 438 l 534 198 q 542 177 542 189 q 531 152 542 162 l 429 53 q 420 46 425 49 q 409 44 415 44 q 388 53 397 44 l 25 417 q 15 438 15 428 q 25 459 15 449 l 389 823 m 836 823 q 857 831 843 831 q 879 822 871 831 l 979 721 q 989 700 988 712 q 987 689 988 695 q 981 678 986 684 l 742 438 l 981 198 q 989 177 989 189 q 979 152 989 162 l 877 53 q 867 46 872 49 q 857 44 862 44 q 836 53 844 44 l 472 417 q 462 438 462 428 q 472 459 462 449 l 836 823 "},"∙":{"x_min":62,"x_max":300,"ha":351,"o":"m 62 457 q 71 503 62 482 q 97 541 80 525 q 134 566 113 557 q 181 576 156 576 q 227 566 205 576 q 264 541 248 557 q 290 503 281 525 q 300 457 300 482 q 290 411 300 433 q 264 373 281 389 q 227 347 248 356 q 181 338 205 338 q 134 347 156 338 q 97 373 113 356 q 71 411 80 389 q 62 457 62 433 "},"ⁿ":{"x_min":0,"x_max":0,"ha":425},"í":{"x_min":120,"x_max":436.453125,"ha":495,"o":"m 120 827 q 132 866 120 850 q 171 882 145 882 l 330 882 q 348 878 339 882 q 366 867 358 874 q 381 850 375 859 q 387 827 387 840 l 387 53 q 372 13 387 27 q 330 0 357 0 l 171 0 q 120 53 120 0 l 120 827 m 196 1159 q 211 1182 200 1175 q 233 1189 221 1189 l 412 1189 q 428 1184 423 1189 q 435 1174 433 1180 q 435 1160 437 1168 q 430 1144 434 1152 l 362 995 q 346 972 354 979 q 325 966 338 966 l 173 966 q 159 971 162 966 q 155 984 155 977 q 157 1001 155 992 q 160 1016 159 1010 l 196 1159 "},"ˆ":{"x_min":62.5,"x_max":458.375,"ha":519,"o":"m 245 1251 q 252 1255 250 1254 q 260 1257 255 1257 q 274 1251 266 1257 l 452 1073 q 458 1057 458 1069 q 452 1044 458 1050 l 391 981 q 372 973 383 973 q 356 980 363 973 l 260 1078 l 161 979 q 145 973 154 971 q 131 981 136 975 l 68 1041 q 64 1049 65 1045 q 62 1057 63 1053 q 64 1066 62 1062 q 68 1072 65 1069 l 245 1251 "},"ū":{"x_min":83.34375,"x_max":920.21875,"ha":975,"o":"m 902 11 q 883 1 893 4 q 863 0 872 0 l 759 0 q 737 4 746 0 q 722 16 728 8 q 711 33 716 24 q 704 53 707 43 l 683 142 q 653 93 672 121 q 602 42 633 66 q 529 2 572 18 q 432 -14 487 -14 q 288 16 353 -14 q 178 99 224 47 q 108 223 133 152 q 83 373 83 293 l 83 828 q 94 868 83 854 q 131 882 106 882 l 291 882 q 332 871 321 882 q 343 832 343 861 l 343 380 q 357 323 343 350 q 393 276 370 296 q 443 243 415 255 q 500 232 471 232 q 552 243 525 232 q 601 275 579 255 q 638 321 624 295 q 653 378 653 348 l 653 830 q 658 853 653 842 q 671 872 662 865 q 688 879 680 877 q 707 882 696 882 l 863 882 q 907 867 893 882 q 920 828 920 852 l 920 51 q 914 26 920 38 q 897 9 908 15 l 902 11 m 192 1156 q 216 1181 192 1181 l 757 1181 q 774 1175 767 1181 q 781 1156 781 1169 l 781 1049 q 775 1031 781 1041 q 757 1022 769 1022 l 216 1022 q 192 1049 192 1022 l 192 1156 "},"Ẅ":{"x_min":13.203125,"x_max":1480.671875,"ha":1497,"o":"m 396 14 q 383 38 389 26 q 372 63 377 51 q 193 531 282 299 q 15 999 104 763 q 14 1006 15 1003 q 13 1011 13 1008 q 38 1031 13 1031 l 262 1031 q 298 1004 288 1031 l 511 372 l 707 1004 q 745 1031 717 1031 l 971 1031 q 994 1025 987 1031 q 1000 1009 1000 1019 q 1000 1001 1000 1003 l 1000 999 l 876 645 l 969 372 l 1194 1004 q 1232 1031 1204 1031 l 1451 1031 q 1474 1025 1467 1031 q 1480 1009 1480 1019 q 1479 1001 1480 1003 l 1479 999 q 1383 756 1432 877 q 1284 513 1334 634 q 1185 269 1234 391 q 1090 26 1136 147 q 1077 9 1087 18 q 1054 0 1068 0 l 1052 0 l 884 0 q 860 5 868 0 q 849 21 852 11 l 739 310 q 693 186 716 247 q 647 62 670 125 q 639 42 643 52 q 628 21 634 31 q 614 6 622 12 q 595 0 606 0 l 593 0 l 425 0 q 396 14 403 0 m 504 1308 q 533 1338 504 1338 l 669 1338 q 688 1330 679 1338 q 698 1308 698 1322 l 698 1177 q 690 1154 698 1165 q 669 1144 682 1144 l 533 1144 q 504 1177 504 1144 l 504 1308 m 807 1308 q 837 1338 807 1338 l 971 1338 q 1001 1308 1001 1338 l 1001 1177 q 993 1154 1001 1165 q 971 1144 985 1144 l 837 1144 q 807 1177 807 1144 l 807 1308 "},"ņ":{"x_min":85.34375,"x_max":922.21875,"ha":1006,"o":"m 103 870 q 122 880 112 878 q 141 882 132 882 l 246 882 q 267 877 258 882 q 283 865 277 873 q 293 848 289 857 q 300 828 297 838 l 322 739 q 352 788 332 760 q 402 839 372 815 q 475 879 433 863 q 572 896 517 896 q 716 865 652 896 q 826 782 781 835 q 897 659 872 729 q 922 509 922 588 l 922 54 q 910 14 922 27 q 874 0 899 0 l 713 0 q 672 10 684 0 q 661 49 661 20 l 661 502 q 648 558 661 531 q 612 605 634 585 q 562 638 590 626 q 504 650 533 650 q 453 638 479 650 q 405 607 427 627 q 369 561 383 588 q 352 503 354 534 l 352 52 q 347 28 352 40 q 333 10 343 16 q 316 2 324 4 q 298 0 308 0 l 141 0 q 98 15 111 0 q 85 54 85 29 l 85 830 q 91 855 85 844 q 107 872 97 866 l 103 870 m 467 -157 q 474 -137 467 -145 q 494 -130 481 -130 l 658 -130 q 678 -137 669 -130 q 688 -157 688 -144 l 688 -335 q 657 -445 688 -393 q 570 -530 627 -496 q 561 -531 569 -531 q 548 -528 552 -531 q 539 -523 543 -526 l 496 -486 q 487 -476 489 -481 q 484 -466 484 -471 q 493 -450 484 -457 q 511 -432 501 -442 q 530 -409 522 -422 q 539 -376 539 -395 l 539 -349 q 527 -336 539 -338 l 492 -336 q 467 -308 467 -335 l 467 -157 "},"µ":{"x_min":92,"x_max":814,"ha":931,"o":"m 332 661 q 336 654 335 658 q 338 645 338 650 l 338 309 q 352 271 340 288 q 383 242 365 254 q 422 222 401 229 q 461 216 443 216 q 501 223 482 216 q 536 244 520 231 q 560 275 551 257 q 570 315 570 293 l 570 646 q 578 672 570 663 q 605 680 586 680 l 779 680 q 803 671 793 680 q 814 645 814 661 l 814 343 q 812 284 814 313 q 780 168 807 222 q 710 74 753 114 q 608 12 666 35 q 484 -10 551 -10 q 437 -2 458 -10 q 397 16 415 4 q 365 41 380 27 q 338 66 350 54 l 338 -238 q 331 -259 338 -252 q 314 -269 324 -266 q 292 -273 303 -273 q 273 -274 281 -274 l 128 -274 q 101 -263 110 -274 q 92 -237 92 -253 l 92 645 q 101 671 92 661 q 131 680 110 680 l 274 680 q 292 680 282 680 q 310 678 302 680 q 325 673 318 677 q 332 661 331 669 "},"ỳ":{"x_min":24.21875,"x_max":962.90625,"ha":986,"o":"m 29 815 q 29 863 18 843 q 77 883 40 883 l 248 883 q 277 872 266 883 q 293 845 288 861 l 490 286 l 682 845 q 702 875 690 867 q 734 883 713 883 l 913 883 q 943 877 932 883 q 959 863 954 872 q 962 844 963 855 q 957 823 961 833 q 899 680 930 758 q 834 519 868 603 q 766 349 800 435 q 698 179 731 262 q 634 19 665 96 q 578 -121 604 -57 q 534 -234 553 -185 q 506 -309 516 -283 l 508 -305 q 491 -336 503 -324 q 460 -347 478 -347 l 300 -347 q 257 -335 268 -347 q 245 -299 245 -323 q 248 -285 245 -290 q 252 -279 250 -280 l 361 3 l 29 815 m 576 1016 q 580 1001 578 1010 q 582 984 582 992 q 578 971 582 977 q 564 966 574 966 l 412 966 q 390 972 398 966 q 374 995 382 979 l 306 1144 q 301 1160 303 1152 q 302 1174 300 1168 q 308 1184 303 1180 q 324 1189 314 1189 l 503 1189 q 526 1182 515 1189 q 540 1159 537 1175 l 576 1016 "},"Ι":{"x_min":114,"x_max":383,"ha":495,"o":"m 114 1000 q 121 1021 114 1012 q 144 1031 129 1031 l 348 1031 q 371 1022 359 1031 q 383 1000 383 1014 l 383 30 q 348 0 383 0 l 144 0 q 114 30 114 0 l 114 1000 "},"Ύ":{"x_min":16.484375,"x_max":961.921875,"ha":979,"o":"m 489 650 l 657 1009 q 664 1021 661 1017 q 670 1027 667 1025 q 676 1029 673 1028 q 683 1031 679 1029 l 950 1031 q 958 1027 955 1031 q 961 1020 961 1024 q 952 1003 961 1012 l 623 420 l 623 32 q 591 0 623 0 l 383 0 q 361 8 369 0 q 354 32 354 17 l 354 422 l 25 1003 q 16 1020 16 1012 q 19 1027 16 1024 q 26 1031 22 1031 l 294 1031 q 301 1029 299 1029 q 307 1027 304 1028 q 313 1021 310 1025 q 320 1009 315 1017 l 489 650 m 410 1126 q 387 1134 396 1127 q 378 1156 378 1141 l 355 1361 q 360 1379 353 1372 q 379 1386 367 1386 l 532 1386 q 553 1378 545 1386 q 558 1356 561 1370 l 537 1156 q 527 1135 536 1144 q 507 1126 519 1126 l 410 1126 l 410 1126 "},"č":{"x_min":71.25,"x_max":824.09375,"ha":872,"o":"m 662 271 q 681 280 672 278 q 694 281 690 281 q 716 276 706 281 q 736 256 726 272 l 814 138 q 820 126 817 133 q 824 115 824 119 q 814 89 824 99 q 792 71 803 79 q 667 7 735 31 q 524 -16 599 -16 q 403 0 461 -16 q 295 45 345 15 q 203 116 245 74 q 133 208 162 157 q 87 317 103 259 q 71 440 71 376 q 87 563 71 504 q 133 672 103 622 q 203 764 162 723 q 295 834 245 805 q 403 880 345 864 q 524 896 461 896 q 664 875 599 896 q 784 816 728 855 l 782 818 q 806 797 797 809 q 815 766 815 784 q 807 741 815 754 l 745 636 q 698 602 726 602 q 683 605 692 602 q 662 616 674 608 q 597 649 632 636 q 522 662 562 662 q 442 644 478 662 q 379 595 405 626 q 338 525 353 565 q 324 440 324 484 q 338 354 324 394 q 379 285 353 314 q 442 239 405 256 q 522 222 478 222 q 596 235 562 222 q 662 271 631 249 m 548 976 q 541 971 543 972 q 533 970 538 970 q 519 976 527 970 l 341 1153 q 335 1169 335 1157 q 341 1182 335 1175 l 402 1245 q 421 1253 410 1253 q 436 1246 430 1253 l 533 1148 l 632 1247 q 648 1253 639 1255 q 662 1245 657 1251 l 725 1185 q 729 1177 728 1181 q 731 1169 730 1173 q 729 1160 731 1164 q 725 1154 727 1157 l 548 976 "},"’":{"x_min":86,"x_max":317,"ha":388,"o":"m 86 1001 q 93 1023 86 1015 q 116 1032 101 1032 l 285 1032 q 306 1023 296 1032 q 317 1001 317 1015 l 317 851 q 315 792 317 821 q 280 692 310 738 q 196 616 251 647 q 191 614 196 615 q 181 611 187 612 q 171 609 176 610 q 165 608 167 608 q 156 610 160 608 q 148 617 153 613 l 122 637 q 108 651 110 645 q 106 662 106 657 q 115 680 106 670 q 136 703 125 689 q 157 733 148 716 q 167 771 167 749 l 167 801 q 154 816 167 814 l 114 816 q 93 824 100 816 q 86 847 86 833 l 86 1001 "},"Ν":{"x_min":115,"x_max":1024,"ha":1139,"o":"m 115 1000 q 122 1021 115 1012 q 145 1031 130 1031 l 373 1031 q 393 1026 382 1031 q 411 1009 403 1021 q 585 728 499 867 q 761 448 672 590 l 761 1004 q 772 1024 763 1017 q 791 1031 780 1031 l 989 1031 q 1014 1023 1004 1031 q 1024 1000 1024 1015 l 1024 27 q 1015 6 1024 13 q 992 0 1007 0 l 771 0 q 755 6 761 0 q 740 22 748 12 q 558 324 648 175 q 375 626 467 474 l 375 30 q 368 7 375 15 q 343 0 361 0 l 145 0 q 122 8 129 0 q 115 29 115 17 l 115 1000 "},"-":{"x_min":115.984375,"x_max":650.75,"ha":764,"o":"m 115 490 q 146 521 115 521 l 620 521 q 641 513 632 521 q 650 490 650 505 l 650 349 q 642 327 650 338 q 620 316 634 316 l 146 316 q 115 349 115 316 l 115 490 "},"Q":{"x_min":63,"x_max":1126,"ha":1184,"o":"m 63 514 q 81 656 63 588 q 135 783 100 723 q 218 891 170 842 q 325 974 266 940 q 452 1027 384 1008 q 594 1047 520 1047 q 735 1027 667 1047 q 862 974 803 1008 q 970 891 921 940 q 1053 783 1018 842 q 1106 656 1087 723 q 1126 514 1126 588 q 1096 336 1126 421 q 1013 183 1066 251 q 886 68 960 116 q 727 0 813 20 l 727 -187 q 693 -218 727 -218 l 488 -218 q 458 -187 458 -218 l 458 2 q 299 70 371 23 q 174 185 226 118 q 92 337 121 252 q 63 514 63 421 m 332 515 q 351 407 332 457 q 405 320 370 357 q 488 262 440 283 q 594 240 536 240 q 699 262 651 240 q 783 320 748 283 q 837 407 818 357 q 857 515 857 457 q 837 622 857 572 q 783 710 818 672 q 699 769 748 747 q 594 791 651 791 q 488 769 536 791 q 405 710 440 747 q 351 622 370 672 q 332 515 332 572 "},"M":{"x_min":70.140625,"x_max":1261.90625,"ha":1334,"o":"m 169 1000 q 179 1021 170 1012 q 202 1031 187 1031 l 443 1031 q 476 1004 468 1031 l 665 374 l 855 1004 q 891 1031 865 1031 l 1128 1031 q 1151 1022 1141 1031 q 1162 1000 1161 1013 q 1212 515 1186 756 q 1261 30 1237 274 l 1261 27 q 1231 0 1261 0 l 1034 0 q 1001 30 1002 0 l 941 567 l 784 27 q 774 10 783 20 q 757 1 766 1 l 575 1 q 557 10 566 1 q 547 27 547 19 l 391 565 l 330 30 q 296 0 329 0 l 100 0 q 70 30 70 0 l 169 1000 "},"œ":{"x_min":72.921875,"x_max":1600.125,"ha":1654,"o":"m 1493 105 q 1356 17 1432 49 q 1194 -14 1279 -14 q 1010 22 1096 -14 q 859 123 923 58 q 712 21 796 58 q 529 -16 627 -16 q 407 0 466 -16 q 297 45 348 15 q 205 116 247 74 q 135 208 164 157 q 89 317 105 259 q 72 440 72 376 q 89 563 72 504 q 135 672 105 622 q 205 764 164 723 q 297 834 247 805 q 407 880 348 864 q 529 896 466 896 q 708 860 625 896 q 852 762 791 825 q 990 860 911 824 q 1164 896 1069 896 q 1326 863 1250 896 q 1459 774 1401 830 q 1553 641 1516 717 q 1600 479 1590 565 q 1598 420 1599 443 q 1587 383 1597 397 q 1555 364 1577 370 q 1489 359 1533 359 l 982 359 q 1010 285 989 315 q 1059 237 1032 255 q 1118 212 1087 220 q 1177 204 1150 204 q 1229 210 1202 204 q 1280 223 1255 215 q 1325 244 1304 232 q 1358 268 1345 255 q 1377 281 1369 277 q 1394 286 1385 286 q 1412 279 1403 286 q 1434 261 1422 273 l 1507 178 q 1517 162 1515 169 q 1519 147 1519 154 q 1511 123 1519 133 q 1493 105 1504 113 m 326 440 q 340 354 326 394 q 380 285 354 314 q 444 239 406 256 q 527 222 481 222 q 609 239 572 222 q 671 285 645 256 q 710 354 696 314 q 723 440 723 394 q 710 525 723 484 q 671 595 696 565 q 609 644 645 626 q 527 662 572 662 q 444 644 481 662 q 380 595 406 626 q 340 525 354 565 q 326 440 326 484 m 1159 684 q 1107 673 1132 684 q 1059 644 1082 662 q 1019 603 1037 626 q 991 556 1002 580 l 1345 556 q 1314 606 1331 584 q 1275 647 1297 629 q 1225 674 1253 664 q 1159 684 1197 684 "},"ě":{"x_min":72.5625,"x_max":938.59375,"ha":1004,"o":"m 839 105 q 701 17 778 49 q 539 -13 625 -13 q 360 20 444 -13 q 211 117 275 55 q 110 261 147 178 q 72 443 72 345 q 87 561 72 504 q 129 668 102 618 q 196 760 157 718 q 284 832 235 802 q 389 879 333 862 q 510 895 446 895 q 621 880 567 895 q 723 837 676 865 q 810 770 771 809 q 878 685 850 732 q 922 587 907 639 q 938 479 938 534 q 937 420 938 443 q 926 383 936 397 q 894 364 917 370 q 828 359 871 359 l 328 359 q 356 285 335 315 q 405 237 377 255 q 464 212 433 220 q 523 204 495 204 q 574 210 548 204 q 625 223 601 215 q 670 244 650 232 q 703 268 691 255 q 722 281 714 277 q 739 286 730 286 q 758 279 749 286 q 779 261 767 273 l 853 178 q 862 162 860 169 q 864 147 864 154 q 857 123 864 133 q 839 105 849 113 m 505 684 q 452 673 478 684 q 405 644 427 662 q 365 603 383 626 q 336 556 347 580 l 691 556 q 659 606 676 584 q 620 647 642 629 q 570 674 598 664 q 505 684 542 684 m 526 955 q 519 950 521 951 q 511 949 516 949 q 497 955 505 949 l 319 1132 q 313 1148 313 1136 q 319 1161 313 1154 l 380 1224 q 399 1232 388 1232 q 414 1225 408 1232 l 511 1127 l 610 1226 q 626 1232 617 1234 q 640 1224 635 1230 l 703 1164 q 707 1156 706 1160 q 709 1148 708 1152 q 707 1139 709 1143 q 703 1133 705 1136 l 526 955 "},"ũ":{"x_min":83.34375,"x_max":920.21875,"ha":975,"o":"m 902 11 q 883 1 893 4 q 863 0 872 0 l 759 0 q 737 4 746 0 q 722 16 728 8 q 711 33 716 24 q 704 53 707 43 l 683 142 q 653 93 672 121 q 602 42 633 66 q 529 2 572 18 q 432 -14 487 -14 q 288 16 353 -14 q 178 99 224 47 q 108 223 133 152 q 83 373 83 293 l 83 828 q 94 868 83 854 q 131 882 106 882 l 291 882 q 332 871 321 882 q 343 832 343 861 l 343 380 q 357 323 343 350 q 393 276 370 296 q 443 243 415 255 q 500 232 471 232 q 552 243 525 232 q 601 275 579 255 q 638 321 624 295 q 653 378 653 348 l 653 830 q 658 853 653 842 q 671 872 662 865 q 688 879 680 877 q 707 882 696 882 l 863 882 q 907 867 893 882 q 920 828 920 852 l 920 51 q 914 26 920 38 q 897 9 908 15 l 902 11 m 267 1104 q 298 1139 280 1123 q 337 1165 316 1154 q 380 1181 358 1175 q 425 1187 403 1187 q 452 1184 437 1187 q 484 1174 466 1181 q 523 1156 501 1167 q 571 1127 544 1144 q 586 1119 578 1122 q 602 1116 593 1116 q 626 1122 616 1116 q 644 1137 636 1128 l 667 1165 q 681 1174 673 1174 q 694 1168 688 1175 l 766 1106 q 776 1093 773 1098 q 771 1078 778 1087 l 750 1051 q 682 991 723 1013 q 595 970 641 970 q 540 979 568 970 q 487 1004 512 988 l 448 1029 q 434 1036 441 1033 q 417 1039 427 1039 q 393 1033 403 1039 q 375 1019 383 1028 l 354 991 q 339 983 350 984 q 323 988 329 982 l 251 1049 q 245 1055 248 1052 q 243 1065 243 1059 q 243 1068 243 1065 q 246 1074 243 1070 q 253 1085 248 1078 q 267 1104 258 1093 "},"ŭ":{"x_min":83.34375,"x_max":920.21875,"ha":975,"o":"m 902 11 q 883 1 893 4 q 863 0 872 0 l 759 0 q 737 4 746 0 q 722 16 728 8 q 711 33 716 24 q 704 53 707 43 l 683 142 q 653 93 672 121 q 602 42 633 66 q 529 2 572 18 q 432 -14 487 -14 q 288 16 353 -14 q 178 99 224 47 q 108 223 133 152 q 83 373 83 293 l 83 828 q 94 868 83 854 q 131 882 106 882 l 291 882 q 332 871 321 882 q 343 832 343 861 l 343 380 q 357 323 343 350 q 393 276 370 296 q 443 243 415 255 q 500 232 471 232 q 552 243 525 232 q 601 275 579 255 q 638 321 624 295 q 653 378 653 348 l 653 830 q 658 853 653 842 q 671 872 662 865 q 688 879 680 877 q 707 882 696 882 l 863 882 q 907 867 893 882 q 920 828 920 852 l 920 51 q 914 26 920 38 q 897 9 908 15 l 902 11 m 504 981 q 428 996 463 981 q 368 1035 393 1011 q 327 1091 342 1060 q 313 1155 313 1121 q 321 1174 313 1167 q 339 1181 329 1181 l 439 1181 q 451 1176 447 1181 q 455 1165 455 1171 q 468 1136 455 1149 q 507 1124 480 1124 q 543 1137 530 1124 q 556 1165 556 1150 q 559 1176 556 1171 q 571 1181 563 1181 l 672 1181 q 690 1174 682 1181 q 698 1155 698 1167 q 683 1090 698 1121 q 642 1034 668 1058 q 580 996 616 1010 q 504 981 545 981 "},"{":{"x_min":53.046875,"x_max":542.84375,"ha":616,"o":"m 160 916 q 188 1035 160 979 q 263 1132 216 1091 q 369 1198 310 1174 q 493 1222 429 1222 l 507 1222 q 542 1187 542 1218 l 542 977 q 533 952 542 962 q 512 942 524 942 l 499 942 q 469 935 483 942 q 444 919 455 929 q 428 894 434 908 q 422 864 422 880 l 422 539 q 410 492 422 514 q 383 452 399 470 q 410 412 399 433 q 422 363 422 390 l 422 32 q 428 2 422 16 q 444 -22 434 -11 q 469 -38 455 -32 q 499 -45 483 -45 l 512 -45 q 533 -55 524 -45 q 542 -80 542 -65 l 542 -295 q 507 -331 542 -328 l 493 -331 q 369 -307 429 -331 q 263 -241 310 -283 q 188 -144 216 -200 q 160 -25 160 -89 l 160 301 q 154 312 160 306 q 143 318 148 318 l 83 318 q 53 351 53 318 l 53 553 q 83 584 53 584 l 139 584 q 160 603 160 584 l 160 916 "},"¼":{"x_min":66,"x_max":989.703125,"ha":1044,"o":"m 660 1000 q 676 1021 666 1012 q 705 1031 687 1031 l 836 1031 q 860 1025 850 1031 q 871 1009 871 1019 q 869 1000 871 1001 l 339 30 q 324 6 331 13 q 302 0 318 0 l 156 0 q 127 18 127 0 q 130 30 127 16 l 660 1000 m 66 975 q 82 999 66 989 l 143 1030 q 156 1033 147 1033 l 259 1033 q 278 1016 278 1033 l 278 482 q 261 466 278 466 l 156 466 q 140 481 140 466 l 139 903 l 87 878 q 82 875 86 875 q 81 874 81 875 q 69 879 73 874 q 66 893 66 885 l 66 975 m 565 83 q 538 94 545 83 q 530 118 530 105 q 532 131 530 125 q 538 142 535 137 l 789 571 q 802 586 797 583 q 815 590 808 590 l 885 590 q 906 579 898 590 q 914 558 914 568 l 914 214 l 955 214 q 979 207 968 214 q 989 184 989 200 l 989 113 q 979 92 989 101 q 955 83 968 83 l 914 83 l 914 29 q 907 7 914 14 q 882 0 900 0 l 815 0 q 786 29 786 0 l 786 83 l 565 83 m 786 214 l 786 333 l 717 214 l 786 214 "},"#":{"x_min":78.015625,"x_max":803.859375,"ha":876,"o":"m 773 786 q 794 778 785 786 q 803 755 803 770 l 803 629 q 801 618 803 624 q 795 607 799 612 q 785 599 791 602 q 773 596 780 596 l 674 596 l 674 434 l 773 434 q 794 426 785 434 q 803 403 803 418 l 803 277 q 801 266 803 272 q 795 255 799 260 q 785 247 791 250 q 773 244 780 244 l 674 244 l 674 30 q 640 0 674 0 l 514 0 q 484 30 484 0 l 484 244 l 384 244 l 384 30 q 350 0 384 0 l 224 0 q 194 30 194 0 l 194 244 l 108 244 q 78 277 78 244 l 78 403 q 108 434 78 434 l 194 434 l 194 596 l 108 596 q 78 629 78 596 l 78 755 q 108 786 78 786 l 194 786 l 194 1000 q 202 1022 194 1013 q 224 1031 210 1031 l 350 1031 q 372 1022 361 1031 q 384 1000 384 1014 l 384 786 l 484 786 l 484 1000 q 492 1022 484 1013 q 514 1031 500 1031 l 640 1031 q 662 1022 651 1031 q 674 1000 674 1014 l 674 786 l 773 786 m 384 434 l 484 434 l 484 596 l 384 596 l 384 434 "},"Ĳ":{"x_min":115,"x_max":876,"ha":991,"o":"m 607 1003 q 634 1031 607 1028 l 838 1031 q 876 994 876 1031 l 876 -12 q 848 -140 876 -80 q 774 -245 821 -201 q 666 -316 728 -290 q 537 -342 605 -342 q 458 -332 497 -342 q 384 -306 419 -323 q 319 -262 349 -288 q 266 -202 288 -236 q 263 -191 263 -201 q 275 -164 263 -173 l 395 -51 q 407 -43 401 -46 q 419 -40 413 -40 q 439 -48 429 -40 q 460 -65 448 -55 q 486 -82 471 -74 q 523 -90 502 -90 q 554 -83 539 -90 q 581 -67 570 -77 q 600 -42 593 -56 q 607 -12 607 -28 l 607 1003 m 115 1000 q 122 1021 115 1012 q 145 1031 130 1031 l 349 1031 q 372 1022 360 1031 q 384 1000 384 1014 l 384 30 q 349 0 384 0 l 145 0 q 115 30 115 0 l 115 1000 "},"Ê":{"x_min":112,"x_max":878.953125,"ha":938,"o":"m 112 999 q 119 1022 112 1013 q 142 1031 127 1031 l 831 1031 q 855 1022 847 1031 q 863 997 863 1013 l 863 826 q 855 803 863 814 q 831 793 847 793 l 381 793 l 381 621 l 728 621 q 750 614 741 621 q 758 593 758 608 l 758 443 q 751 425 758 434 q 728 416 743 416 l 381 416 l 381 238 l 847 238 q 878 206 878 238 l 878 31 q 873 19 878 24 q 844 0 870 0 l 142 0 q 120 7 128 0 q 112 29 112 14 l 112 999 m 487 1371 q 494 1375 492 1374 q 502 1377 497 1377 q 516 1371 508 1377 l 694 1193 q 700 1177 700 1189 q 694 1164 700 1170 l 633 1101 q 614 1093 625 1093 q 598 1100 605 1093 l 502 1198 l 403 1099 q 387 1093 396 1091 q 373 1101 378 1095 l 310 1161 q 306 1169 307 1165 q 304 1177 305 1173 q 306 1186 304 1182 q 310 1192 307 1189 l 487 1371 "},"Ά":{"x_min":27.703125,"x_max":1039.21875,"ha":1065,"o":"m 406 1003 q 411 1012 407 1008 q 420 1021 415 1017 q 432 1028 426 1026 q 444 1031 438 1031 l 622 1031 q 642 1023 634 1031 q 654 1010 650 1016 l 672 971 l 1036 31 q 1034 8 1042 17 q 1008 0 1027 0 l 809 0 q 784 5 793 0 q 770 25 775 11 q 743 96 757 61 q 717 167 730 131 l 348 167 q 321 96 335 131 q 295 25 308 61 q 259 0 286 0 l 54 0 q 32 6 41 0 q 29 27 24 13 l 406 1003 m 533 707 q 506 630 520 671 q 479 548 493 590 q 453 466 466 506 q 426 390 439 425 l 639 390 l 533 707 m 119 774 q 96 782 105 775 q 87 804 87 789 l 64 1009 q 69 1027 62 1020 q 88 1034 76 1034 l 241 1034 q 262 1026 254 1034 q 267 1004 270 1018 l 246 804 q 236 783 245 792 q 216 774 228 774 l 119 774 l 119 774 "},")":{"x_min":54.5625,"x_max":469,"ha":561,"o":"m 272 -175 q 254 -189 265 -187 q 232 -183 242 -190 l 67 -80 q 54 -61 56 -72 q 60 -40 53 -50 q 179 223 138 84 q 218 513 218 361 q 179 802 218 663 q 60 1068 140 941 q 54 1088 53 1077 q 67 1107 56 1099 l 232 1209 q 254 1216 242 1218 q 272 1202 265 1213 q 418 877 367 1050 q 469 513 469 704 q 418 148 469 322 q 272 -175 367 -24 "},"ș":{"x_min":46.84375,"x_max":738.953125,"ha":804,"o":"m 215 274 q 255 242 234 255 q 297 221 277 229 q 333 210 318 213 q 354 206 348 206 q 387 208 367 206 q 427 214 408 209 q 459 231 445 219 q 472 264 472 243 q 465 295 472 284 q 443 314 457 306 q 407 329 428 322 q 359 343 386 335 q 222 397 276 366 q 136 467 168 428 q 92 550 104 505 q 79 643 79 594 q 102 748 79 701 q 168 829 125 795 q 269 881 210 863 q 400 900 328 900 q 482 892 444 900 q 555 869 520 885 q 623 829 590 854 q 688 770 656 804 q 701 744 700 757 q 685 718 701 732 q 633 675 658 696 q 582 627 609 653 q 566 618 574 620 q 550 618 557 616 q 535 625 542 620 q 522 637 528 630 q 467 674 498 664 q 409 683 436 683 q 354 671 375 683 q 336 635 334 659 q 349 607 337 617 q 379 591 361 597 q 417 580 397 584 q 453 572 436 577 q 568 528 516 552 q 658 470 620 504 q 717 388 696 436 q 738 271 738 340 q 711 148 738 202 q 636 57 684 94 q 522 1 588 20 q 381 -18 456 -18 q 293 -10 338 -18 q 207 14 249 -2 q 128 57 165 31 q 61 122 90 84 q 50 143 54 132 q 46 164 46 154 q 51 183 47 175 q 63 198 54 192 l 152 288 q 182 297 169 302 q 215 274 195 293 m 276 -157 q 283 -137 276 -145 q 303 -130 290 -130 l 467 -130 q 487 -137 478 -130 q 497 -157 497 -144 l 497 -335 q 466 -445 497 -393 q 379 -530 436 -496 q 370 -531 378 -531 q 357 -528 361 -531 q 348 -523 352 -526 l 305 -486 q 296 -476 298 -481 q 293 -466 293 -471 q 302 -450 293 -457 q 320 -432 310 -442 q 339 -409 331 -422 q 348 -376 348 -395 l 348 -349 q 336 -336 348 -338 l 301 -336 q 276 -308 276 -335 l 276 -157 "},"Å":{"x_min":27.703125,"x_max":1039.21875,"ha":1063,"o":"m 406 1003 q 411 1012 407 1008 q 420 1021 415 1017 q 432 1028 426 1026 q 444 1031 438 1031 l 622 1031 q 642 1023 634 1031 q 654 1010 650 1016 l 672 971 l 1036 31 q 1034 8 1042 17 q 1008 0 1027 0 l 809 0 q 784 5 793 0 q 770 25 775 11 q 743 96 757 61 q 717 167 730 131 l 348 167 q 321 96 335 131 q 295 25 308 61 q 259 0 286 0 l 54 0 q 32 6 41 0 q 29 27 24 13 l 406 1003 m 533 707 q 506 630 520 671 q 479 548 493 590 q 453 466 466 506 q 426 390 439 425 l 639 390 l 533 707 m 530 1378 q 587 1366 560 1378 q 634 1334 613 1355 q 665 1287 654 1314 q 677 1231 677 1261 q 665 1174 677 1200 q 634 1128 654 1147 q 587 1097 613 1108 q 530 1086 560 1086 q 474 1097 500 1086 q 427 1128 447 1108 q 397 1174 408 1147 q 386 1231 386 1200 q 397 1287 386 1261 q 427 1334 408 1314 q 474 1366 447 1355 q 530 1378 500 1378 m 531 1274 q 502 1262 513 1274 q 492 1232 492 1250 q 502 1203 492 1214 q 531 1192 513 1192 q 561 1203 549 1192 q 573 1232 573 1214 q 561 1262 573 1250 q 531 1274 549 1274 "},"¸":{"x_min":42,"x_max":367,"ha":387,"o":"m 239 0 q 224 -24 224 -10 q 234 -44 224 -35 q 261 -64 245 -54 q 295 -85 276 -74 q 329 -112 314 -97 q 356 -146 345 -126 q 367 -190 367 -165 q 349 -244 367 -215 q 301 -300 332 -272 q 227 -352 271 -328 q 132 -392 184 -376 l 128 -392 q 105 -376 118 -392 q 81 -342 93 -361 q 63 -304 70 -322 q 55 -279 55 -285 q 63 -264 55 -268 q 182 -190 182 -234 q 171 -163 182 -175 q 145 -141 161 -151 q 112 -119 130 -130 q 78 -96 93 -108 q 52 -68 62 -83 q 42 -33 42 -53 q 44 -17 42 -25 q 55 0 46 -9 l 239 0 "},"a":{"x_min":56.953125,"x_max":991.046875,"ha":1074,"o":"m 991 51 q 986 28 991 39 q 973 11 982 17 q 954 1 965 4 q 936 0 944 0 l 800 0 q 776 3 785 0 q 761 14 767 7 q 752 31 756 21 q 744 53 748 41 l 724 105 q 683 65 705 86 q 634 26 661 44 q 576 -3 607 8 q 509 -16 545 -16 q 388 0 446 -16 q 280 45 330 15 q 188 116 229 74 q 118 208 147 157 q 72 317 88 259 q 56 440 56 376 q 92 619 56 536 q 188 764 127 702 q 332 860 250 825 q 509 896 415 896 q 588 883 552 896 q 654 849 625 870 q 708 802 684 828 q 750 748 732 775 l 777 832 q 789 860 784 849 q 799 876 793 871 q 811 883 804 881 q 833 885 819 885 l 936 885 q 954 882 944 885 q 973 873 965 880 q 986 855 982 865 q 991 833 991 846 l 991 51 m 306 440 q 321 354 306 394 q 361 285 335 314 q 425 239 388 256 q 507 222 462 222 q 594 239 554 222 q 663 285 634 256 q 709 354 693 314 q 726 440 726 394 q 709 525 726 484 q 663 595 693 565 q 594 644 634 626 q 507 662 554 662 q 425 644 462 662 q 361 595 388 626 q 321 525 335 565 q 306 440 306 484 "},"Ę":{"x_min":112,"x_max":878.953125,"ha":938,"o":"m 112 999 q 119 1022 112 1013 q 142 1031 127 1031 l 831 1031 q 855 1022 847 1031 q 863 997 863 1013 l 863 826 q 855 803 863 814 q 831 793 847 793 l 381 793 l 381 621 l 728 621 q 750 614 741 621 q 758 593 758 608 l 758 443 q 751 425 758 434 q 728 416 743 416 l 381 416 l 381 238 l 847 238 q 878 206 878 238 l 878 31 q 873 19 878 24 q 844 0 870 0 l 142 0 q 120 7 128 0 q 112 29 112 14 l 112 999 m 620 8 q 631 -9 629 -1 q 634 -25 634 -17 q 623 -60 634 -45 q 597 -88 613 -75 q 564 -111 582 -100 q 530 -133 545 -122 q 504 -155 514 -143 q 494 -182 494 -167 q 612 -256 494 -226 q 620 -271 620 -260 q 612 -296 620 -277 q 594 -334 605 -314 q 570 -368 582 -353 q 547 -384 557 -384 l 544 -384 q 447 -344 491 -368 q 373 -292 404 -320 q 325 -236 342 -264 q 309 -182 309 -207 q 319 -138 309 -157 q 346 -104 330 -118 q 380 -77 362 -89 q 414 -56 398 -66 q 441 -36 430 -46 q 452 -16 452 -27 q 437 8 452 -2 l 620 8 "},"=":{"x_min":115.984375,"x_max":650.75,"ha":764,"o":"m 115 342 q 146 373 115 373 l 620 373 q 641 365 632 373 q 650 342 650 357 l 650 201 q 642 179 650 190 q 620 168 634 168 l 146 168 q 115 201 115 168 l 115 342 m 115 632 q 146 663 115 663 l 620 663 q 641 655 632 663 q 650 632 650 647 l 650 491 q 642 469 650 480 q 620 458 634 458 l 146 458 q 115 491 115 458 l 115 632 "},"˚":{"x_min":115,"x_max":406,"ha":532,"o":"m 259 1238 q 316 1226 289 1238 q 363 1194 342 1215 q 394 1147 383 1174 q 406 1091 406 1121 q 394 1034 406 1060 q 363 988 383 1007 q 316 957 342 968 q 259 946 289 946 q 203 957 229 946 q 156 988 176 968 q 126 1034 137 1007 q 115 1091 115 1060 q 126 1147 115 1121 q 156 1194 137 1174 q 203 1226 176 1215 q 259 1238 229 1238 m 260 1134 q 231 1122 242 1134 q 221 1092 221 1110 q 231 1063 221 1074 q 260 1052 242 1052 q 290 1063 278 1052 q 302 1092 302 1074 q 290 1122 302 1110 q 260 1134 278 1134 "},"ú":{"x_min":83.34375,"x_max":920.21875,"ha":975,"o":"m 902 11 q 883 1 893 4 q 863 0 872 0 l 759 0 q 737 4 746 0 q 722 16 728 8 q 711 33 716 24 q 704 53 707 43 l 683 142 q 653 93 672 121 q 602 42 633 66 q 529 2 572 18 q 432 -14 487 -14 q 288 16 353 -14 q 178 99 224 47 q 108 223 133 152 q 83 373 83 293 l 83 828 q 94 868 83 854 q 131 882 106 882 l 291 882 q 332 871 321 882 q 343 832 343 861 l 343 380 q 357 323 343 350 q 393 276 370 296 q 443 243 415 255 q 500 232 471 232 q 552 243 525 232 q 601 275 579 255 q 638 321 624 295 q 653 378 653 348 l 653 830 q 658 853 653 842 q 671 872 662 865 q 688 879 680 877 q 707 882 696 882 l 863 882 q 907 867 893 882 q 920 828 920 852 l 920 51 q 914 26 920 38 q 897 9 908 15 l 902 11 m 441 1159 q 456 1182 445 1175 q 478 1189 466 1189 l 657 1189 q 673 1184 668 1189 q 680 1174 678 1180 q 680 1160 682 1168 q 675 1144 679 1152 l 607 995 q 591 972 599 979 q 570 966 583 966 l 418 966 q 404 971 407 966 q 400 984 400 977 q 402 1001 400 992 q 405 1016 404 1010 l 441 1159 "},"¯":{"x_min":54.171875,"x_max":643.796875,"ha":705,"o":"m 54 1156 q 78 1181 54 1181 l 619 1181 q 636 1175 629 1181 q 643 1156 643 1169 l 643 1049 q 637 1031 643 1041 q 619 1022 631 1022 l 78 1022 q 54 1049 54 1022 l 54 1156 "},"Z":{"x_min":75,"x_max":947.296875,"ha":995,"o":"m 75 1000 q 83 1022 75 1014 q 107 1031 92 1031 l 913 1031 q 936 1023 927 1031 q 945 1000 945 1015 l 945 860 q 945 849 945 854 q 941 837 945 844 l 438 238 l 916 238 q 938 230 929 238 q 947 206 947 222 l 947 34 q 938 11 947 22 q 916 0 929 0 l 109 0 q 86 9 95 0 q 77 34 77 18 l 77 183 q 81 201 77 194 l 583 793 l 107 793 q 83 800 92 793 q 75 826 75 808 l 75 1000 "},"⁸":{"x_min":28,"x_max":431,"ha":480,"o":"m 192 881 q 203 854 192 865 q 229 844 213 844 q 256 854 245 844 q 267 881 267 865 q 256 907 267 896 q 229 918 245 918 q 203 907 213 918 q 192 881 192 896 m 160 645 q 178 591 160 613 q 229 569 196 569 q 278 591 260 569 q 297 645 297 613 q 292 675 297 661 q 278 700 287 689 q 257 717 269 711 q 229 724 244 724 q 200 717 213 724 q 178 700 187 711 q 164 675 169 689 q 160 645 160 661 m 28 645 q 45 731 28 693 q 95 796 63 769 q 78 837 85 814 q 72 881 72 859 q 84 942 72 913 q 118 993 96 971 q 168 1027 140 1015 q 229 1040 196 1040 q 290 1027 261 1040 q 340 993 319 1015 q 374 942 362 971 q 387 881 387 913 q 380 836 387 858 q 362 796 374 814 q 413 731 396 769 q 431 645 431 693 q 415 566 431 603 q 372 502 399 529 q 308 459 344 475 q 229 444 271 444 q 150 459 187 444 q 86 502 114 475 q 43 566 59 529 q 28 645 28 603 "},"u":{"x_min":83.34375,"x_max":920.21875,"ha":1004,"o":"m 902 11 q 883 1 893 4 q 863 0 872 0 l 759 0 q 737 4 746 0 q 722 16 728 8 q 711 33 716 24 q 704 53 707 43 l 683 142 q 653 93 672 121 q 602 42 633 66 q 529 2 572 18 q 432 -14 487 -14 q 288 16 353 -14 q 178 99 224 47 q 108 223 133 152 q 83 373 83 293 l 83 828 q 94 868 83 854 q 131 882 106 882 l 291 882 q 332 871 321 882 q 343 832 343 861 l 343 380 q 357 323 343 350 q 393 276 370 296 q 443 243 415 255 q 500 232 471 232 q 552 243 525 232 q 601 275 579 255 q 638 321 624 295 q 653 378 653 348 l 653 830 q 658 853 653 842 q 671 872 662 865 q 688 879 680 877 q 707 882 696 882 l 863 882 q 907 867 893 882 q 920 828 920 852 l 920 51 q 914 26 920 38 q 897 9 908 15 l 902 11 "},"k":{"x_min":83.34375,"x_max":968.828125,"ha":981,"o":"m 83 1091 q 84 1112 83 1102 q 89 1129 84 1122 q 106 1140 95 1136 q 137 1143 117 1143 l 303 1143 q 325 1139 316 1143 q 339 1127 334 1134 q 346 1112 344 1120 q 347 1097 347 1104 l 347 584 l 597 861 q 641 882 616 882 l 854 882 q 892 852 892 882 q 890 839 892 844 q 879 825 887 834 l 594 524 l 953 63 l 952 63 q 965 44 961 54 q 968 27 968 35 q 960 5 968 11 q 934 0 951 0 l 699 0 q 677 9 687 0 q 654 36 666 18 l 427 357 l 350 277 l 350 53 q 348 38 350 47 q 341 21 346 29 q 327 6 336 12 q 303 0 318 0 l 129 0 q 107 6 116 0 q 93 21 98 13 q 85 37 88 29 q 83 45 83 44 l 83 1091 "},"Ù":{"x_min":108,"x_max":987,"ha":1077,"o":"m 377 411 q 391 323 377 359 q 428 265 405 288 q 483 232 452 242 q 547 222 514 222 q 613 234 582 222 q 667 270 644 246 q 704 329 690 294 q 718 411 718 365 l 718 1000 q 726 1021 718 1012 q 749 1031 735 1031 l 952 1031 q 977 1021 968 1031 q 987 1000 987 1012 l 987 415 q 951 211 987 293 q 854 78 915 128 q 714 5 794 27 q 547 -16 635 -16 q 380 6 460 -16 q 240 80 300 29 q 143 213 179 131 q 108 415 108 295 l 108 1000 q 115 1021 108 1012 q 135 1031 123 1031 l 343 1031 q 365 1022 354 1031 q 377 1000 377 1013 l 377 411 m 667 1166 q 671 1151 669 1160 q 673 1134 673 1142 q 669 1121 673 1127 q 655 1116 665 1116 l 503 1116 q 481 1122 489 1116 q 465 1145 473 1129 l 397 1294 q 392 1310 394 1302 q 393 1324 391 1318 q 399 1334 394 1330 q 415 1339 405 1339 l 594 1339 q 617 1332 606 1339 q 631 1309 628 1325 l 667 1166 "},"Α":{"x_min":27.703125,"x_max":1039.21875,"ha":1063,"o":"m 406 1003 q 411 1012 407 1008 q 420 1021 415 1017 q 432 1028 426 1026 q 444 1031 438 1031 l 622 1031 q 642 1023 634 1031 q 654 1010 650 1016 l 672 971 l 1036 31 q 1034 8 1042 17 q 1008 0 1027 0 l 809 0 q 784 5 793 0 q 770 25 775 11 q 743 96 757 61 q 717 167 730 131 l 348 167 q 321 96 335 131 q 295 25 308 61 q 259 0 286 0 l 54 0 q 32 6 41 0 q 29 27 24 13 l 406 1003 m 533 707 q 506 630 520 671 q 479 548 493 590 q 453 466 466 506 q 426 390 439 425 l 639 390 l 533 707 "},"⅝":{"x_min":37.765625,"x_max":1062,"ha":1120,"o":"m 750 1000 q 766 1021 756 1012 q 795 1031 777 1031 l 926 1031 q 950 1025 940 1031 q 961 1009 961 1019 q 959 1000 961 1001 l 429 30 q 414 6 421 13 q 392 0 408 0 l 246 0 q 217 18 217 0 q 220 30 217 16 l 750 1000 m 57 999 q 86 1031 57 1031 l 363 1031 q 388 1021 381 1031 q 395 998 395 1012 l 395 934 q 387 911 395 920 q 362 903 379 903 l 185 903 l 185 836 l 217 836 q 223 836 221 836 q 229 835 225 836 q 326 814 288 832 q 385 769 364 796 q 414 708 406 741 q 423 643 423 675 q 405 565 423 601 q 359 501 388 528 q 293 459 331 475 q 215 444 255 444 q 157 449 182 444 q 112 466 132 455 q 76 494 91 478 q 46 530 60 510 q 37 552 38 541 q 52 574 37 562 l 51 574 l 108 616 q 129 622 120 624 q 148 611 138 621 l 149 611 q 178 583 161 593 q 216 574 196 574 q 242 579 229 574 q 266 593 255 584 q 285 614 278 602 q 292 642 292 627 q 274 688 292 671 q 215 706 257 706 l 120 706 q 77 716 91 706 q 57 756 62 726 l 57 999 m 823 416 q 834 389 823 400 q 860 379 844 379 q 887 389 876 379 q 898 416 898 400 q 887 442 898 431 q 860 453 876 453 q 834 442 844 453 q 823 416 823 431 m 791 180 q 809 126 791 148 q 860 104 827 104 q 909 126 891 104 q 928 180 928 148 q 923 210 928 196 q 909 235 918 224 q 888 252 900 246 q 860 259 875 259 q 831 252 844 259 q 809 235 818 246 q 795 210 800 224 q 791 180 791 196 m 659 180 q 676 266 659 228 q 726 331 694 304 q 709 372 716 349 q 703 416 703 394 q 715 477 703 448 q 749 528 727 506 q 799 562 771 550 q 860 575 827 575 q 921 562 892 575 q 971 528 950 550 q 1005 477 993 506 q 1018 416 1018 448 q 1011 371 1018 393 q 993 331 1005 349 q 1044 266 1027 304 q 1062 180 1062 228 q 1046 101 1062 138 q 1003 37 1030 64 q 939 -5 975 10 q 860 -21 902 -21 q 781 -5 818 -21 q 717 37 745 10 q 674 101 690 64 q 659 180 659 138 "},"Ů":{"x_min":108,"x_max":987,"ha":1077,"o":"m 377 411 q 391 323 377 359 q 428 265 405 288 q 483 232 452 242 q 547 222 514 222 q 613 234 582 222 q 667 270 644 246 q 704 329 690 294 q 718 411 718 365 l 718 1000 q 726 1021 718 1012 q 749 1031 735 1031 l 952 1031 q 977 1021 968 1031 q 987 1000 987 1012 l 987 415 q 951 211 987 293 q 854 78 915 128 q 714 5 794 27 q 547 -16 635 -16 q 380 6 460 -16 q 240 80 300 29 q 143 213 179 131 q 108 415 108 295 l 108 1000 q 115 1021 108 1012 q 135 1031 123 1031 l 343 1031 q 365 1022 354 1031 q 377 1000 377 1013 l 377 411 m 540 1378 q 597 1366 570 1378 q 644 1334 623 1355 q 675 1287 664 1314 q 687 1231 687 1261 q 675 1174 687 1200 q 644 1128 664 1147 q 597 1097 623 1108 q 540 1086 570 1086 q 484 1097 510 1086 q 437 1128 457 1108 q 407 1174 418 1147 q 396 1231 396 1200 q 407 1287 396 1261 q 437 1334 418 1314 q 484 1366 457 1355 q 540 1378 510 1378 m 541 1274 q 512 1262 523 1274 q 502 1232 502 1250 q 512 1203 502 1214 q 541 1192 523 1192 q 571 1203 559 1192 q 583 1232 583 1214 q 571 1262 583 1250 q 541 1274 559 1274 "},"¢":{"x_min":49,"x_max":661.625,"ha":756,"o":"m 552 235 q 573 225 564 232 q 592 205 583 218 l 659 99 q 661 91 661 95 q 651 78 661 84 q 653 70 653 75 q 639 49 653 60 q 605 30 624 39 q 564 13 585 20 q 530 2 542 6 l 530 -93 q 523 -112 530 -103 q 502 -121 516 -121 l 339 -121 q 313 -93 313 -121 l 313 3 q 206 54 255 20 q 123 135 158 88 q 68 239 88 181 q 49 360 49 296 q 68 480 49 423 q 123 584 88 537 q 206 665 158 631 q 313 716 255 699 l 313 810 q 319 832 313 824 q 339 840 326 840 l 502 840 q 521 830 512 840 q 530 810 530 821 l 530 718 q 584 698 557 710 q 635 671 610 686 q 634 672 634 671 q 642 665 638 670 q 650 655 646 661 q 656 644 653 650 q 658 635 658 639 q 654 621 658 628 l 580 485 q 559 471 570 471 q 548 473 553 471 q 547 473 548 473 q 545 473 545 473 q 524 486 536 480 q 495 499 511 493 q 464 508 480 505 q 431 512 447 512 q 372 499 400 512 q 325 466 345 487 q 293 417 304 445 q 282 358 282 389 q 293 297 282 325 q 325 249 304 269 q 373 216 346 228 q 431 205 400 205 q 488 215 459 205 q 538 240 517 225 q 538 239 538 240 q 544 241 542 241 q 548 239 546 240 q 552 235 550 239 "},"Ş":{"x_min":52.1875,"x_max":857,"ha":911,"o":"m 241 333 q 271 307 253 323 q 314 275 290 290 q 384 238 349 251 q 457 225 418 225 q 516 232 492 225 q 554 254 540 240 q 574 284 568 267 q 580 321 580 301 q 563 359 580 342 q 523 390 547 376 q 474 412 500 403 q 430 428 448 421 q 284 490 346 457 q 180 565 221 524 q 117 656 138 607 q 97 767 97 706 q 123 884 97 831 q 197 974 149 937 q 313 1032 245 1012 q 465 1053 381 1053 q 586 1038 528 1053 q 700 993 644 1024 q 745 964 724 979 q 782 935 766 949 q 808 909 798 921 q 817 887 817 896 q 812 871 817 878 q 799 853 808 863 l 693 740 q 669 728 681 728 q 651 734 659 728 q 634 748 643 739 l 627 753 q 597 778 614 765 q 560 800 579 790 q 519 817 541 810 q 475 824 498 824 q 432 820 452 824 q 397 808 412 816 q 373 786 382 799 q 364 753 364 772 q 373 719 364 733 q 402 693 383 705 q 451 670 422 681 q 518 647 479 659 q 653 596 591 622 q 761 532 716 569 q 831 445 806 496 q 857 322 857 395 q 825 184 857 246 q 740 78 794 122 q 611 10 685 34 q 453 -13 538 -13 q 296 15 373 -13 q 152 92 219 44 q 106 131 125 112 q 75 163 86 151 l 73 165 q 72 166 73 166 q 70 167 71 167 q 69 169 70 169 q 68 170 68 170 q 52 198 52 188 q 68 225 52 210 l 188 339 q 211 350 202 350 q 225 345 218 350 q 241 333 232 341 m 555 0 q 540 -24 540 -10 q 550 -44 540 -35 q 577 -64 561 -54 q 611 -85 592 -74 q 645 -112 630 -97 q 672 -146 661 -126 q 683 -190 683 -165 q 665 -244 683 -215 q 617 -300 648 -272 q 543 -352 587 -328 q 448 -392 500 -376 l 444 -392 q 421 -376 434 -392 q 397 -342 409 -361 q 379 -304 386 -322 q 371 -279 371 -285 q 379 -264 371 -268 q 498 -190 498 -234 q 487 -163 498 -175 q 461 -141 477 -151 q 428 -119 446 -130 q 394 -96 409 -108 q 368 -68 378 -83 q 358 -33 358 -53 q 360 -17 358 -25 q 371 0 362 -9 l 555 0 "},"é":{"x_min":72.5625,"x_max":938.59375,"ha":1004,"o":"m 839 105 q 701 17 778 49 q 539 -13 625 -13 q 360 20 444 -13 q 211 117 275 55 q 110 261 147 178 q 72 443 72 345 q 87 561 72 504 q 129 668 102 618 q 196 760 157 718 q 284 832 235 802 q 389 879 333 862 q 510 895 446 895 q 621 880 567 895 q 723 837 676 865 q 810 770 771 809 q 878 685 850 732 q 922 587 907 639 q 938 479 938 534 q 937 420 938 443 q 926 383 936 397 q 894 364 917 370 q 828 359 871 359 l 328 359 q 356 285 335 315 q 405 237 377 255 q 464 212 433 220 q 523 204 495 204 q 574 210 548 204 q 625 223 601 215 q 670 244 650 232 q 703 268 691 255 q 722 281 714 277 q 739 286 730 286 q 758 279 749 286 q 779 261 767 273 l 853 178 q 862 162 860 169 q 864 147 864 154 q 857 123 864 133 q 839 105 849 113 m 505 684 q 452 673 478 684 q 405 644 427 662 q 365 603 383 626 q 336 556 347 580 l 691 556 q 659 606 676 584 q 620 647 642 629 q 570 674 598 664 q 505 684 542 684 m 482 1159 q 497 1182 486 1175 q 519 1189 507 1189 l 698 1189 q 714 1184 709 1189 q 721 1174 719 1180 q 721 1160 723 1168 q 716 1144 720 1152 l 648 995 q 632 972 640 979 q 611 966 624 966 l 459 966 q 445 971 448 966 q 441 984 441 977 q 443 1001 441 992 q 446 1016 445 1010 l 482 1159 "},"B":{"x_min":111,"x_max":947,"ha":980,"o":"m 111 999 q 118 1022 111 1013 q 141 1031 126 1031 l 602 1031 q 718 1007 664 1031 q 813 943 772 984 q 877 848 853 903 q 901 731 901 794 q 884 634 901 679 q 838 554 868 590 q 917 445 888 508 q 947 311 947 382 q 922 191 947 248 q 857 92 898 135 q 760 24 815 49 q 644 0 705 0 l 141 0 q 119 7 127 0 q 111 29 111 14 l 111 999 m 671 322 q 662 363 671 342 q 640 400 654 384 q 606 427 626 417 q 563 438 586 438 l 380 438 l 380 206 l 563 206 q 606 215 586 206 q 640 241 625 225 q 662 278 654 258 q 671 322 671 299 m 634 725 q 626 764 634 746 q 604 796 618 782 q 571 818 590 810 q 528 826 551 826 l 380 826 l 380 625 l 526 625 q 570 632 550 625 q 604 653 590 639 q 626 684 618 666 q 634 725 634 703 "},"…":{"x_min":58,"x_max":957,"ha":1015,"o":"m 58 200 q 65 222 58 214 q 88 231 73 231 l 272 231 q 293 222 283 231 q 304 200 304 214 l 304 32 q 296 9 304 19 q 272 0 288 0 l 88 0 q 58 32 58 0 l 58 200 m 385 200 q 392 222 385 214 q 415 231 400 231 l 599 231 q 621 222 611 231 q 632 200 632 214 l 632 32 q 623 9 632 19 q 599 0 615 0 l 415 0 q 385 32 385 0 l 385 200 m 711 200 q 718 222 711 214 q 741 231 726 231 l 925 231 q 946 222 936 231 q 957 200 957 214 l 957 32 q 949 9 957 19 q 925 0 941 0 l 741 0 q 711 32 711 0 l 711 200 "},"ē":{"x_min":72.5625,"x_max":938.59375,"ha":1004,"o":"m 839 105 q 701 17 778 49 q 539 -13 625 -13 q 360 20 444 -13 q 211 117 275 55 q 110 261 147 178 q 72 443 72 345 q 87 561 72 504 q 129 668 102 618 q 196 760 157 718 q 284 832 235 802 q 389 879 333 862 q 510 895 446 895 q 621 880 567 895 q 723 837 676 865 q 810 770 771 809 q 878 685 850 732 q 922 587 907 639 q 938 479 938 534 q 937 420 938 443 q 926 383 936 397 q 894 364 917 370 q 828 359 871 359 l 328 359 q 356 285 335 315 q 405 237 377 255 q 464 212 433 220 q 523 204 495 204 q 574 210 548 204 q 625 223 601 215 q 670 244 650 232 q 703 268 691 255 q 722 281 714 277 q 739 286 730 286 q 758 279 749 286 q 779 261 767 273 l 853 178 q 862 162 860 169 q 864 147 864 154 q 857 123 864 133 q 839 105 849 113 m 505 684 q 452 673 478 684 q 405 644 427 662 q 365 603 383 626 q 336 556 347 580 l 691 556 q 659 606 676 584 q 620 647 642 629 q 570 674 598 664 q 505 684 542 684 m 207 1156 q 231 1181 207 1181 l 772 1181 q 789 1175 782 1181 q 796 1156 796 1169 l 796 1049 q 790 1031 796 1041 q 772 1022 784 1022 l 231 1022 q 207 1049 207 1022 l 207 1156 "},"H":{"x_min":115,"x_max":998,"ha":1113,"o":"m 115 1000 q 123 1021 115 1012 q 144 1031 131 1031 l 351 1031 q 372 1022 361 1031 q 384 1000 384 1013 l 384 671 l 729 671 l 729 1000 q 737 1021 729 1012 q 760 1031 746 1031 l 963 1031 q 987 1024 977 1031 q 998 1001 998 1017 l 998 30 q 988 7 998 15 q 965 0 979 0 l 760 0 q 737 7 746 0 q 729 30 729 15 l 729 425 l 384 425 l 384 30 q 374 7 384 15 q 349 0 365 0 l 144 0 q 115 27 115 0 l 115 1000 "},"î":{"x_min":50.5,"x_max":446.375,"ha":495,"o":"m 120 827 q 132 866 120 850 q 171 882 145 882 l 330 882 q 348 878 339 882 q 366 867 358 874 q 381 850 375 859 q 387 827 387 840 l 387 53 q 372 13 387 27 q 330 0 357 0 l 171 0 q 120 53 120 0 l 120 827 m 233 1251 q 240 1255 238 1254 q 248 1257 243 1257 q 262 1251 254 1257 l 440 1073 q 446 1057 446 1069 q 440 1044 446 1050 l 379 981 q 360 973 371 973 q 344 980 351 973 l 248 1078 l 149 979 q 133 973 142 971 q 119 981 124 975 l 56 1041 q 52 1049 53 1045 q 50 1057 51 1053 q 52 1066 50 1062 q 56 1072 53 1069 l 233 1251 "},"Ό":{"x_min":-33.0625,"x_max":1171,"ha":1244,"o":"m 377 515 q 396 407 377 457 q 450 320 415 357 q 533 262 485 283 q 639 241 581 241 q 744 262 696 241 q 828 320 793 283 q 882 407 863 357 q 902 515 902 457 q 882 622 902 572 q 828 710 863 672 q 744 769 793 747 q 639 791 696 791 q 533 769 581 791 q 450 710 485 747 q 396 622 415 672 q 377 515 377 572 m 108 514 q 126 656 108 588 q 180 783 145 724 q 263 891 215 842 q 370 974 311 940 q 497 1027 429 1008 q 639 1047 565 1047 q 780 1027 712 1047 q 907 974 848 1008 q 1015 891 966 940 q 1098 783 1063 842 q 1151 656 1132 724 q 1171 514 1171 588 q 1151 373 1171 441 q 1098 247 1132 305 q 1015 140 1063 188 q 907 57 966 91 q 780 3 848 22 q 639 -15 712 -15 q 497 3 565 -15 q 370 57 429 22 q 263 140 311 91 q 180 247 215 188 q 126 373 145 305 q 108 514 108 441 m 22 774 q 0 782 8 775 q -9 804 -9 789 l -32 1009 q -27 1027 -34 1020 q -8 1034 -20 1034 l 144 1034 q 165 1026 157 1034 q 170 1004 173 1018 l 149 804 q 139 783 148 792 q 119 774 131 774 l 22 774 l 22 774 "},"−":{"x_min":123.625,"x_max":637.546875,"ha":764,"o":"m 607 562 q 628 554 619 562 q 637 531 637 546 l 637 396 q 629 374 637 384 q 607 365 620 365 l 156 365 q 123 396 123 365 l 123 531 q 156 562 123 562 l 607 562 "},"⅜":{"x_min":30,"x_max":1071,"ha":1093,"o":"m 721 1000 q 737 1021 727 1012 q 766 1031 748 1031 l 897 1031 q 921 1025 911 1031 q 932 1009 932 1019 q 930 1000 932 1001 l 400 30 q 385 6 392 13 q 363 0 379 0 l 217 0 q 188 18 188 0 q 191 30 188 16 l 721 1000 m 832 416 q 843 389 832 400 q 869 379 853 379 q 896 389 885 379 q 907 416 907 400 q 896 442 907 431 q 869 453 885 453 q 843 442 853 453 q 832 416 832 431 m 800 180 q 818 126 800 148 q 869 104 836 104 q 918 126 900 104 q 937 180 937 148 q 932 210 937 196 q 918 235 927 224 q 897 252 909 246 q 869 259 884 259 q 840 252 853 259 q 818 235 827 246 q 804 210 809 224 q 800 180 800 196 m 668 180 q 685 266 668 228 q 735 331 703 304 q 718 372 725 349 q 712 416 712 394 q 724 477 712 448 q 758 528 736 506 q 808 562 780 550 q 869 575 836 575 q 930 562 901 575 q 980 528 959 550 q 1014 477 1002 506 q 1027 416 1027 448 q 1020 371 1027 393 q 1002 331 1014 349 q 1053 266 1036 304 q 1071 180 1071 228 q 1055 101 1071 138 q 1012 37 1039 64 q 948 -5 984 10 q 869 -21 911 -21 q 790 -5 827 -21 q 726 37 754 10 q 683 101 699 64 q 668 180 668 138 m 212 701 q 182 725 182 701 l 182 797 q 212 828 182 828 q 234 832 226 828 q 247 842 242 836 q 254 856 252 849 q 257 871 257 864 q 255 887 257 879 q 251 902 254 895 q 239 914 247 909 q 217 919 230 919 q 198 914 205 919 q 187 903 191 910 q 182 886 183 895 q 181 867 181 877 q 174 842 181 850 q 149 835 167 835 l 85 835 q 56 864 56 835 q 69 944 56 911 q 104 998 82 977 q 157 1028 127 1019 q 221 1038 187 1038 q 284 1025 254 1038 q 336 990 314 1012 q 372 938 359 967 q 385 874 385 908 q 355 783 385 820 q 383 757 371 771 q 404 725 395 743 q 416 686 412 708 q 421 636 421 664 q 406 560 421 595 q 366 499 392 525 q 304 457 340 472 q 224 443 268 443 q 148 451 183 443 q 86 483 112 460 q 45 548 60 506 q 30 654 30 589 q 59 684 30 677 l 128 684 q 158 654 158 684 q 163 613 158 629 q 177 587 168 597 q 198 574 185 578 q 224 571 210 571 q 275 587 257 571 q 293 638 293 604 q 275 687 293 673 q 212 701 257 701 "},"¥":{"x_min":30.484375,"x_max":975.921875,"ha":1011,"o":"m 503 650 l 671 1009 q 678 1021 675 1017 q 684 1027 681 1025 q 690 1029 687 1028 q 697 1031 693 1029 l 964 1031 q 972 1027 969 1031 q 975 1020 975 1024 q 972 1012 975 1017 q 966 1003 969 1008 l 706 544 l 787 544 q 809 536 800 544 q 818 513 818 528 l 818 437 q 809 415 818 426 q 787 404 801 404 l 637 404 l 637 341 l 787 341 q 809 333 800 341 q 818 310 818 325 l 818 234 q 809 211 818 223 q 787 200 801 200 l 637 200 l 637 32 q 605 0 637 0 l 397 0 q 375 8 383 0 q 368 32 368 17 l 368 200 l 226 200 q 195 234 195 200 l 195 310 q 226 341 195 341 l 368 341 l 368 404 l 226 404 q 195 437 195 404 l 195 513 q 226 544 195 544 l 299 543 l 39 1003 q 33 1012 36 1008 q 30 1020 30 1017 q 33 1027 30 1024 q 40 1031 36 1031 l 308 1031 q 315 1029 313 1029 q 321 1027 318 1028 q 327 1021 324 1025 q 334 1009 329 1017 l 503 650 "},"Ĥ":{"x_min":115,"x_max":998,"ha":1113,"o":"m 115 1000 q 123 1021 115 1012 q 144 1031 131 1031 l 351 1031 q 372 1022 361 1031 q 384 1000 384 1013 l 384 671 l 729 671 l 729 1000 q 737 1021 729 1012 q 760 1031 746 1031 l 963 1031 q 987 1024 977 1031 q 998 1001 998 1017 l 998 30 q 988 7 998 15 q 965 0 979 0 l 760 0 q 737 7 746 0 q 729 30 729 15 l 729 425 l 384 425 l 384 30 q 374 7 384 15 q 349 0 365 0 l 144 0 q 115 27 115 0 l 115 1000 m 542 1379 q 549 1383 547 1382 q 557 1385 552 1385 q 571 1379 563 1385 l 749 1201 q 755 1185 755 1197 q 749 1172 755 1178 l 688 1109 q 669 1101 680 1101 q 653 1108 660 1101 l 557 1206 l 458 1107 q 442 1101 451 1099 q 428 1109 433 1103 l 365 1169 q 361 1177 362 1173 q 359 1185 360 1181 q 361 1194 359 1190 q 365 1200 362 1197 l 542 1379 "},"U":{"x_min":108,"x_max":987,"ha":1077,"o":"m 377 411 q 391 323 377 359 q 428 265 405 288 q 483 232 452 242 q 547 222 514 222 q 613 234 582 222 q 667 270 644 246 q 704 329 690 294 q 718 411 718 365 l 718 1000 q 726 1021 718 1012 q 749 1031 735 1031 l 952 1031 q 977 1021 968 1031 q 987 1000 987 1012 l 987 415 q 951 211 987 293 q 854 78 915 128 q 714 5 794 27 q 547 -16 635 -16 q 380 6 460 -16 q 240 80 300 29 q 143 213 179 131 q 108 415 108 295 l 108 1000 q 115 1021 108 1012 q 135 1031 123 1031 l 343 1031 q 365 1022 354 1031 q 377 1000 377 1013 l 377 411 "},"Ñ":{"x_min":115,"x_max":1024,"ha":1139,"o":"m 115 1000 q 122 1021 115 1012 q 145 1031 130 1031 l 373 1031 q 393 1026 382 1031 q 411 1009 403 1021 q 585 728 499 867 q 761 448 672 590 l 761 1004 q 772 1024 763 1017 q 791 1031 780 1031 l 989 1031 q 1014 1023 1004 1031 q 1024 1000 1024 1015 l 1024 27 q 1015 6 1024 13 q 992 0 1007 0 l 771 0 q 755 6 761 0 q 740 22 748 12 q 558 324 648 175 q 375 626 467 474 l 375 30 q 368 7 375 15 q 343 0 361 0 l 145 0 q 122 8 129 0 q 115 29 115 17 l 115 1000 m 328 1255 q 359 1290 341 1274 q 398 1316 377 1305 q 441 1332 419 1326 q 486 1338 464 1338 q 513 1335 498 1338 q 545 1325 527 1332 q 584 1307 562 1318 q 632 1278 605 1295 q 647 1270 639 1273 q 663 1267 654 1267 q 687 1273 677 1267 q 705 1288 697 1279 l 728 1316 q 742 1325 734 1325 q 755 1319 749 1326 l 827 1257 q 837 1244 834 1249 q 832 1229 839 1238 l 811 1202 q 743 1142 784 1164 q 656 1121 702 1121 q 601 1130 629 1121 q 548 1155 573 1139 l 509 1180 q 495 1187 502 1184 q 478 1190 488 1190 q 454 1184 464 1190 q 436 1170 444 1179 l 415 1142 q 400 1134 411 1135 q 384 1139 390 1133 l 312 1200 q 306 1206 309 1203 q 304 1216 304 1210 q 304 1219 304 1216 q 307 1225 304 1221 q 314 1236 309 1229 q 328 1255 319 1244 "},"F":{"x_min":117,"x_max":840.90625,"ha":901,"o":"m 117 999 q 124 1021 117 1013 q 144 1031 132 1030 l 808 1031 q 832 1022 824 1031 q 840 997 840 1013 l 840 826 q 832 803 840 814 q 808 793 824 793 l 386 793 l 386 578 l 697 578 q 720 570 711 578 q 729 547 729 563 l 729 381 q 721 358 729 369 q 699 348 713 348 l 386 348 l 386 29 q 354 0 386 0 l 142 0 q 117 29 117 3 l 117 999 "},"ĵ":{"x_min":-44.453125,"x_max":416,"ha":436,"o":"m 86 827 q 104 868 86 854 q 142 882 121 882 l 300 882 q 338 866 325 882 q 352 827 352 850 l 352 30 q 325 -90 352 -34 q 252 -190 298 -147 q 147 -256 206 -232 q 23 -281 88 -281 l 6 -281 q -31 -265 -18 -279 q -44 -231 -44 -251 l -44 -131 q -28 -91 -44 -106 q 9 -76 -13 -76 l 23 -76 q 49 -64 37 -76 q 69 -36 61 -53 q 82 -1 77 -20 q 86 30 86 16 l 86 827 m 202 1250 q 210 1255 207 1254 q 218 1257 213 1257 q 231 1250 223 1257 l 410 1073 q 416 1057 416 1068 q 409 1043 416 1050 l 348 981 q 329 973 341 973 q 314 979 320 973 l 218 1078 l 119 979 q 103 973 111 971 q 88 981 94 975 l 26 1041 q 21 1049 22 1045 q 20 1057 20 1052 q 21 1066 20 1062 q 26 1072 23 1069 l 202 1250 "},"ā":{"x_min":71.953125,"x_max":1006.046875,"ha":1090,"o":"m 1006 51 q 1001 28 1006 39 q 988 11 997 17 q 969 1 980 4 q 951 0 959 0 l 815 0 q 791 3 800 0 q 776 14 782 7 q 767 31 771 21 q 759 53 763 41 l 739 105 q 698 65 720 86 q 649 26 676 44 q 591 -3 622 8 q 524 -16 560 -16 q 403 0 461 -16 q 295 45 345 15 q 203 116 244 74 q 133 208 162 157 q 87 317 103 259 q 71 440 71 376 q 107 619 71 536 q 203 764 142 702 q 347 860 265 825 q 524 896 430 896 q 603 883 567 896 q 669 849 640 870 q 723 802 699 828 q 765 748 747 775 l 792 832 q 804 860 799 849 q 814 876 808 871 q 826 883 819 881 q 848 885 834 885 l 951 885 q 969 882 959 885 q 988 873 980 880 q 1001 855 997 865 q 1006 833 1006 846 l 1006 51 m 321 440 q 336 354 321 394 q 376 285 350 314 q 440 239 403 256 q 522 222 477 222 q 609 239 569 222 q 678 285 649 256 q 724 354 708 314 q 741 440 741 394 q 724 525 741 484 q 678 595 708 565 q 609 644 649 626 q 522 662 569 662 q 440 644 477 662 q 376 595 403 626 q 336 525 350 565 q 321 440 321 484 m 248 1155 q 272 1180 248 1180 l 813 1180 q 830 1174 823 1180 q 837 1155 837 1168 l 837 1048 q 831 1030 837 1040 q 813 1021 825 1021 l 272 1021 q 248 1048 248 1021 l 248 1155 "},"Ĩ":{"x_min":-19.71875,"x_max":513.9375,"ha":495,"o":"m 114 1000 q 121 1021 114 1012 q 144 1031 129 1031 l 348 1031 q 371 1022 359 1031 q 383 1000 383 1014 l 383 30 q 348 0 383 0 l 144 0 q 114 30 114 0 l 114 1000 m 4 1251 q 35 1286 17 1270 q 74 1312 53 1301 q 117 1328 95 1322 q 162 1334 140 1334 q 189 1331 174 1334 q 221 1321 203 1328 q 260 1303 238 1314 q 308 1274 281 1291 q 323 1266 315 1269 q 339 1263 330 1263 q 363 1269 353 1263 q 381 1284 373 1275 l 404 1312 q 418 1321 410 1321 q 431 1315 425 1322 l 503 1253 q 513 1240 510 1245 q 508 1225 515 1234 l 487 1198 q 419 1138 460 1160 q 332 1117 378 1117 q 277 1126 305 1117 q 224 1151 249 1135 l 185 1176 q 171 1183 178 1180 q 154 1186 164 1186 q 130 1180 140 1186 q 112 1166 120 1175 l 91 1138 q 76 1130 87 1131 q 60 1135 66 1129 l -11 1196 q -17 1202 -14 1199 q -19 1212 -19 1206 q -19 1215 -19 1212 q -16 1221 -19 1217 q -9 1232 -14 1225 q 4 1251 -4 1240 "},"Χ":{"x_min":9.71875,"x_max":983.515625,"ha":932,"o":"m 11 18 q 22 39 16 28 q 36 61 28 50 l 348 527 q 190 765 268 648 q 32 1003 112 882 q 26 1013 28 1008 q 22 1024 23 1018 q 30 1029 24 1029 q 44 1032 37 1028 l 286 1032 q 326 1005 311 1032 l 496 750 l 668 1005 q 709 1032 683 1032 l 927 1032 q 940 1032 932 1032 q 954 1031 948 1032 q 966 1029 961 1031 q 970 1023 970 1027 q 963 1004 970 1014 l 643 527 l 969 41 q 980 23 976 31 q 983 10 984 15 q 970 0 983 0 l 722 0 q 700 6 710 0 q 685 25 691 13 l 496 305 l 309 25 q 294 6 304 13 q 272 0 284 0 l 36 0 l 23 0 q 13 3 18 0 q 9 11 9 6 q 11 18 9 15 "},"ă":{"x_min":71.953125,"x_max":1006.046875,"ha":1090,"o":"m 1006 51 q 1001 28 1006 39 q 988 11 997 17 q 969 1 980 4 q 951 0 959 0 l 815 0 q 791 3 800 0 q 776 14 782 7 q 767 31 771 21 q 759 53 763 41 l 739 105 q 698 65 720 86 q 649 26 676 44 q 591 -3 622 8 q 524 -16 560 -16 q 403 0 461 -16 q 295 45 345 15 q 203 116 244 74 q 133 208 162 157 q 87 317 103 259 q 71 440 71 376 q 107 619 71 536 q 203 764 142 702 q 347 860 265 825 q 524 896 430 896 q 603 883 567 896 q 669 849 640 870 q 723 802 699 828 q 765 748 747 775 l 792 832 q 804 860 799 849 q 814 876 808 871 q 826 883 819 881 q 848 885 834 885 l 951 885 q 969 882 959 885 q 988 873 980 880 q 1001 855 997 865 q 1006 833 1006 846 l 1006 51 m 321 440 q 336 354 321 394 q 376 285 350 314 q 440 239 403 256 q 522 222 477 222 q 609 239 569 222 q 678 285 649 256 q 724 354 708 314 q 741 440 741 394 q 724 525 741 484 q 678 595 708 565 q 609 644 649 626 q 522 662 569 662 q 440 644 477 662 q 376 595 403 626 q 336 525 350 565 q 321 440 321 484 m 543 981 q 467 996 502 981 q 407 1035 432 1011 q 366 1091 381 1060 q 352 1155 352 1121 q 360 1174 352 1167 q 378 1181 368 1181 l 478 1181 q 490 1176 486 1181 q 494 1165 494 1171 q 507 1136 494 1149 q 546 1124 519 1124 q 582 1137 569 1124 q 595 1165 595 1150 q 598 1176 595 1171 q 610 1181 602 1181 l 711 1181 q 729 1174 721 1181 q 737 1155 737 1167 q 722 1090 737 1121 q 681 1034 707 1058 q 619 996 655 1010 q 543 981 584 981 "},"*":{"x_min":70.140625,"x_max":614.625,"ha":683,"o":"m 138 576 q 134 584 136 579 q 133 592 133 589 q 152 622 135 610 l 263 686 q 279 690 269 690 q 292 685 285 690 q 304 672 299 681 l 342 574 l 379 672 q 405 689 385 689 q 421 686 413 689 l 531 619 q 548 588 548 611 q 546 576 546 585 l 470 491 l 583 513 q 604 505 595 513 q 614 482 614 496 l 614 354 q 605 331 614 343 q 583 320 597 320 l 470 341 l 546 256 q 549 248 547 253 q 551 238 551 244 q 535 212 551 221 l 424 149 q 407 144 419 144 q 379 159 386 144 l 342 256 l 304 159 q 294 147 301 151 q 279 144 286 144 q 259 149 268 144 l 149 214 q 132 238 132 223 q 133 248 132 244 q 138 256 134 253 l 212 341 l 101 320 q 70 354 70 320 l 70 482 q 77 505 70 496 q 101 513 85 513 l 212 491 l 138 576 "},"†":{"x_min":29.078125,"x_max":564.234375,"ha":593,"o":"m 29 450 q 59 481 29 481 l 202 481 l 202 1000 q 209 1021 202 1012 q 232 1031 217 1031 l 357 1031 q 380 1022 368 1031 q 392 1000 392 1014 l 392 481 l 533 481 q 555 473 546 481 q 564 450 564 465 l 564 324 q 555 302 564 313 q 533 291 547 291 l 392 291 l 392 -235 q 357 -266 392 -266 l 232 -266 q 202 -235 202 -266 l 202 291 l 59 291 q 29 324 29 291 l 29 450 "},"∕":{"x_min":15.28125,"x_max":759.09375,"ha":790,"o":"m 548 1000 q 564 1021 554 1012 q 593 1031 575 1031 l 724 1031 q 748 1025 738 1031 q 759 1009 759 1019 q 757 1000 759 1001 l 227 30 q 212 6 219 13 q 190 0 206 0 l 44 0 q 15 18 15 0 q 18 30 15 16 l 548 1000 "},"°":{"x_min":77,"x_max":376,"ha":452,"o":"m 226 997 q 284 985 257 997 q 332 953 312 974 q 364 905 352 933 q 376 847 376 878 q 364 788 376 816 q 331 741 352 761 q 284 709 311 720 q 226 698 257 698 q 168 709 195 698 q 120 741 140 720 q 88 788 100 761 q 77 847 77 816 q 88 905 77 878 q 120 953 99 933 q 167 985 140 974 q 226 997 195 997 m 226 910 q 181 891 199 910 q 163 847 163 873 q 181 802 163 820 q 226 784 199 784 q 270 802 252 784 q 289 847 289 820 q 284 872 289 860 q 270 891 279 883 q 250 905 261 900 q 226 910 238 910 "},"Ξ":{"x_min":71.53125,"x_max":847.984375,"ha":927,"o":"m 817 1031 q 847 1000 847 1031 l 847 817 q 816 785 847 785 l 103 785 q 71 817 71 785 l 71 1000 q 102 1031 71 1031 l 817 1031 m 102 0 q 71 30 71 0 l 71 213 q 103 246 71 246 l 816 246 q 847 213 847 246 l 847 30 q 817 0 847 0 l 102 0 m 204 597 q 213 621 204 614 q 234 629 222 629 l 684 629 q 706 621 697 629 q 715 597 715 614 l 715 434 q 706 410 715 417 q 684 403 697 403 l 234 403 q 213 410 222 403 q 204 434 204 417 l 204 597 "},"å":{"x_min":71.953125,"x_max":1006.046875,"ha":1090,"o":"m 1006 51 q 1001 28 1006 39 q 988 11 997 17 q 969 1 980 4 q 951 0 959 0 l 815 0 q 791 3 800 0 q 776 14 782 7 q 767 31 771 21 q 759 53 763 41 l 739 105 q 698 65 720 86 q 649 26 676 44 q 591 -3 622 8 q 524 -16 560 -16 q 403 0 461 -16 q 295 45 345 15 q 203 116 244 74 q 133 208 162 157 q 87 317 103 259 q 71 440 71 376 q 107 619 71 536 q 203 764 142 702 q 347 860 265 825 q 524 896 430 896 q 603 883 567 896 q 669 849 640 870 q 723 802 699 828 q 765 748 747 775 l 792 832 q 804 860 799 849 q 814 876 808 871 q 826 883 819 881 q 848 885 834 885 l 951 885 q 969 882 959 885 q 988 873 980 880 q 1001 855 997 865 q 1006 833 1006 846 l 1006 51 m 321 440 q 336 354 321 394 q 376 285 350 314 q 440 239 403 256 q 522 222 477 222 q 609 239 569 222 q 678 285 649 256 q 724 354 708 314 q 741 440 741 394 q 724 525 741 484 q 678 595 708 565 q 609 644 649 626 q 522 662 569 662 q 440 644 477 662 q 376 595 403 626 q 336 525 350 565 q 321 440 321 484 m 522 1257 q 579 1245 552 1257 q 626 1213 605 1234 q 657 1166 646 1193 q 669 1110 669 1140 q 657 1053 669 1079 q 626 1007 646 1026 q 579 976 605 987 q 522 965 552 965 q 466 976 492 965 q 419 1007 439 987 q 389 1053 400 1026 q 378 1110 378 1079 q 389 1166 378 1140 q 419 1213 400 1193 q 466 1245 439 1234 q 522 1257 492 1257 m 523 1153 q 494 1141 505 1153 q 484 1111 484 1129 q 494 1082 484 1093 q 523 1071 505 1071 q 553 1082 541 1071 q 565 1111 565 1093 q 553 1141 565 1129 q 523 1153 541 1153 "},"Ϋ":{"x_min":16.484375,"x_max":961.921875,"ha":979,"o":"m 489 650 l 657 1009 q 664 1021 661 1017 q 670 1027 667 1025 q 676 1029 673 1028 q 683 1031 679 1029 l 950 1031 q 958 1027 955 1031 q 961 1020 961 1024 q 952 1003 961 1012 l 623 420 l 623 32 q 591 0 623 0 l 383 0 q 361 8 369 0 q 354 32 354 17 l 354 422 l 25 1003 q 16 1020 16 1012 q 19 1027 16 1024 q 26 1031 22 1031 l 294 1031 q 301 1029 299 1029 q 307 1027 304 1028 q 313 1021 310 1025 q 320 1009 315 1017 l 489 650 m 231 1520 q 260 1550 231 1550 l 396 1550 q 415 1542 406 1550 q 425 1520 425 1534 l 425 1389 q 417 1366 425 1377 q 396 1356 409 1356 l 260 1356 q 231 1389 231 1356 l 231 1520 m 534 1520 q 564 1550 534 1550 l 698 1550 q 728 1520 728 1550 l 728 1389 q 720 1366 728 1377 q 698 1356 712 1356 l 564 1356 q 534 1389 534 1356 l 534 1520 "},"0":{"x_min":71,"x_max":1132,"ha":1200,"o":"m 334 515 q 354 407 334 457 q 410 319 374 357 q 495 260 447 282 q 602 239 544 239 q 708 260 659 239 q 794 319 758 282 q 851 407 830 357 q 872 515 872 457 q 851 624 872 573 q 794 713 830 675 q 708 773 758 751 q 602 795 659 795 q 495 773 544 795 q 410 713 447 751 q 354 624 374 675 q 334 515 334 573 m 71 514 q 89 655 71 587 q 143 782 108 723 q 226 890 177 841 q 333 973 274 939 q 460 1026 392 1007 q 601 1046 527 1046 q 742 1026 674 1046 q 869 973 810 1007 q 976 890 928 939 q 1059 782 1025 841 q 1112 655 1093 723 q 1132 514 1132 587 q 1112 373 1132 441 q 1059 247 1093 305 q 976 140 1025 188 q 869 57 928 91 q 742 3 810 22 q 601 -15 674 -15 q 460 3 527 -15 q 333 57 392 22 q 226 140 274 91 q 143 247 177 188 q 89 373 108 305 q 71 514 71 441 "},"ō":{"x_min":73.25,"x_max":985.140625,"ha":1055,"o":"m 73 440 q 89 563 73 504 q 135 672 105 622 q 206 764 164 723 q 298 834 247 805 q 407 880 348 864 q 530 896 466 896 q 707 860 624 896 q 852 764 790 825 q 949 619 913 702 q 985 440 985 536 q 968 317 985 376 q 922 208 952 259 q 852 116 893 157 q 760 45 810 74 q 651 0 709 15 q 530 -16 593 -16 q 407 0 466 -16 q 298 45 348 15 q 206 116 247 74 q 135 208 164 157 q 89 317 105 259 q 73 440 73 376 m 326 440 q 340 354 326 394 q 381 285 355 314 q 444 239 407 256 q 528 222 481 222 q 609 239 573 222 q 671 285 646 256 q 710 354 696 314 q 724 440 724 394 q 710 525 724 484 q 671 595 696 565 q 609 644 646 626 q 528 662 573 662 q 444 644 481 662 q 381 595 407 626 q 340 525 355 565 q 326 440 326 484 m 232 1156 q 256 1181 232 1181 l 797 1181 q 814 1175 807 1181 q 821 1156 821 1169 l 821 1049 q 815 1031 821 1041 q 797 1022 809 1022 l 256 1022 q 232 1049 232 1022 l 232 1156 "},"”":{"x_min":71,"x_max":617,"ha":688,"o":"m 71 1002 q 78 1024 71 1016 q 101 1033 86 1033 l 270 1033 q 291 1024 281 1033 q 302 1002 302 1016 l 302 852 q 300 793 302 822 q 265 693 295 739 q 181 617 236 648 q 176 614 181 616 q 166 611 172 613 q 156 609 161 610 q 150 608 152 608 q 141 610 145 608 q 133 618 138 613 l 107 638 q 93 652 95 646 q 91 664 91 658 q 100 681 91 671 q 121 704 110 691 q 142 734 133 717 q 152 772 152 751 l 152 803 q 139 818 152 815 l 99 818 q 78 826 85 818 q 71 848 71 834 l 71 1002 m 386 1002 q 393 1024 386 1016 q 416 1033 401 1033 l 585 1033 q 606 1024 596 1033 q 617 1002 617 1016 l 617 852 q 615 793 617 822 q 580 693 610 739 q 496 617 551 648 q 491 614 496 616 q 481 611 487 613 q 471 609 476 610 q 465 608 467 608 q 456 610 460 608 q 448 618 453 613 l 422 638 q 408 652 410 646 q 406 664 406 658 q 415 681 406 671 q 436 704 425 691 q 457 734 448 717 q 467 772 467 751 l 467 803 q 454 818 467 815 l 414 818 q 393 826 400 818 q 386 848 386 834 l 386 1002 "},"΄":{"x_min":78.9375,"x_max":283.375,"ha":359,"o":"m 134 773 q 111 781 120 774 q 102 803 102 788 l 79 1008 q 84 1026 77 1019 q 103 1033 91 1033 l 256 1033 q 277 1025 269 1033 q 282 1003 285 1017 l 261 803 q 251 782 260 791 q 231 773 243 773 l 134 773 l 134 773 "},"ŵ":{"x_min":19.234375,"x_max":1312.28125,"ha":1338,"o":"m 27 813 q 22 861 13 841 q 63 882 31 882 l 241 882 q 273 872 259 882 q 292 844 286 862 q 318 762 304 807 q 348 669 332 716 q 379 575 363 622 q 407 489 394 529 q 430 421 420 450 q 445 379 440 392 l 592 844 q 612 874 601 866 q 645 882 624 882 l 809 882 q 840 877 829 882 q 854 863 850 872 q 855 844 857 855 q 848 822 853 834 l 772 635 q 791 595 777 623 q 822 531 804 567 q 858 456 840 495 q 889 383 877 417 l 1059 844 q 1078 874 1068 866 q 1106 882 1087 882 l 1259 882 q 1305 869 1293 882 q 1307 822 1318 857 l 981 29 q 962 8 975 17 q 925 0 949 0 l 852 0 q 812 8 825 0 q 792 31 800 17 l 663 346 l 536 29 q 518 8 528 17 q 486 0 507 0 l 404 0 q 364 7 376 0 q 347 29 353 15 l 27 813 m 658 1225 q 665 1229 663 1228 q 673 1231 668 1231 q 687 1225 679 1231 l 865 1047 q 871 1031 871 1043 q 865 1018 871 1024 l 804 955 q 785 947 796 947 q 769 954 776 947 l 673 1052 l 574 953 q 558 947 567 945 q 544 955 549 949 l 481 1015 q 477 1023 478 1019 q 475 1031 476 1027 q 477 1040 475 1036 q 481 1046 478 1043 l 658 1225 "},"Ķ":{"x_min":111,"x_max":1035.609375,"ha":1045,"o":"m 111 1000 q 118 1021 111 1012 q 141 1031 126 1031 l 346 1031 q 368 1022 357 1031 q 380 1000 380 1014 l 380 622 q 528 813 455 719 q 676 1005 601 908 q 696 1024 684 1017 q 720 1032 708 1032 l 984 1032 q 1000 1022 1000 1032 q 993 1005 1000 1015 l 666 573 l 1027 29 q 1035 10 1035 17 q 1020 0 1035 0 l 757 0 q 734 6 746 0 q 715 25 723 13 q 648 121 678 75 q 589 212 618 167 q 532 304 561 258 q 468 402 502 351 l 380 301 l 380 30 q 346 0 380 0 l 142 0 q 111 30 111 0 l 111 1000 m 394 -176 q 401 -156 394 -164 q 421 -149 408 -149 l 585 -149 q 605 -156 596 -149 q 615 -176 615 -163 l 615 -354 q 584 -464 615 -412 q 497 -549 554 -515 q 488 -550 496 -550 q 475 -547 479 -550 q 466 -542 470 -545 l 423 -505 q 414 -495 416 -500 q 411 -485 411 -490 q 420 -469 411 -476 q 438 -451 428 -461 q 457 -428 449 -441 q 466 -395 466 -414 l 466 -368 q 454 -355 466 -357 l 419 -355 q 394 -327 394 -354 l 394 -176 "},"ö":{"x_min":73.25,"x_max":985.140625,"ha":1055,"o":"m 73 440 q 89 563 73 504 q 135 672 105 622 q 206 764 164 723 q 298 834 247 805 q 407 880 348 864 q 530 896 466 896 q 707 860 624 896 q 852 764 790 825 q 949 619 913 702 q 985 440 985 536 q 968 317 985 376 q 922 208 952 259 q 852 116 893 157 q 760 45 810 74 q 651 0 709 15 q 530 -16 593 -16 q 407 0 466 -16 q 298 45 348 15 q 206 116 247 74 q 135 208 164 157 q 89 317 105 259 q 73 440 73 376 m 326 440 q 340 354 326 394 q 381 285 355 314 q 444 239 407 256 q 528 222 481 222 q 609 239 573 222 q 671 285 646 256 q 710 354 696 314 q 724 440 724 394 q 710 525 724 484 q 671 595 696 565 q 609 644 646 626 q 528 662 573 662 q 444 644 481 662 q 381 595 407 626 q 340 525 355 565 q 326 440 326 484 m 279 1159 q 308 1189 279 1189 l 444 1189 q 463 1181 454 1189 q 473 1159 473 1173 l 473 1028 q 465 1005 473 1016 q 444 995 457 995 l 308 995 q 279 1028 279 995 l 279 1159 m 582 1159 q 612 1189 582 1189 l 746 1189 q 776 1159 776 1189 l 776 1028 q 768 1005 776 1016 q 746 995 760 995 l 612 995 q 582 1028 582 995 l 582 1159 "},"Β":{"x_min":111,"x_max":947,"ha":980,"o":"m 111 999 q 118 1022 111 1013 q 141 1031 126 1031 l 602 1031 q 718 1007 664 1031 q 813 943 772 984 q 877 848 853 903 q 901 731 901 794 q 884 634 901 679 q 838 554 868 590 q 917 445 888 508 q 947 311 947 382 q 922 191 947 248 q 857 92 898 135 q 760 24 815 49 q 644 0 705 0 l 141 0 q 119 7 127 0 q 111 29 111 14 l 111 999 m 671 322 q 662 363 671 342 q 640 400 654 384 q 606 427 626 417 q 563 438 586 438 l 380 438 l 380 206 l 563 206 q 606 215 586 206 q 640 241 625 225 q 662 278 654 258 q 671 322 671 299 m 634 725 q 626 764 634 746 q 604 796 618 782 q 571 818 590 810 q 528 826 551 826 l 380 826 l 380 625 l 526 625 q 570 632 550 625 q 604 653 590 639 q 626 684 618 666 q 634 725 634 703 "},"ǽ":{"x_min":71.953125,"x_max":1720.59375,"ha":1779,"o":"m 1006 51 q 1001 28 1006 39 q 988 11 997 17 q 969 1 980 4 q 951 0 959 0 l 815 0 q 791 3 800 0 q 776 14 782 7 q 767 31 771 21 q 759 53 763 41 l 739 105 q 698 65 720 86 q 649 26 676 44 q 591 -3 622 8 q 524 -16 560 -16 q 403 0 461 -16 q 295 45 345 15 q 203 116 244 74 q 133 208 162 157 q 87 317 103 259 q 71 440 71 376 q 107 619 71 536 q 203 764 142 702 q 347 860 265 825 q 524 896 430 896 q 603 883 567 896 q 669 849 640 870 q 723 802 699 828 q 765 748 747 775 l 792 832 q 804 860 799 849 q 814 876 808 871 q 826 883 819 881 q 848 885 834 885 l 951 885 q 969 882 959 885 q 988 873 980 880 q 1001 855 997 865 q 1006 833 1006 846 l 1006 51 m 321 440 q 336 354 321 394 q 376 285 350 314 q 440 239 403 256 q 522 222 477 222 q 609 239 569 222 q 678 285 649 256 q 724 354 708 314 q 741 440 741 394 q 724 525 741 484 q 678 595 708 565 q 609 644 649 626 q 522 662 569 662 q 440 644 477 662 q 376 595 403 626 q 336 525 350 565 q 321 440 321 484 m 1621 105 q 1483 17 1560 49 q 1321 -13 1407 -13 q 1142 20 1226 -13 q 993 117 1057 55 q 892 261 929 178 q 854 443 854 345 q 869 561 854 504 q 911 668 884 618 q 978 760 939 718 q 1066 832 1017 802 q 1171 879 1115 862 q 1292 895 1228 895 q 1403 880 1349 895 q 1505 837 1458 865 q 1592 770 1553 809 q 1660 685 1632 732 q 1704 587 1689 639 q 1720 479 1720 534 q 1719 420 1720 443 q 1708 383 1718 397 q 1676 364 1699 370 q 1610 359 1653 359 l 1110 359 q 1138 285 1117 315 q 1187 237 1159 255 q 1246 212 1215 220 q 1305 204 1277 204 q 1356 210 1330 204 q 1407 223 1383 215 q 1452 244 1432 232 q 1485 268 1473 255 q 1504 281 1496 277 q 1521 286 1512 286 q 1540 279 1531 286 q 1561 261 1549 273 l 1635 178 q 1644 162 1642 169 q 1646 147 1646 154 q 1639 123 1646 133 q 1621 105 1631 113 m 1287 684 q 1234 673 1260 684 q 1187 644 1209 662 q 1147 603 1165 626 q 1118 556 1129 580 l 1473 556 q 1441 606 1458 584 q 1402 647 1424 629 q 1352 674 1380 664 q 1287 684 1324 684 m 863 1159 q 878 1182 867 1175 q 900 1189 888 1189 l 1079 1189 q 1095 1184 1090 1189 q 1102 1174 1100 1180 q 1102 1160 1104 1168 q 1097 1144 1101 1152 l 1029 995 q 1013 972 1021 979 q 992 966 1005 966 l 840 966 q 826 971 829 966 q 822 984 822 977 q 824 1001 822 992 q 827 1016 826 1010 l 863 1159 "},"Ļ":{"x_min":87,"x_max":768.53125,"ha":819,"o":"m 87 1001 q 95 1022 87 1013 q 118 1032 103 1032 l 324 1032 q 345 1023 335 1032 q 356 1001 355 1015 l 356 246 l 737 246 q 759 237 750 246 q 768 214 768 229 l 768 31 q 760 10 768 20 q 737 0 752 0 l 117 0 q 87 30 87 0 l 87 1001 m 335 -176 q 342 -156 335 -164 q 362 -149 349 -149 l 526 -149 q 546 -156 537 -149 q 556 -176 556 -163 l 556 -354 q 525 -464 556 -412 q 438 -549 495 -515 q 429 -550 437 -550 q 416 -547 420 -550 q 407 -542 411 -545 l 364 -505 q 355 -495 357 -500 q 352 -485 352 -490 q 361 -469 352 -476 q 379 -451 369 -461 q 398 -428 390 -441 q 407 -395 407 -414 l 407 -368 q 395 -355 407 -357 l 360 -355 q 335 -327 335 -354 l 335 -176 "},"Õ":{"x_min":64,"x_max":1127,"ha":1185,"o":"m 333 515 q 352 407 333 457 q 406 320 371 357 q 489 262 441 283 q 595 241 537 241 q 700 262 652 241 q 784 320 749 283 q 838 407 819 357 q 858 515 858 457 q 838 622 858 572 q 784 710 819 672 q 700 769 749 747 q 595 791 652 791 q 489 769 537 791 q 406 710 441 747 q 352 622 371 672 q 333 515 333 572 m 64 514 q 82 656 64 588 q 136 783 101 724 q 219 891 171 842 q 326 974 267 940 q 453 1027 385 1008 q 595 1047 521 1047 q 736 1027 668 1047 q 863 974 804 1008 q 971 891 922 940 q 1054 783 1019 842 q 1107 656 1088 724 q 1127 514 1127 588 q 1107 373 1127 441 q 1054 247 1088 305 q 971 140 1019 188 q 863 57 922 91 q 736 3 804 22 q 595 -15 668 -15 q 453 3 521 -15 q 326 57 385 22 q 219 140 267 91 q 136 247 171 188 q 82 373 101 305 q 64 514 64 441 m 360 1254 q 391 1289 373 1273 q 430 1315 409 1304 q 473 1331 451 1325 q 518 1337 496 1337 q 545 1334 530 1337 q 577 1324 559 1331 q 616 1306 594 1317 q 664 1277 637 1294 q 679 1269 671 1272 q 695 1266 686 1266 q 719 1272 709 1266 q 737 1287 729 1278 l 760 1315 q 774 1324 766 1324 q 787 1318 781 1325 l 859 1256 q 869 1243 866 1248 q 864 1228 871 1237 l 843 1201 q 775 1141 816 1163 q 688 1120 734 1120 q 633 1129 661 1120 q 580 1154 605 1138 l 541 1179 q 527 1186 534 1183 q 510 1189 520 1189 q 486 1183 496 1189 q 468 1169 476 1178 l 447 1141 q 432 1133 443 1134 q 416 1138 422 1132 l 344 1199 q 338 1205 341 1202 q 336 1215 336 1209 q 336 1218 336 1215 q 339 1224 336 1220 q 346 1235 341 1228 q 360 1254 351 1243 "},"ć":{"x_min":71.25,"x_max":824.09375,"ha":872,"o":"m 662 271 q 681 280 672 278 q 694 281 690 281 q 716 276 706 281 q 736 256 726 272 l 814 138 q 820 126 817 133 q 824 115 824 119 q 814 89 824 99 q 792 71 803 79 q 667 7 735 31 q 524 -16 599 -16 q 403 0 461 -16 q 295 45 345 15 q 203 116 245 74 q 133 208 162 157 q 87 317 103 259 q 71 440 71 376 q 87 563 71 504 q 133 672 103 622 q 203 764 162 723 q 295 834 245 805 q 403 880 345 864 q 524 896 461 896 q 664 875 599 896 q 784 816 728 855 l 782 818 q 806 797 797 809 q 815 766 815 784 q 807 741 815 754 l 745 636 q 698 602 726 602 q 683 605 692 602 q 662 616 674 608 q 597 649 632 636 q 522 662 562 662 q 442 644 478 662 q 379 595 405 626 q 338 525 353 565 q 324 440 324 484 q 338 354 324 394 q 379 285 353 314 q 442 239 405 256 q 522 222 478 222 q 596 235 562 222 q 662 271 631 249 m 494 1159 q 509 1182 498 1175 q 531 1189 519 1189 l 710 1189 q 726 1184 721 1189 q 733 1174 731 1180 q 733 1160 735 1168 q 728 1144 732 1152 l 660 995 q 644 972 652 979 q 623 966 636 966 l 471 966 q 457 971 460 966 q 453 984 453 977 q 455 1001 453 992 q 458 1016 457 1010 l 494 1159 "},"þ":{"x_min":83,"x_max":840,"ha":1074,"o":"m 83 1000 q 90 1021 83 1012 q 113 1031 98 1031 l 283 1031 q 305 1022 295 1031 q 316 1000 316 1014 l 316 679 l 518 679 q 607 665 565 679 q 685 629 649 652 q 749 574 721 606 q 798 505 778 542 q 829 426 818 467 q 840 341 840 384 q 816 218 840 278 q 750 111 792 158 q 650 36 708 65 q 522 7 592 7 l 316 7 l 316 -238 q 284 -269 316 -269 l 113 -269 q 83 -238 83 -269 l 83 1000 m 617 342 q 607 395 617 369 q 579 442 597 421 q 536 474 561 462 q 481 487 511 487 l 316 487 l 316 198 q 383 199 350 199 q 450 199 417 199 l 482 199 q 536 210 511 199 q 579 242 561 222 q 606 288 596 262 q 617 342 617 314 "},"]":{"x_min":111.40625,"x_max":473,"ha":582,"o":"m 473 -207 q 442 -238 473 -238 l 141 -238 q 111 -207 111 -235 l 111 -41 q 120 -18 111 -27 q 141 -10 128 -10 l 226 -10 l 226 912 l 141 912 q 120 920 128 912 q 111 943 111 929 l 111 1109 q 141 1140 111 1137 l 442 1140 q 473 1109 473 1140 l 473 -207 "},"ẁ":{"x_min":19.234375,"x_max":1312.28125,"ha":1338,"o":"m 27 813 q 22 861 13 841 q 63 882 31 882 l 241 882 q 273 872 259 882 q 292 844 286 862 q 318 762 304 807 q 348 669 332 716 q 379 575 363 622 q 407 489 394 529 q 430 421 420 450 q 445 379 440 392 l 592 844 q 612 874 601 866 q 645 882 624 882 l 809 882 q 840 877 829 882 q 854 863 850 872 q 855 844 857 855 q 848 822 853 834 l 772 635 q 791 595 777 623 q 822 531 804 567 q 858 456 840 495 q 889 383 877 417 l 1059 844 q 1078 874 1068 866 q 1106 882 1087 882 l 1259 882 q 1305 869 1293 882 q 1307 822 1318 857 l 981 29 q 962 8 975 17 q 925 0 949 0 l 852 0 q 812 8 825 0 q 792 31 800 17 l 663 346 l 536 29 q 518 8 528 17 q 486 0 507 0 l 404 0 q 364 7 376 0 q 347 29 353 15 l 27 813 m 768 1016 q 772 1001 770 1010 q 774 984 774 992 q 770 971 774 977 q 756 966 766 966 l 604 966 q 582 972 590 966 q 566 995 574 979 l 498 1144 q 493 1160 495 1152 q 494 1174 492 1168 q 500 1184 495 1180 q 516 1189 506 1189 l 695 1189 q 718 1182 707 1189 q 732 1159 729 1175 l 768 1016 "},"ĭ":{"x_min":55.34375,"x_max":440.78125,"ha":495,"o":"m 120 827 q 132 866 120 850 q 171 882 145 882 l 330 882 q 348 878 339 882 q 366 867 358 874 q 381 850 375 859 q 387 827 387 840 l 387 53 q 372 13 387 27 q 330 0 357 0 l 171 0 q 120 53 120 0 l 120 827 m 246 981 q 170 996 205 981 q 110 1035 135 1011 q 69 1091 84 1060 q 55 1155 55 1121 q 63 1174 55 1167 q 81 1181 71 1181 l 181 1181 q 193 1176 189 1181 q 197 1165 197 1171 q 210 1136 197 1149 q 249 1124 222 1124 q 285 1137 272 1124 q 298 1165 298 1150 q 301 1176 298 1171 q 313 1181 305 1181 l 414 1181 q 432 1174 424 1181 q 440 1155 440 1167 q 425 1090 440 1121 q 384 1034 410 1058 q 322 996 358 1010 q 246 981 287 981 "},"8":{"x_min":60,"x_max":799,"ha":862,"o":"m 359 748 q 380 696 359 717 q 432 675 401 675 q 461 680 447 675 q 485 696 475 686 q 501 719 495 706 q 507 748 507 732 q 501 776 507 763 q 485 800 495 790 q 461 816 475 810 q 432 822 447 822 q 403 816 416 822 q 380 800 390 810 q 364 776 370 790 q 359 748 359 763 m 313 341 q 321 294 313 316 q 346 255 330 272 q 383 229 362 238 q 431 220 405 220 q 477 229 456 220 q 514 255 498 238 q 537 294 529 272 q 546 342 546 316 q 538 390 546 367 q 515 429 530 412 q 479 456 500 446 q 431 467 458 467 q 382 456 404 467 q 345 429 360 446 q 321 389 329 412 q 313 341 313 366 m 60 338 q 69 415 60 378 q 96 483 79 451 q 137 542 113 515 q 190 592 161 570 q 152 670 167 626 q 138 757 138 713 q 161 867 138 816 q 224 958 184 919 q 317 1021 264 998 q 430 1044 370 1044 q 543 1021 489 1044 q 637 958 597 998 q 702 867 678 919 q 726 757 726 816 q 710 669 726 713 q 669 592 695 625 q 764 480 730 544 q 799 335 799 415 q 772 197 799 261 q 696 87 745 134 q 580 13 648 40 q 430 -13 512 -13 q 280 13 348 -13 q 163 86 212 39 q 87 197 114 133 q 60 338 60 262 "},"Ζ":{"x_min":75,"x_max":947.296875,"ha":1008,"o":"m 75 1000 q 83 1022 75 1014 q 107 1031 92 1031 l 913 1031 q 936 1023 927 1031 q 945 1000 945 1015 l 945 860 q 945 849 945 854 q 941 837 945 844 l 438 238 l 916 238 q 938 230 929 238 q 947 206 947 222 l 947 34 q 938 11 947 22 q 916 0 929 0 l 109 0 q 86 9 95 0 q 77 34 77 18 l 77 183 q 81 201 77 194 l 583 793 l 107 793 q 83 800 92 793 q 75 826 75 808 l 75 1000 "},"R":{"x_min":113,"x_max":961.140625,"ha":977,"o":"m 113 999 q 120 1022 113 1013 q 143 1031 128 1031 l 592 1031 q 726 1004 663 1031 q 835 931 788 977 q 908 824 881 885 q 935 693 935 763 q 922 603 935 646 q 886 523 909 560 q 831 456 863 486 q 762 404 800 426 l 941 68 q 953 45 945 59 q 961 22 961 32 q 953 5 961 11 q 934 0 946 0 l 696 0 q 675 6 684 0 q 663 25 665 13 l 494 343 l 382 343 l 382 29 q 350 0 382 0 l 143 0 q 121 7 129 0 q 113 29 113 14 l 113 999 m 657 691 q 649 732 657 711 q 627 770 641 753 q 594 799 613 787 q 551 815 575 811 q 514 817 532 816 q 477 818 497 818 l 382 818 l 382 564 l 509 564 q 532 564 522 564 q 553 567 541 565 q 597 581 577 569 q 629 609 616 592 q 650 647 643 626 q 657 691 657 668 "},"ť":{"x_min":31.953125,"x_max":781,"ha":769,"o":"m 136 1019 q 151 1051 136 1041 q 191 1072 165 1062 l 349 1127 q 355 1127 352 1127 q 361 1127 359 1127 q 396 1112 387 1127 q 404 1073 404 1098 l 404 854 l 520 854 q 556 841 542 854 q 570 802 570 828 l 570 668 q 556 625 570 638 q 520 611 542 611 l 404 611 l 404 53 q 389 13 404 27 q 347 0 374 0 l 190 0 q 136 53 136 0 l 136 611 l 85 611 q 31 668 31 611 l 31 802 q 85 854 31 854 l 136 854 l 136 1019 m 560 1159 q 567 1179 560 1171 q 587 1187 574 1187 l 751 1187 q 771 1179 762 1187 q 781 1159 781 1172 l 781 982 q 750 871 781 923 q 663 787 720 820 q 654 786 662 786 q 641 788 645 786 q 632 794 636 790 l 589 830 q 580 840 582 835 q 577 850 577 845 q 586 866 577 859 q 604 884 594 874 q 623 907 615 894 q 632 940 632 921 l 632 967 q 620 981 632 978 l 585 981 q 560 1008 560 981 l 560 1159 "},"Ľ":{"x_min":87,"x_max":776,"ha":819,"o":"m 87 1001 q 95 1022 87 1013 q 118 1032 103 1032 l 324 1032 q 345 1023 335 1032 q 356 1001 355 1015 l 356 246 l 737 246 q 759 237 750 246 q 768 214 768 229 l 768 31 q 760 10 768 20 q 737 0 752 0 l 117 0 q 87 30 87 0 l 87 1001 m 529 1002 q 536 1024 529 1016 q 559 1033 544 1033 l 743 1033 q 765 1024 755 1033 q 776 1002 776 1016 l 776 803 q 741 679 776 737 q 644 586 707 621 q 635 584 642 584 q 619 586 625 584 q 610 594 613 589 l 562 633 q 552 644 554 639 q 549 656 549 650 q 558 674 549 665 q 579 694 568 683 q 600 721 591 706 q 610 756 610 736 l 610 787 q 597 802 610 800 l 557 802 q 529 832 529 803 l 529 1002 "},"Ż":{"x_min":75,"x_max":947.296875,"ha":995,"o":"m 75 1000 q 83 1022 75 1014 q 107 1031 92 1031 l 913 1031 q 936 1023 927 1031 q 945 1000 945 1015 l 945 860 q 945 849 945 854 q 941 837 945 844 l 438 238 l 916 238 q 938 230 929 238 q 947 206 947 222 l 947 34 q 938 11 947 22 q 916 0 929 0 l 109 0 q 86 9 95 0 q 77 34 77 18 l 77 183 q 81 201 77 194 l 583 793 l 107 793 q 83 800 92 793 q 75 826 75 808 l 75 1000 m 416 1316 q 423 1338 416 1330 q 446 1347 431 1347 l 630 1347 q 651 1338 641 1347 q 662 1316 662 1330 l 662 1148 q 654 1125 662 1135 q 630 1116 646 1116 l 446 1116 q 416 1148 416 1116 l 416 1316 "},"o":{"x_min":56.25,"x_max":968.140625,"ha":1023,"o":"m 56 440 q 72 563 56 504 q 118 672 88 622 q 189 764 147 723 q 281 834 230 805 q 390 880 331 864 q 513 896 449 896 q 690 860 607 896 q 835 764 773 825 q 932 619 896 702 q 968 440 968 536 q 951 317 968 376 q 905 208 935 259 q 835 116 876 157 q 743 45 793 74 q 634 0 692 15 q 513 -16 576 -16 q 390 0 449 -16 q 281 45 331 15 q 189 116 230 74 q 118 208 147 157 q 72 317 88 259 q 56 440 56 376 m 309 440 q 323 354 309 394 q 364 285 338 314 q 427 239 390 256 q 511 222 464 222 q 592 239 556 222 q 654 285 629 256 q 693 354 679 314 q 707 440 707 394 q 693 525 707 484 q 654 595 679 565 q 592 644 629 626 q 511 662 556 662 q 427 644 464 662 q 364 595 390 626 q 323 525 338 565 q 309 440 309 484 "},"5":{"x_min":50.703125,"x_max":767,"ha":840,"o":"m 50 288 q 72 307 51 305 l 240 348 q 247 348 242 348 q 258 345 255 348 q 266 336 261 341 q 278 297 266 318 q 309 257 291 276 q 350 226 327 239 q 396 214 373 214 q 443 220 420 214 q 484 242 466 227 q 513 281 502 257 q 525 339 525 305 q 513 392 525 367 q 482 435 502 416 q 436 463 462 453 q 381 474 411 474 q 364 472 372 474 q 350 469 356 471 q 297 461 322 465 q 241 459 272 456 l 120 459 q 92 466 102 459 q 80 496 81 474 q 105 747 93 623 q 129 997 118 871 q 163 1033 129 1033 l 625 1033 q 628 1032 627 1033 q 631 1032 629 1032 l 687 1032 q 720 997 720 1032 q 720 915 720 955 q 720 832 720 874 q 711 808 720 818 q 685 798 702 798 l 343 798 l 333 685 q 374 690 352 688 q 415 692 395 692 q 559 662 495 692 q 670 584 624 633 q 742 474 717 536 q 767 344 767 411 q 736 202 767 268 q 655 88 705 137 q 538 12 604 40 q 399 -14 471 -14 l 399 -14 q 278 7 334 -14 q 178 67 222 29 q 102 154 134 104 q 55 261 71 204 q 52 275 53 268 q 50 288 50 282 "},"ħ":{"x_min":83.34375,"x_max":892.4375,"ha":976,"o":"m 350 789 q 381 828 363 809 q 426 862 400 847 q 483 886 451 877 q 556 896 516 896 q 698 865 636 896 q 803 782 760 835 q 869 659 847 729 q 892 509 892 588 l 892 54 q 880 14 892 27 q 844 0 869 0 l 684 0 q 643 10 654 0 q 632 49 632 20 l 632 509 q 620 564 632 538 q 589 609 609 590 q 544 639 570 628 q 488 650 518 650 q 439 639 463 650 q 396 611 416 629 q 364 567 377 593 q 350 510 352 541 l 350 52 q 345 28 350 40 q 331 10 341 16 q 314 2 322 4 q 296 0 306 0 l 139 0 q 96 15 109 0 q 83 54 83 29 l 83 619 l 83 624 l 83 830 l 83 834 l 83 1092 q 96 1130 83 1115 q 139 1144 109 1144 l 296 1144 q 331 1133 312 1144 q 345 1115 341 1127 q 350 1093 350 1103 l 350 789 m 193 1387 q 217 1412 193 1412 l 758 1412 q 775 1406 768 1412 q 782 1387 782 1400 l 782 1280 q 776 1262 782 1272 q 758 1253 770 1253 l 217 1253 q 193 1280 193 1253 l 193 1387 "},"õ":{"x_min":73.25,"x_max":985.140625,"ha":1055,"o":"m 73 440 q 89 563 73 504 q 135 672 105 622 q 206 764 164 723 q 298 834 247 805 q 407 880 348 864 q 530 896 466 896 q 707 860 624 896 q 852 764 790 825 q 949 619 913 702 q 985 440 985 536 q 968 317 985 376 q 922 208 952 259 q 852 116 893 157 q 760 45 810 74 q 651 0 709 15 q 530 -16 593 -16 q 407 0 466 -16 q 298 45 348 15 q 206 116 247 74 q 135 208 164 157 q 89 317 105 259 q 73 440 73 376 m 326 440 q 340 354 326 394 q 381 285 355 314 q 444 239 407 256 q 528 222 481 222 q 609 239 573 222 q 671 285 646 256 q 710 354 696 314 q 724 440 724 394 q 710 525 724 484 q 671 595 696 565 q 609 644 646 626 q 528 662 573 662 q 444 644 481 662 q 381 595 407 626 q 340 525 355 565 q 326 440 326 484 m 282 1105 q 313 1140 295 1124 q 352 1166 331 1155 q 395 1182 373 1176 q 440 1188 418 1188 q 467 1185 452 1188 q 499 1175 481 1182 q 538 1157 516 1168 q 586 1128 559 1145 q 601 1120 593 1123 q 617 1117 608 1117 q 641 1123 631 1117 q 659 1138 651 1129 l 682 1166 q 696 1175 688 1175 q 709 1169 703 1176 l 781 1107 q 791 1094 788 1099 q 786 1079 793 1088 l 765 1052 q 697 992 738 1014 q 610 971 656 971 q 555 980 583 971 q 502 1005 527 989 l 463 1030 q 449 1037 456 1034 q 432 1040 442 1040 q 408 1034 418 1040 q 390 1020 398 1029 l 369 992 q 354 984 365 985 q 338 989 344 983 l 266 1050 q 260 1056 263 1053 q 258 1066 258 1060 q 258 1069 258 1066 q 261 1075 258 1071 q 268 1086 263 1079 q 282 1105 273 1094 "},",":{"x_min":94,"x_max":341,"ha":424,"o":"m 94 200 q 101 222 94 214 q 124 231 109 231 l 308 231 q 330 222 320 231 q 341 200 341 214 l 341 1 q 306 -122 341 -64 q 209 -216 272 -180 q 200 -218 207 -218 q 184 -215 190 -218 q 175 -208 178 -213 l 127 -168 q 117 -157 119 -162 q 114 -145 114 -151 q 123 -127 114 -136 q 144 -107 133 -118 q 165 -80 156 -95 q 175 -45 175 -65 l 175 -14 q 162 0 175 -1 l 122 0 q 94 30 94 1 l 94 200 "},"d":{"x_min":55.5625,"x_max":971.609375,"ha":1073,"o":"m 704 107 q 663 67 686 88 q 613 27 641 45 q 555 -3 586 8 q 488 -16 524 -16 q 314 19 393 -16 q 177 116 234 54 q 87 261 120 177 q 55 440 55 344 q 87 619 55 536 q 177 764 120 702 q 314 860 234 825 q 488 896 393 896 q 558 884 526 896 q 615 856 589 873 q 663 817 641 839 q 704 774 685 795 l 704 1091 q 718 1129 704 1114 q 759 1144 732 1144 l 915 1144 q 934 1140 924 1144 q 952 1130 944 1137 q 966 1113 961 1123 q 971 1091 971 1103 l 971 53 q 915 0 971 0 l 779 0 q 757 3 765 0 q 744 13 750 6 q 735 30 739 20 q 725 53 731 40 l 704 107 m 305 440 q 319 354 305 394 q 360 285 334 314 q 423 239 386 256 q 506 222 461 222 q 589 237 550 222 q 658 282 629 253 q 705 348 687 310 q 725 430 722 386 l 725 440 q 708 525 725 484 q 662 595 691 565 q 592 644 632 626 q 506 662 552 662 q 423 644 461 662 q 360 595 386 626 q 319 525 334 565 q 305 440 305 484 "},"\"":{"x_min":66,"x_max":460,"ha":528,"o":"m 66 1001 q 96 1032 66 1032 l 200 1032 q 231 1001 231 1032 l 231 730 q 200 700 231 700 l 96 700 q 66 730 66 700 l 66 1001 m 295 1001 q 325 1032 295 1032 l 429 1032 q 460 1001 460 1032 l 460 730 q 429 700 460 700 l 325 700 q 295 730 295 700 l 295 1001 "},"˙":{"x_min":96,"x_max":290,"ha":378,"o":"m 96 985 q 125 1015 96 1015 l 261 1015 q 280 1007 271 1015 q 290 985 290 999 l 290 854 q 282 831 290 842 q 261 821 274 821 l 125 821 q 96 854 96 821 l 96 985 "},"ê":{"x_min":72.5625,"x_max":938.59375,"ha":1004,"o":"m 839 105 q 701 17 778 49 q 539 -13 625 -13 q 360 20 444 -13 q 211 117 275 55 q 110 261 147 178 q 72 443 72 345 q 87 561 72 504 q 129 668 102 618 q 196 760 157 718 q 284 832 235 802 q 389 879 333 862 q 510 895 446 895 q 621 880 567 895 q 723 837 676 865 q 810 770 771 809 q 878 685 850 732 q 922 587 907 639 q 938 479 938 534 q 937 420 938 443 q 926 383 936 397 q 894 364 917 370 q 828 359 871 359 l 328 359 q 356 285 335 315 q 405 237 377 255 q 464 212 433 220 q 523 204 495 204 q 574 210 548 204 q 625 223 601 215 q 670 244 650 232 q 703 268 691 255 q 722 281 714 277 q 739 286 730 286 q 758 279 749 286 q 779 261 767 273 l 853 178 q 862 162 860 169 q 864 147 864 154 q 857 123 864 133 q 839 105 849 113 m 505 684 q 452 673 478 684 q 405 644 427 662 q 365 603 383 626 q 336 556 347 580 l 691 556 q 659 606 676 584 q 620 647 642 629 q 570 674 598 664 q 505 684 542 684 m 517 1251 q 524 1255 522 1254 q 532 1257 527 1257 q 546 1251 538 1257 l 724 1073 q 730 1057 730 1069 q 724 1044 730 1050 l 663 981 q 644 973 655 973 q 628 980 635 973 l 532 1078 l 433 979 q 417 973 426 971 q 403 981 408 975 l 340 1041 q 336 1049 337 1045 q 334 1057 335 1053 q 336 1066 334 1062 q 340 1072 337 1069 l 517 1251 "},"„":{"x_min":86,"x_max":620,"ha":694,"o":"m 86 184 q 93 206 86 198 q 116 215 101 215 l 285 215 q 306 206 296 215 q 317 184 317 198 l 317 34 q 315 -24 317 4 q 280 -124 310 -78 q 196 -201 251 -169 q 191 -203 196 -201 q 181 -205 187 -204 q 171 -208 176 -207 q 165 -209 167 -209 q 156 -206 160 -209 q 148 -199 153 -203 l 122 -178 q 108 -164 110 -170 q 106 -153 106 -158 q 115 -135 106 -145 q 136 -113 125 -126 q 157 -83 148 -99 q 167 -45 167 -66 l 167 -14 q 154 0 167 -2 l 114 0 q 93 8 100 0 q 86 30 86 16 l 86 184 m 389 184 q 397 206 389 198 q 419 215 405 215 l 588 215 q 609 206 599 215 q 620 184 620 198 l 620 34 q 618 -24 620 4 q 583 -124 613 -78 q 499 -201 554 -169 q 494 -203 499 -201 q 484 -205 490 -204 q 474 -208 479 -207 q 468 -209 470 -209 q 459 -206 463 -209 q 451 -199 456 -203 l 425 -178 q 411 -164 413 -170 q 409 -153 409 -158 q 418 -135 409 -145 q 439 -113 428 -126 q 460 -83 451 -99 q 470 -45 470 -66 l 470 -14 q 457 0 470 -2 l 417 0 q 396 8 403 0 q 389 30 389 16 l 389 184 "},"ľ":{"x_min":98.34375,"x_max":639.125,"ha":612,"o":"m 98 1091 q 109 1128 98 1113 q 147 1143 120 1143 l 317 1143 q 332 1140 324 1143 q 346 1129 340 1136 q 357 1112 353 1122 q 362 1091 362 1102 l 362 53 q 347 13 362 27 q 308 0 332 0 l 147 0 q 109 13 120 0 q 98 53 98 27 l 98 1091 m 417 1161 q 424 1181 417 1174 q 444 1189 431 1189 l 609 1189 q 629 1181 620 1189 q 639 1161 639 1174 l 639 982 q 608 872 639 924 q 521 788 578 820 q 512 786 519 786 q 498 788 503 786 q 490 795 493 790 l 447 830 q 438 841 440 835 q 435 851 435 846 q 444 867 435 859 q 462 885 452 875 q 481 909 473 896 q 490 941 490 922 l 490 968 q 478 982 490 980 l 443 982 q 417 1009 417 983 l 417 1161 "},"․":{"x_min":84,"x_max":330,"ha":413,"o":"m 84 200 q 91 222 84 214 q 114 231 99 231 l 298 231 q 319 222 309 231 q 330 200 330 214 l 330 32 q 322 9 330 19 q 298 0 314 0 l 114 0 q 84 32 84 0 l 84 200 "},"Â":{"x_min":27.703125,"x_max":1039.21875,"ha":1063,"o":"m 406 1003 q 411 1012 407 1008 q 420 1021 415 1017 q 432 1028 426 1026 q 444 1031 438 1031 l 622 1031 q 642 1023 634 1031 q 654 1010 650 1016 l 672 971 l 1036 31 q 1034 8 1042 17 q 1008 0 1027 0 l 809 0 q 784 5 793 0 q 770 25 775 11 q 743 96 757 61 q 717 167 730 131 l 348 167 q 321 96 335 131 q 295 25 308 61 q 259 0 286 0 l 54 0 q 32 6 41 0 q 29 27 24 13 l 406 1003 m 533 707 q 506 630 520 671 q 479 548 493 590 q 453 466 466 506 q 426 390 439 425 l 639 390 l 533 707 m 516 1379 q 523 1383 521 1382 q 531 1385 526 1385 q 545 1379 537 1385 l 723 1201 q 729 1185 729 1197 q 723 1172 729 1178 l 662 1109 q 643 1101 654 1101 q 627 1108 634 1101 l 531 1206 l 432 1107 q 416 1101 425 1099 q 402 1109 407 1103 l 339 1169 q 335 1177 336 1173 q 333 1185 334 1181 q 335 1194 333 1190 q 339 1200 336 1197 l 516 1379 "},"Į":{"x_min":29,"x_max":383,"ha":495,"o":"m 114 1000 q 121 1021 114 1012 q 144 1031 129 1031 l 348 1031 q 371 1022 359 1031 q 383 1000 383 1014 l 383 30 q 348 0 383 0 l 144 0 q 114 30 114 0 l 114 1000 m 340 5 q 351 -12 349 -4 q 354 -28 354 -20 q 343 -63 354 -48 q 317 -91 333 -78 q 284 -114 302 -103 q 250 -136 265 -125 q 224 -158 234 -146 q 214 -185 214 -170 q 332 -259 214 -229 q 340 -274 340 -263 q 332 -299 340 -280 q 314 -337 325 -317 q 290 -371 302 -356 q 267 -387 277 -387 l 264 -387 q 167 -347 211 -371 q 93 -295 124 -323 q 45 -239 62 -267 q 29 -185 29 -210 q 39 -141 29 -160 q 66 -107 50 -121 q 100 -80 82 -92 q 134 -59 118 -69 q 161 -39 150 -49 q 172 -19 172 -30 q 157 5 172 -5 l 340 5 "},"ė":{"x_min":72.5625,"x_max":938.59375,"ha":1004,"o":"m 839 105 q 701 17 778 49 q 539 -13 625 -13 q 360 20 444 -13 q 211 117 275 55 q 110 261 147 178 q 72 443 72 345 q 87 561 72 504 q 129 668 102 618 q 196 760 157 718 q 284 832 235 802 q 389 879 333 862 q 510 895 446 895 q 621 880 567 895 q 723 837 676 865 q 810 770 771 809 q 878 685 850 732 q 922 587 907 639 q 938 479 938 534 q 937 420 938 443 q 926 383 936 397 q 894 364 917 370 q 828 359 871 359 l 328 359 q 356 285 335 315 q 405 237 377 255 q 464 212 433 220 q 523 204 495 204 q 574 210 548 204 q 625 223 601 215 q 670 244 650 232 q 703 268 691 255 q 722 281 714 277 q 739 286 730 286 q 758 279 749 286 q 779 261 767 273 l 853 178 q 862 162 860 169 q 864 147 864 154 q 857 123 864 133 q 839 105 849 113 m 505 684 q 452 673 478 684 q 405 644 427 662 q 365 603 383 626 q 336 556 347 580 l 691 556 q 659 606 676 584 q 620 647 642 629 q 570 674 598 664 q 505 684 542 684 m 427 1158 q 456 1188 427 1188 l 592 1188 q 611 1180 602 1188 q 621 1158 621 1172 l 621 1027 q 613 1004 621 1015 q 592 994 605 994 l 456 994 q 427 1027 427 994 l 427 1158 "},"Ţ":{"x_min":55.453125,"x_max":868.9375,"ha":925,"o":"m 55 1000 q 64 1022 55 1014 q 88 1031 74 1031 l 835 1031 q 857 1023 848 1031 q 868 1000 867 1015 l 868 828 q 860 804 868 815 q 835 793 851 793 l 596 793 l 596 32 q 586 10 596 20 q 563 0 577 0 l 359 0 q 337 9 347 0 q 327 32 327 18 l 327 793 l 88 793 q 64 801 74 793 q 55 828 55 810 l 55 1000 m 355 -176 q 362 -156 355 -164 q 382 -149 369 -149 l 546 -149 q 566 -156 557 -149 q 576 -176 576 -163 l 576 -354 q 545 -464 576 -412 q 458 -549 515 -515 q 449 -550 457 -550 q 436 -547 440 -550 q 427 -542 431 -545 l 384 -505 q 375 -495 377 -500 q 372 -485 372 -490 q 381 -469 372 -476 q 399 -451 389 -461 q 418 -428 410 -441 q 427 -395 427 -414 l 427 -368 q 415 -355 427 -357 l 380 -355 q 355 -327 355 -354 l 355 -176 "},"Í":{"x_min":114,"x_max":433.453125,"ha":495,"o":"m 114 1000 q 121 1021 114 1012 q 144 1031 129 1031 l 348 1031 q 371 1022 359 1031 q 383 1000 383 1014 l 383 30 q 348 0 383 0 l 144 0 q 114 30 114 0 l 114 1000 m 193 1310 q 208 1333 197 1326 q 230 1340 218 1340 l 409 1340 q 425 1335 420 1340 q 432 1325 430 1331 q 432 1311 434 1319 q 427 1295 431 1303 l 359 1146 q 343 1123 351 1130 q 322 1117 335 1117 l 170 1117 q 156 1122 159 1117 q 152 1135 152 1128 q 154 1152 152 1143 q 157 1167 156 1161 l 193 1310 "},"´":{"x_min":56.25,"x_max":337.453125,"ha":365,"o":"m 97 1159 q 112 1182 101 1175 q 134 1189 122 1189 l 313 1189 q 329 1184 324 1189 q 336 1174 334 1180 q 336 1160 338 1168 q 331 1144 335 1152 l 263 995 q 247 972 255 979 q 226 966 239 966 l 74 966 q 60 971 63 966 q 56 984 56 977 q 58 1001 56 992 q 61 1016 60 1010 l 97 1159 "},"Ú":{"x_min":108,"x_max":987,"ha":1077,"o":"m 377 411 q 391 323 377 359 q 428 265 405 288 q 483 232 452 242 q 547 222 514 222 q 613 234 582 222 q 667 270 644 246 q 704 329 690 294 q 718 411 718 365 l 718 1000 q 726 1021 718 1012 q 749 1031 735 1031 l 952 1031 q 977 1021 968 1031 q 987 1000 987 1012 l 987 415 q 951 211 987 293 q 854 78 915 128 q 714 5 794 27 q 547 -16 635 -16 q 380 6 460 -16 q 240 80 300 29 q 143 213 179 131 q 108 415 108 295 l 108 1000 q 115 1021 108 1012 q 135 1031 123 1031 l 343 1031 q 365 1022 354 1031 q 377 1000 377 1013 l 377 411 m 501 1309 q 516 1332 505 1325 q 538 1339 526 1339 l 717 1339 q 733 1334 728 1339 q 740 1324 738 1330 q 740 1310 742 1318 q 735 1294 739 1302 l 667 1145 q 651 1122 659 1129 q 630 1116 643 1116 l 478 1116 q 464 1121 467 1116 q 460 1134 460 1127 q 462 1151 460 1142 q 465 1166 464 1160 l 501 1309 "},"Ŷ":{"x_min":16.484375,"x_max":961.921875,"ha":979,"o":"m 489 650 l 657 1009 q 664 1021 661 1017 q 670 1027 667 1025 q 676 1029 673 1028 q 683 1031 679 1029 l 950 1031 q 958 1027 955 1031 q 961 1020 961 1024 q 952 1003 961 1012 l 623 420 l 623 32 q 591 0 623 0 l 383 0 q 361 8 369 0 q 354 32 354 17 l 354 422 l 25 1003 q 16 1020 16 1012 q 19 1027 16 1024 q 26 1031 22 1031 l 294 1031 q 301 1029 299 1029 q 307 1027 304 1028 q 313 1021 310 1025 q 320 1009 315 1017 l 489 650 m 476 1377 q 483 1381 481 1380 q 491 1383 486 1383 q 505 1377 497 1383 l 683 1199 q 689 1183 689 1195 q 683 1170 689 1176 l 622 1107 q 603 1099 614 1099 q 587 1106 594 1099 l 491 1204 l 392 1105 q 376 1099 385 1097 q 362 1107 367 1101 l 299 1167 q 295 1175 296 1171 q 293 1183 294 1179 q 295 1192 293 1188 q 299 1198 296 1195 l 476 1377 "},"ŝ":{"x_min":46.84375,"x_max":738.953125,"ha":804,"o":"m 215 274 q 255 242 234 255 q 297 221 277 229 q 333 210 318 213 q 354 206 348 206 q 387 208 367 206 q 427 214 408 209 q 459 231 445 219 q 472 264 472 243 q 465 295 472 284 q 443 314 457 306 q 407 329 428 322 q 359 343 386 335 q 222 397 276 366 q 136 467 168 428 q 92 550 104 505 q 79 643 79 594 q 102 748 79 701 q 168 829 125 795 q 269 881 210 863 q 400 900 328 900 q 482 892 444 900 q 555 869 520 885 q 623 829 590 854 q 688 770 656 804 q 701 744 700 757 q 685 718 701 732 q 633 675 658 696 q 582 627 609 653 q 566 618 574 620 q 550 618 557 616 q 535 625 542 620 q 522 637 528 630 q 467 674 498 664 q 409 683 436 683 q 354 671 375 683 q 336 635 334 659 q 349 607 337 617 q 379 591 361 597 q 417 580 397 584 q 453 572 436 577 q 568 528 516 552 q 658 470 620 504 q 717 388 696 436 q 738 271 738 340 q 711 148 738 202 q 636 57 684 94 q 522 1 588 20 q 381 -18 456 -18 q 293 -10 338 -18 q 207 14 249 -2 q 128 57 165 31 q 61 122 90 84 q 50 143 54 132 q 46 164 46 154 q 51 183 47 175 q 63 198 54 192 l 152 288 q 182 297 169 302 q 215 274 195 293 m 399 1234 q 406 1238 404 1237 q 414 1240 409 1240 q 428 1234 420 1240 l 606 1056 q 612 1040 612 1052 q 606 1027 612 1033 l 545 964 q 526 956 537 956 q 510 963 517 956 l 414 1061 l 315 962 q 299 956 308 954 q 285 964 290 958 l 222 1024 q 218 1032 219 1028 q 216 1040 217 1036 q 218 1049 216 1045 q 222 1055 219 1052 l 399 1234 "},"Ý":{"x_min":16.484375,"x_max":961.921875,"ha":979,"o":"m 489 650 l 657 1009 q 664 1021 661 1017 q 670 1027 667 1025 q 676 1029 673 1028 q 683 1031 679 1029 l 950 1031 q 958 1027 955 1031 q 961 1020 961 1024 q 952 1003 961 1012 l 623 420 l 623 32 q 591 0 623 0 l 383 0 q 361 8 369 0 q 354 32 354 17 l 354 422 l 25 1003 q 16 1020 16 1012 q 19 1027 16 1024 q 26 1031 22 1031 l 294 1031 q 301 1029 299 1029 q 307 1027 304 1028 q 313 1021 310 1025 q 320 1009 315 1017 l 489 650 m 428 1310 q 443 1333 432 1326 q 465 1340 453 1340 l 644 1340 q 660 1335 655 1340 q 667 1325 665 1331 q 667 1311 669 1319 q 662 1295 666 1303 l 594 1146 q 578 1123 586 1130 q 557 1117 570 1117 l 405 1117 q 391 1122 394 1117 q 387 1135 387 1128 q 389 1152 387 1143 q 392 1167 391 1161 l 428 1310 "},"Ĉ":{"x_min":71,"x_max":921.015625,"ha":979,"o":"m 898 956 q 915 938 910 949 q 913 912 921 927 l 796 745 q 780 731 788 733 q 758 737 771 729 q 683 777 724 763 q 597 791 642 791 q 492 769 540 791 q 409 710 444 748 q 355 623 374 673 q 336 516 336 573 q 355 409 336 459 q 409 323 374 360 q 492 264 444 286 q 597 243 540 243 q 684 257 642 243 q 760 297 726 271 q 781 303 772 304 q 797 290 789 302 l 916 119 q 918 94 924 104 q 901 76 913 83 q 760 8 836 32 q 601 -15 685 -15 q 460 3 528 -15 q 333 57 392 22 q 226 140 274 91 q 143 247 178 188 q 89 373 108 305 q 71 514 71 441 q 89 656 71 588 q 143 783 108 724 q 226 891 178 842 q 333 974 274 940 q 460 1027 392 1008 q 601 1047 528 1047 q 759 1023 685 1047 q 898 956 833 1000 m 580 1373 q 587 1377 585 1376 q 595 1379 590 1379 q 609 1373 601 1379 l 787 1195 q 793 1179 793 1191 q 787 1166 793 1172 l 726 1103 q 707 1095 718 1095 q 691 1102 698 1095 l 595 1200 l 496 1101 q 480 1095 489 1093 q 466 1103 471 1097 l 403 1163 q 399 1171 400 1167 q 397 1179 398 1175 q 399 1188 397 1184 q 403 1194 400 1191 l 580 1373 "},"ą":{"x_min":71.953125,"x_max":1006.046875,"ha":1090,"o":"m 1006 51 q 1001 28 1006 39 q 988 11 997 17 q 969 1 980 4 q 951 0 959 0 l 815 0 q 791 3 800 0 q 776 14 782 7 q 767 31 771 21 q 759 53 763 41 l 739 105 q 698 65 720 86 q 649 26 676 44 q 591 -3 622 8 q 524 -16 560 -16 q 403 0 461 -16 q 295 45 345 15 q 203 116 244 74 q 133 208 162 157 q 87 317 103 259 q 71 440 71 376 q 107 619 71 536 q 203 764 142 702 q 347 860 265 825 q 524 896 430 896 q 603 883 567 896 q 669 849 640 870 q 723 802 699 828 q 765 748 747 775 l 792 832 q 804 860 799 849 q 814 876 808 871 q 826 883 819 881 q 848 885 834 885 l 951 885 q 969 882 959 885 q 988 873 980 880 q 1001 855 997 865 q 1006 833 1006 846 l 1006 51 m 321 440 q 336 354 321 394 q 376 285 350 314 q 440 239 403 256 q 522 222 477 222 q 609 239 569 222 q 678 285 649 256 q 724 354 708 314 q 741 440 741 394 q 724 525 741 484 q 678 595 708 565 q 609 644 649 626 q 522 662 569 662 q 440 644 477 662 q 376 595 403 626 q 336 525 350 565 q 321 440 321 484 m 971 13 q 982 -4 980 3 q 985 -20 985 -12 q 974 -55 985 -40 q 948 -83 964 -70 q 915 -106 933 -95 q 881 -128 896 -117 q 855 -150 865 -138 q 845 -177 845 -162 q 963 -251 845 -221 q 971 -266 971 -255 q 963 -291 971 -272 q 945 -329 956 -309 q 921 -363 933 -348 q 898 -379 908 -379 l 895 -379 q 798 -339 842 -363 q 724 -287 755 -315 q 676 -231 693 -259 q 660 -177 660 -202 q 670 -133 660 -152 q 697 -99 681 -113 q 731 -72 713 -84 q 765 -51 749 -61 q 792 -31 781 -41 q 803 -11 803 -22 q 788 13 803 2 l 971 13 "},"Ö":{"x_min":64,"x_max":1127,"ha":1185,"o":"m 333 515 q 352 407 333 457 q 406 320 371 357 q 489 262 441 283 q 595 241 537 241 q 700 262 652 241 q 784 320 749 283 q 838 407 819 357 q 858 515 858 457 q 838 622 858 572 q 784 710 819 672 q 700 769 749 747 q 595 791 652 791 q 489 769 537 791 q 406 710 441 747 q 352 622 371 672 q 333 515 333 572 m 64 514 q 82 656 64 588 q 136 783 101 724 q 219 891 171 842 q 326 974 267 940 q 453 1027 385 1008 q 595 1047 521 1047 q 736 1027 668 1047 q 863 974 804 1008 q 971 891 922 940 q 1054 783 1019 842 q 1107 656 1088 724 q 1127 514 1127 588 q 1107 373 1127 441 q 1054 247 1088 305 q 971 140 1019 188 q 863 57 922 91 q 736 3 804 22 q 595 -15 668 -15 q 453 3 521 -15 q 326 57 385 22 q 219 140 267 91 q 136 247 171 188 q 82 373 101 305 q 64 514 64 441 m 349 1292 q 378 1322 349 1322 l 514 1322 q 533 1314 524 1322 q 543 1292 543 1306 l 543 1161 q 535 1138 543 1149 q 514 1128 527 1128 l 378 1128 q 349 1161 349 1128 l 349 1292 m 652 1292 q 682 1322 652 1322 l 816 1322 q 846 1292 846 1322 l 846 1161 q 838 1138 846 1149 q 816 1128 830 1128 l 682 1128 q 652 1161 652 1128 l 652 1292 "},"z":{"x_min":54.859375,"x_max":778.53125,"ha":834,"o":"m 75 831 q 89 870 75 855 q 130 885 104 885 l 715 885 q 754 871 737 885 q 771 831 771 858 l 771 710 q 770 695 771 704 q 763 679 769 687 l 380 225 l 723 225 q 763 211 748 225 q 778 168 778 197 l 778 59 q 774 38 778 49 q 763 19 770 27 q 746 5 756 10 q 723 0 736 0 l 111 0 q 89 5 100 0 q 71 18 79 10 q 59 37 63 27 q 54 59 54 48 l 54 155 q 56 174 54 165 q 66 193 58 183 q 164 304 113 244 q 267 426 215 364 q 370 548 319 488 q 468 661 422 609 l 130 661 q 89 675 104 661 q 75 718 75 688 l 75 831 "},"™":{"x_min":78.4375,"x_max":846.59375,"ha":950,"o":"m 78 1021 q 82 1029 78 1026 q 93 1033 86 1033 l 382 1033 q 397 1021 397 1033 l 397 945 q 382 932 397 932 l 292 932 l 292 623 q 288 614 292 619 q 280 610 284 610 l 197 610 q 189 614 194 610 q 184 623 184 619 l 184 932 l 93 932 q 78 945 78 932 l 78 1021 m 436 1021 q 440 1029 436 1026 q 449 1033 443 1033 l 557 1033 q 570 1024 567 1033 l 631 834 l 693 1024 q 699 1030 695 1028 q 707 1033 704 1033 l 812 1033 q 821 1029 817 1033 q 826 1021 826 1025 l 846 621 q 831 610 846 610 l 757 610 q 745 621 745 610 l 728 840 l 666 639 q 655 628 661 628 l 608 628 q 597 639 602 628 l 534 840 l 518 621 q 504 610 518 610 l 429 610 q 417 621 417 610 l 436 1021 "},"Θ":{"x_min":64,"x_max":1125,"ha":1192,"o":"m 317 610 q 286 579 286 610 l 286 451 q 317 418 286 418 l 886 418 q 908 428 900 418 q 917 451 917 438 l 917 579 q 907 602 917 594 q 886 610 898 610 l 317 610 m 331 515 q 351 622 331 572 q 405 710 370 672 q 488 769 441 747 q 594 791 536 791 q 700 769 652 791 q 783 710 748 747 q 838 622 818 672 q 857 515 857 572 q 838 407 857 457 q 783 320 818 357 q 700 262 748 283 q 594 241 652 241 q 488 262 536 241 q 405 320 441 283 q 351 407 370 357 q 331 515 331 457 m 64 514 q 82 656 64 588 q 136 783 101 724 q 219 891 170 842 q 326 974 267 940 q 452 1027 385 1008 q 594 1047 520 1047 q 735 1027 667 1047 q 862 974 803 1008 q 969 891 920 940 q 1052 783 1018 842 q 1105 656 1086 724 q 1125 514 1125 588 q 1105 373 1125 441 q 1052 247 1086 305 q 969 140 1018 188 q 862 57 920 91 q 735 3 803 22 q 594 -15 667 -15 q 452 3 520 -15 q 326 57 385 22 q 219 140 267 91 q 136 247 170 188 q 82 373 101 305 q 64 514 64 441 "},"Ř":{"x_min":113,"x_max":961.140625,"ha":977,"o":"m 113 999 q 120 1022 113 1013 q 143 1031 128 1031 l 592 1031 q 726 1004 663 1031 q 835 931 788 977 q 908 824 881 885 q 935 693 935 763 q 922 603 935 646 q 886 523 909 560 q 831 456 863 486 q 762 404 800 426 l 941 68 q 953 45 945 59 q 961 22 961 32 q 953 5 961 11 q 934 0 946 0 l 696 0 q 675 6 684 0 q 663 25 665 13 l 494 343 l 382 343 l 382 29 q 350 0 382 0 l 143 0 q 121 7 129 0 q 113 29 113 14 l 113 999 m 657 691 q 649 732 657 711 q 627 770 641 753 q 594 799 613 787 q 551 815 575 811 q 514 817 532 816 q 477 818 497 818 l 382 818 l 382 564 l 509 564 q 532 564 522 564 q 553 567 541 565 q 597 581 577 569 q 629 609 616 592 q 650 647 643 626 q 657 691 657 668 m 499 1098 q 492 1093 494 1094 q 484 1092 489 1092 q 470 1098 478 1092 l 292 1275 q 286 1291 286 1279 q 292 1304 286 1297 l 353 1367 q 372 1375 361 1375 q 387 1368 381 1375 l 484 1270 l 583 1369 q 599 1375 590 1377 q 613 1367 608 1373 l 676 1307 q 680 1299 679 1303 q 682 1291 681 1295 q 680 1282 682 1286 q 676 1276 678 1279 l 499 1098 "},"ã":{"x_min":71.953125,"x_max":1006.046875,"ha":1090,"o":"m 1006 51 q 1001 28 1006 39 q 988 11 997 17 q 969 1 980 4 q 951 0 959 0 l 815 0 q 791 3 800 0 q 776 14 782 7 q 767 31 771 21 q 759 53 763 41 l 739 105 q 698 65 720 86 q 649 26 676 44 q 591 -3 622 8 q 524 -16 560 -16 q 403 0 461 -16 q 295 45 345 15 q 203 116 244 74 q 133 208 162 157 q 87 317 103 259 q 71 440 71 376 q 107 619 71 536 q 203 764 142 702 q 347 860 265 825 q 524 896 430 896 q 603 883 567 896 q 669 849 640 870 q 723 802 699 828 q 765 748 747 775 l 792 832 q 804 860 799 849 q 814 876 808 871 q 826 883 819 881 q 848 885 834 885 l 951 885 q 969 882 959 885 q 988 873 980 880 q 1001 855 997 865 q 1006 833 1006 846 l 1006 51 m 321 440 q 336 354 321 394 q 376 285 350 314 q 440 239 403 256 q 522 222 477 222 q 609 239 569 222 q 678 285 649 256 q 724 354 708 314 q 741 440 741 394 q 724 525 741 484 q 678 595 708 565 q 609 644 649 626 q 522 662 569 662 q 440 644 477 662 q 376 595 403 626 q 336 525 350 565 q 321 440 321 484 m 306 1123 q 337 1158 319 1142 q 376 1184 355 1173 q 419 1200 397 1194 q 464 1206 442 1206 q 491 1203 476 1206 q 523 1193 505 1200 q 562 1175 540 1186 q 610 1146 583 1163 q 625 1138 617 1141 q 641 1135 632 1135 q 665 1141 655 1135 q 683 1156 675 1147 l 706 1184 q 720 1193 712 1193 q 733 1187 727 1194 l 805 1125 q 815 1112 812 1117 q 810 1097 817 1106 l 789 1070 q 721 1010 762 1032 q 634 989 680 989 q 579 998 607 989 q 526 1023 551 1007 l 487 1048 q 473 1055 480 1052 q 456 1058 466 1058 q 432 1052 442 1058 q 414 1038 422 1047 l 393 1010 q 378 1002 389 1003 q 362 1007 368 1001 l 290 1068 q 284 1074 287 1071 q 282 1084 282 1078 q 282 1087 282 1084 q 285 1093 282 1089 q 292 1104 287 1097 q 306 1123 297 1112 "},"Ň":{"x_min":115,"x_max":1024,"ha":1139,"o":"m 115 1000 q 122 1021 115 1012 q 145 1031 130 1031 l 373 1031 q 393 1026 382 1031 q 411 1009 403 1021 q 585 728 499 867 q 761 448 672 590 l 761 1004 q 772 1024 763 1017 q 791 1031 780 1031 l 989 1031 q 1014 1023 1004 1031 q 1024 1000 1024 1015 l 1024 27 q 1015 6 1024 13 q 992 0 1007 0 l 771 0 q 755 6 761 0 q 740 22 748 12 q 558 324 648 175 q 375 626 467 474 l 375 30 q 368 7 375 15 q 343 0 361 0 l 145 0 q 122 8 129 0 q 115 29 115 17 l 115 1000 m 583 1095 q 576 1090 578 1091 q 568 1089 573 1089 q 554 1095 562 1089 l 376 1272 q 370 1288 370 1276 q 376 1301 370 1294 l 437 1364 q 456 1372 445 1372 q 471 1365 465 1372 l 568 1267 l 667 1366 q 683 1372 674 1374 q 697 1364 692 1370 l 760 1304 q 764 1296 763 1300 q 766 1288 765 1292 q 764 1279 766 1283 q 760 1273 762 1276 l 583 1095 "},"æ":{"x_min":71.953125,"x_max":1720.59375,"ha":1786,"o":"m 1006 51 q 1001 28 1006 39 q 988 11 997 17 q 969 1 980 4 q 951 0 959 0 l 815 0 q 791 3 800 0 q 776 14 782 7 q 767 31 771 21 q 759 53 763 41 l 739 105 q 698 65 720 86 q 649 26 676 44 q 591 -3 622 8 q 524 -16 560 -16 q 403 0 461 -16 q 295 45 345 15 q 203 116 244 74 q 133 208 162 157 q 87 317 103 259 q 71 440 71 376 q 107 619 71 536 q 203 764 142 702 q 347 860 265 825 q 524 896 430 896 q 603 883 567 896 q 669 849 640 870 q 723 802 699 828 q 765 748 747 775 l 792 832 q 804 860 799 849 q 814 876 808 871 q 826 883 819 881 q 848 885 834 885 l 951 885 q 969 882 959 885 q 988 873 980 880 q 1001 855 997 865 q 1006 833 1006 846 l 1006 51 m 321 440 q 336 354 321 394 q 376 285 350 314 q 440 239 403 256 q 522 222 477 222 q 609 239 569 222 q 678 285 649 256 q 724 354 708 314 q 741 440 741 394 q 724 525 741 484 q 678 595 708 565 q 609 644 649 626 q 522 662 569 662 q 440 644 477 662 q 376 595 403 626 q 336 525 350 565 q 321 440 321 484 m 1621 105 q 1483 17 1560 49 q 1321 -13 1407 -13 q 1142 20 1226 -13 q 993 117 1057 55 q 892 261 929 178 q 854 443 854 345 q 869 561 854 504 q 911 668 884 618 q 978 760 939 718 q 1066 832 1017 802 q 1171 879 1115 862 q 1292 895 1228 895 q 1403 880 1349 895 q 1505 837 1458 865 q 1592 770 1553 809 q 1660 685 1632 732 q 1704 587 1689 639 q 1720 479 1720 534 q 1719 420 1720 443 q 1708 383 1718 397 q 1676 364 1699 370 q 1610 359 1653 359 l 1110 359 q 1138 285 1117 315 q 1187 237 1159 255 q 1246 212 1215 220 q 1305 204 1277 204 q 1356 210 1330 204 q 1407 223 1383 215 q 1452 244 1432 232 q 1485 268 1473 255 q 1504 281 1496 277 q 1521 286 1512 286 q 1540 279 1531 286 q 1561 261 1549 273 l 1635 178 q 1644 162 1642 169 q 1646 147 1646 154 q 1639 123 1646 133 q 1621 105 1631 113 m 1287 684 q 1234 673 1260 684 q 1187 644 1209 662 q 1147 603 1165 626 q 1118 556 1129 580 l 1473 556 q 1441 606 1458 584 q 1402 647 1424 629 q 1352 674 1380 664 q 1287 684 1324 684 "},"ĩ":{"x_min":-20.71875,"x_max":512.9375,"ha":495,"o":"m 120 827 q 132 866 120 850 q 171 882 145 882 l 330 882 q 348 878 339 882 q 366 867 358 874 q 381 850 375 859 q 387 827 387 840 l 387 53 q 372 13 387 27 q 330 0 357 0 l 171 0 q 120 53 120 0 l 120 827 m 3 1123 q 34 1158 16 1142 q 73 1184 52 1173 q 116 1200 94 1194 q 161 1206 139 1206 q 188 1203 173 1206 q 220 1193 202 1200 q 259 1175 237 1186 q 307 1146 280 1163 q 322 1138 314 1141 q 338 1135 329 1135 q 362 1141 352 1135 q 380 1156 372 1147 l 403 1184 q 417 1193 409 1193 q 430 1187 424 1194 l 502 1125 q 512 1112 509 1117 q 507 1097 514 1106 l 486 1070 q 418 1010 459 1032 q 331 989 377 989 q 276 998 304 989 q 223 1023 248 1007 l 184 1048 q 170 1055 177 1052 q 153 1058 163 1058 q 129 1052 139 1058 q 111 1038 119 1047 l 90 1010 q 75 1002 86 1003 q 59 1007 65 1001 l -12 1068 q -18 1074 -15 1071 q -20 1084 -20 1078 q -20 1087 -20 1084 q -17 1093 -20 1089 q -10 1104 -15 1097 q 3 1123 -5 1112 "},"É":{"x_min":112,"x_max":878.953125,"ha":938,"o":"m 112 999 q 119 1022 112 1013 q 142 1031 127 1031 l 831 1031 q 855 1022 847 1031 q 863 997 863 1013 l 863 826 q 855 803 863 814 q 831 793 847 793 l 381 793 l 381 621 l 728 621 q 750 614 741 621 q 758 593 758 608 l 758 443 q 751 425 758 434 q 728 416 743 416 l 381 416 l 381 238 l 847 238 q 878 206 878 238 l 878 31 q 873 19 878 24 q 844 0 870 0 l 142 0 q 120 7 128 0 q 112 29 112 14 l 112 999 m 377 1309 q 392 1332 381 1325 q 414 1339 402 1339 l 593 1339 q 609 1334 604 1339 q 616 1324 614 1330 q 616 1310 618 1318 q 611 1294 615 1302 l 543 1145 q 527 1122 535 1129 q 506 1116 519 1116 l 354 1116 q 340 1121 343 1116 q 336 1134 336 1127 q 338 1151 336 1142 q 341 1166 340 1160 l 377 1309 "},"ŀ":{"x_min":83.34375,"x_max":707,"ha":733,"o":"m 83 1091 q 94 1128 83 1113 q 132 1143 105 1143 l 302 1143 q 317 1140 309 1143 q 331 1129 325 1136 q 342 1112 338 1122 q 347 1091 347 1102 l 347 53 q 332 13 347 27 q 293 0 317 0 l 132 0 q 94 13 105 0 q 83 53 83 27 l 83 1091 m 461 645 q 468 667 461 659 q 491 676 476 676 l 675 676 q 696 667 686 676 q 707 645 707 659 l 707 477 q 699 454 707 464 q 675 445 691 445 l 491 445 q 461 477 461 445 l 461 645 "},"~":{"x_min":77.78125,"x_max":835.484375,"ha":915,"o":"m 111 480 q 207 564 152 535 q 328 594 263 594 q 406 580 368 594 q 482 544 445 567 l 539 508 q 585 495 559 495 q 646 525 625 495 l 673 565 q 697 576 681 576 q 719 569 707 576 l 823 499 q 835 476 835 489 q 829 457 835 468 l 802 419 q 706 334 761 363 q 585 305 650 305 q 505 317 545 303 q 430 353 466 330 l 374 390 q 328 404 352 404 q 267 373 289 404 l 239 333 q 219 322 231 323 q 193 329 206 320 l 90 399 q 77 421 77 406 q 78 427 77 424 q 82 436 79 430 q 92 453 86 442 q 111 480 99 463 "},"Ċ":{"x_min":71,"x_max":921.015625,"ha":979,"o":"m 898 956 q 915 938 910 949 q 913 912 921 927 l 796 745 q 780 731 788 733 q 758 737 771 729 q 683 777 724 763 q 597 791 642 791 q 492 769 540 791 q 409 710 444 748 q 355 623 374 673 q 336 516 336 573 q 355 409 336 459 q 409 323 374 360 q 492 264 444 286 q 597 243 540 243 q 684 257 642 243 q 760 297 726 271 q 781 303 772 304 q 797 290 789 302 l 916 119 q 918 94 924 104 q 901 76 913 83 q 760 8 836 32 q 601 -15 685 -15 q 460 3 528 -15 q 333 57 392 22 q 226 140 274 91 q 143 247 178 188 q 89 373 108 305 q 71 514 71 441 q 89 656 71 588 q 143 783 108 724 q 226 891 178 842 q 333 974 274 940 q 460 1027 392 1008 q 601 1047 528 1047 q 759 1023 685 1047 q 898 956 833 1000 m 508 1304 q 537 1334 508 1334 l 673 1334 q 692 1326 683 1334 q 702 1304 702 1318 l 702 1173 q 694 1150 702 1161 q 673 1140 686 1140 l 537 1140 q 508 1173 508 1140 l 508 1304 "},"³":{"x_min":63,"x_max":454,"ha":526,"o":"m 245 693 q 215 717 215 693 l 215 789 q 245 820 215 820 q 267 824 259 820 q 280 834 275 828 q 287 848 285 841 q 290 863 290 856 q 288 879 290 871 q 284 894 287 887 q 272 906 280 901 q 250 911 263 911 q 231 906 238 911 q 220 895 224 902 q 215 878 216 887 q 214 859 214 869 q 207 834 214 842 q 182 827 200 827 l 118 827 q 89 856 89 827 q 102 936 89 903 q 137 990 115 969 q 190 1020 160 1011 q 254 1030 220 1030 q 317 1017 287 1030 q 369 982 347 1004 q 405 930 392 959 q 418 866 418 900 q 388 775 418 812 q 416 749 404 763 q 437 717 428 735 q 449 678 445 700 q 454 628 454 656 q 439 552 454 587 q 399 491 425 517 q 337 449 373 464 q 257 435 301 435 q 181 443 216 435 q 119 475 145 452 q 78 540 93 498 q 63 646 63 581 q 92 676 63 669 l 161 676 q 191 646 191 676 q 196 605 191 621 q 210 579 201 589 q 231 566 218 570 q 257 563 243 563 q 308 579 290 563 q 326 630 326 596 q 308 679 326 665 q 245 693 290 693 "},"¡":{"x_min":93.09375,"x_max":339.03125,"ha":424,"o":"m 339 -231 q 305 -261 339 -261 l 124 -261 q 94 -231 94 -261 l 94 517 q 101 539 94 530 q 124 547 109 547 l 305 547 q 327 539 315 547 q 339 517 339 531 l 339 -231 m 339 681 q 331 659 339 667 q 308 651 323 651 l 125 651 q 103 659 113 651 q 93 681 93 667 l 93 850 q 101 872 93 862 q 125 882 109 882 l 308 882 q 339 850 339 882 l 339 681 "},"ẅ":{"x_min":19.234375,"x_max":1312.28125,"ha":1338,"o":"m 27 813 q 22 861 13 841 q 63 882 31 882 l 241 882 q 273 872 259 882 q 292 844 286 862 q 318 762 304 807 q 348 669 332 716 q 379 575 363 622 q 407 489 394 529 q 430 421 420 450 q 445 379 440 392 l 592 844 q 612 874 601 866 q 645 882 624 882 l 809 882 q 840 877 829 882 q 854 863 850 872 q 855 844 857 855 q 848 822 853 834 l 772 635 q 791 595 777 623 q 822 531 804 567 q 858 456 840 495 q 889 383 877 417 l 1059 844 q 1078 874 1068 866 q 1106 882 1087 882 l 1259 882 q 1305 869 1293 882 q 1307 822 1318 857 l 981 29 q 962 8 975 17 q 925 0 949 0 l 852 0 q 812 8 825 0 q 792 31 800 17 l 663 346 l 536 29 q 518 8 528 17 q 486 0 507 0 l 404 0 q 364 7 376 0 q 347 29 353 15 l 27 813 m 419 1160 q 448 1190 419 1190 l 584 1190 q 603 1182 594 1190 q 613 1160 613 1174 l 613 1029 q 605 1006 613 1017 q 584 996 597 996 l 448 996 q 419 1029 419 996 l 419 1160 m 722 1160 q 752 1190 722 1190 l 886 1190 q 916 1160 916 1190 l 916 1029 q 908 1006 916 1017 q 886 996 900 996 l 752 996 q 722 1029 722 996 l 722 1160 "},"[":{"x_min":112,"x_max":473.59375,"ha":582,"o":"m 112 1109 q 142 1140 112 1140 l 443 1140 q 473 1109 473 1137 l 473 943 q 464 920 473 929 q 443 912 455 912 l 359 912 l 359 -10 l 443 -10 q 464 -18 455 -10 q 473 -41 473 -27 l 473 -207 q 443 -238 473 -235 l 142 -238 q 112 -207 112 -238 l 112 1109 "},"Γ":{"x_min":87,"x_max":768.53125,"ha":819,"o":"m 87 30 q 95 9 87 18 q 118 0 103 0 l 324 0 q 345 8 335 0 q 356 30 355 16 l 356 786 l 737 786 q 759 794 750 786 q 768 817 768 802 l 768 1000 q 760 1021 768 1011 q 737 1032 752 1031 l 117 1032 q 87 1001 87 1032 l 87 30 "},"%":{"x_min":32,"x_max":1261,"ha":1294,"o":"m 32 793 q 52 897 32 849 q 109 982 73 946 q 194 1040 145 1019 q 299 1061 243 1061 q 403 1040 355 1061 q 488 982 452 1019 q 546 897 525 946 q 567 793 567 849 q 546 688 567 737 q 488 603 525 639 q 403 546 452 567 q 299 526 355 526 q 194 546 243 526 q 109 603 145 567 q 52 688 73 639 q 32 793 32 737 m 754 1000 q 770 1022 759 1013 q 798 1031 781 1031 l 949 1031 q 974 1025 963 1031 q 984 1009 984 1020 q 983 1000 984 1002 l 544 30 q 529 6 536 13 q 507 0 522 0 l 341 0 q 312 18 312 0 l 313 20 l 316 30 l 754 1000 m 218 793 q 240 734 218 757 q 299 712 263 712 q 330 718 316 712 q 356 735 345 724 q 373 761 367 746 q 380 793 380 775 q 373 825 380 810 q 356 850 367 839 q 330 867 345 861 q 299 874 316 874 q 266 868 281 874 q 240 851 252 862 q 223 825 229 840 q 218 793 218 810 m 727 253 q 747 357 727 309 q 804 442 768 406 q 889 500 840 479 q 994 521 938 521 q 1098 500 1049 521 q 1182 442 1146 479 q 1240 357 1219 406 q 1261 253 1261 309 q 1240 148 1261 197 q 1182 63 1219 99 q 1098 6 1146 27 q 994 -14 1049 -14 q 889 6 938 -14 q 804 63 840 27 q 747 148 768 99 q 727 253 727 197 m 913 253 q 935 194 913 217 q 993 172 958 172 q 1025 178 1010 172 q 1050 195 1040 184 q 1067 221 1061 206 q 1074 253 1074 235 q 1067 285 1074 270 q 1050 310 1061 299 q 1025 327 1040 321 q 993 334 1010 334 q 961 328 975 334 q 935 311 946 322 q 918 285 924 300 q 913 253 913 270 "},"P":{"x_min":99,"x_max":894,"ha":933,"o":"m 99 999 q 106 1022 99 1013 q 129 1031 114 1031 l 573 1031 q 663 1017 621 1031 q 741 981 705 1004 q 805 925 776 958 q 853 855 833 893 q 883 777 873 818 q 894 693 894 735 q 871 571 894 630 q 807 464 848 511 q 707 389 765 418 q 578 360 649 360 l 368 360 l 368 29 q 336 0 368 0 l 129 0 q 107 7 115 0 q 99 29 99 14 l 99 999 m 622 695 q 614 736 622 715 q 593 773 607 757 q 559 800 579 790 q 515 811 540 811 l 368 811 l 368 579 l 515 579 q 560 589 540 579 q 593 615 580 599 q 614 651 607 631 q 622 695 622 672 "},"∏":{"x_min":104,"x_max":908,"ha":1000,"o":"m 634 785 l 378 785 l 378 29 q 345 0 378 0 l 134 0 q 104 29 104 0 l 104 999 q 134 1031 104 1031 l 875 1031 q 897 1022 887 1031 q 908 1000 908 1014 l 908 30 q 875 0 908 0 l 664 0 q 634 30 634 0 l 634 785 "},"Έ":{"x_min":4.9375,"x_max":1052.953125,"ha":1113,"o":"m 286 999 q 293 1022 286 1013 q 316 1031 301 1031 l 1005 1031 q 1029 1022 1021 1031 q 1037 997 1037 1013 l 1037 826 q 1029 803 1037 814 q 1005 793 1021 793 l 555 793 l 555 621 l 902 621 q 924 614 915 621 q 932 593 932 608 l 932 443 q 925 425 932 434 q 902 416 917 416 l 555 416 l 555 238 l 1021 238 q 1052 206 1052 238 l 1052 31 q 1047 19 1052 24 q 1018 0 1044 0 l 316 0 q 294 7 302 0 q 286 29 286 14 l 286 999 m 60 773 q 37 781 46 774 q 28 803 28 788 l 5 1008 q 10 1026 3 1019 q 29 1033 17 1033 l 182 1033 q 203 1025 195 1033 q 208 1003 211 1017 l 187 803 q 177 782 186 791 q 157 773 169 773 l 60 773 l 60 773 "},"_":{"x_min":114.59375,"x_max":816.03125,"ha":932,"o":"m 114 159 q 145 190 114 190 l 785 190 q 807 182 797 190 q 816 159 816 174 l 816 33 q 813 22 816 28 q 807 11 811 16 q 797 3 803 6 q 785 0 792 0 l 145 0 q 114 33 114 0 l 114 159 "},"Ŕ":{"x_min":113,"x_max":961.140625,"ha":977,"o":"m 113 999 q 120 1022 113 1013 q 143 1031 128 1031 l 592 1031 q 726 1004 663 1031 q 835 931 788 977 q 908 824 881 885 q 935 693 935 763 q 922 603 935 646 q 886 523 909 560 q 831 456 863 486 q 762 404 800 426 l 941 68 q 953 45 945 59 q 961 22 961 32 q 953 5 961 11 q 934 0 946 0 l 696 0 q 675 6 684 0 q 663 25 665 13 l 494 343 l 382 343 l 382 29 q 350 0 382 0 l 143 0 q 121 7 129 0 q 113 29 113 14 l 113 999 m 657 691 q 649 732 657 711 q 627 770 641 753 q 594 799 613 787 q 551 815 575 811 q 514 817 532 816 q 477 818 497 818 l 382 818 l 382 564 l 509 564 q 532 564 522 564 q 553 567 541 565 q 597 581 577 569 q 629 609 616 592 q 650 647 643 626 q 657 691 657 668 m 426 1310 q 441 1333 430 1326 q 463 1340 451 1340 l 642 1340 q 658 1335 653 1340 q 665 1325 663 1331 q 665 1311 667 1319 q 660 1295 664 1303 l 592 1146 q 576 1123 584 1130 q 555 1117 568 1117 l 403 1117 q 389 1122 392 1117 q 385 1135 385 1128 q 387 1152 385 1143 q 390 1167 389 1161 l 426 1310 "},"ñ":{"x_min":83.34375,"x_max":920.21875,"ha":976,"o":"m 101 870 q 120 880 110 878 q 139 882 130 882 l 244 882 q 265 877 256 882 q 281 865 275 873 q 291 848 287 857 q 298 828 295 838 l 320 739 q 350 788 330 760 q 400 839 370 815 q 473 879 431 863 q 570 896 515 896 q 714 865 650 896 q 824 782 779 835 q 895 659 870 729 q 920 509 920 588 l 920 54 q 908 14 920 27 q 872 0 897 0 l 711 0 q 670 10 682 0 q 659 49 659 20 l 659 502 q 646 558 659 531 q 610 605 632 585 q 560 638 588 626 q 502 650 531 650 q 451 638 477 650 q 403 607 425 627 q 367 561 381 588 q 350 503 352 534 l 350 52 q 345 28 350 40 q 331 10 341 16 q 314 2 322 4 q 296 0 306 0 l 139 0 q 96 15 109 0 q 83 54 83 29 l 83 830 q 89 855 83 844 q 105 872 95 866 l 101 870 m 254 1123 q 285 1158 267 1142 q 324 1184 303 1173 q 367 1200 345 1194 q 412 1206 390 1206 q 439 1203 424 1206 q 471 1193 453 1200 q 510 1175 488 1186 q 558 1146 531 1163 q 573 1138 565 1141 q 589 1135 580 1135 q 613 1141 603 1135 q 631 1156 623 1147 l 654 1184 q 668 1193 660 1193 q 681 1187 675 1194 l 753 1125 q 763 1112 760 1117 q 758 1097 765 1106 l 737 1070 q 669 1010 710 1032 q 582 989 628 989 q 527 998 555 989 q 474 1023 499 1007 l 435 1048 q 421 1055 428 1052 q 404 1058 414 1058 q 380 1052 390 1058 q 362 1038 370 1047 l 341 1010 q 326 1002 337 1003 q 310 1007 316 1001 l 238 1068 q 232 1074 235 1071 q 230 1084 230 1078 q 230 1087 230 1084 q 233 1093 230 1089 q 240 1104 235 1097 q 254 1123 245 1112 "},"‚":{"x_min":84,"x_max":315,"ha":399,"o":"m 84 184 q 91 206 84 198 q 114 215 99 215 l 283 215 q 304 206 294 215 q 315 184 315 198 l 315 34 q 313 -24 315 4 q 278 -124 308 -78 q 194 -201 249 -169 q 189 -203 194 -201 q 179 -205 185 -204 q 169 -208 174 -207 q 163 -209 165 -209 q 154 -206 158 -209 q 146 -199 151 -203 l 120 -178 q 106 -164 108 -170 q 104 -153 104 -158 q 113 -135 104 -145 q 134 -113 123 -126 q 155 -83 146 -99 q 165 -45 165 -66 l 165 -14 q 152 0 165 -2 l 112 0 q 91 8 98 0 q 84 30 84 16 l 84 184 "},"⅞":{"x_min":75.3125,"x_max":1020,"ha":1091,"o":"m 705 1000 q 721 1021 711 1012 q 750 1031 732 1031 l 881 1031 q 905 1025 895 1031 q 916 1009 916 1019 q 914 1000 916 1001 l 384 30 q 369 6 376 13 q 347 0 363 0 l 201 0 q 172 18 172 0 q 175 30 172 16 l 705 1000 m 781 416 q 792 389 781 400 q 818 379 802 379 q 845 389 834 379 q 856 416 856 400 q 845 442 856 431 q 818 453 834 453 q 792 442 802 453 q 781 416 781 431 m 749 180 q 767 126 749 148 q 818 104 785 104 q 867 126 849 104 q 886 180 886 148 q 881 210 886 196 q 867 235 876 224 q 846 252 858 246 q 818 259 833 259 q 789 252 802 259 q 767 235 776 246 q 753 210 758 224 q 749 180 749 196 m 617 180 q 634 266 617 228 q 684 331 652 304 q 667 372 674 349 q 661 416 661 394 q 673 477 661 448 q 707 528 685 506 q 757 562 729 550 q 818 575 785 575 q 879 562 850 575 q 929 528 908 550 q 963 477 951 506 q 976 416 976 448 q 969 371 976 393 q 951 331 963 349 q 1002 266 985 304 q 1020 180 1020 228 q 1004 101 1020 138 q 961 37 988 64 q 897 -5 933 10 q 818 -21 860 -21 q 739 -5 776 -21 q 675 37 703 10 q 632 101 648 64 q 617 180 617 138 m 472 1031 q 498 1020 490 1031 q 507 996 507 1010 q 498 971 507 984 q 363 718 432 848 q 228 464 294 588 q 201 451 219 451 l 109 451 q 82 485 70 451 l 300 903 l 107 903 q 84 909 93 903 q 75 934 75 916 l 75 1001 q 84 1023 75 1015 q 107 1031 93 1031 l 472 1031 "},"Ρ":{"x_min":99,"x_max":894,"ha":924,"o":"m 99 999 q 106 1022 99 1013 q 129 1031 114 1031 l 573 1031 q 663 1017 621 1031 q 741 981 705 1004 q 805 925 776 958 q 853 855 833 893 q 883 777 873 818 q 894 693 894 735 q 871 571 894 630 q 807 464 848 511 q 707 389 765 418 q 578 360 649 360 l 368 360 l 368 29 q 336 0 368 0 l 129 0 q 107 7 115 0 q 99 29 99 14 l 99 999 m 622 695 q 614 736 622 715 q 593 773 607 757 q 559 800 579 790 q 515 811 540 811 l 368 811 l 368 579 l 515 579 q 560 589 540 579 q 593 615 580 599 q 614 651 607 631 q 622 695 622 672 "},"Æ":{"x_min":20.140625,"x_max":1447.34375,"ha":1514,"o":"m 583 1003 q 601 1021 588 1012 q 627 1031 613 1031 l 1389 1031 q 1412 1022 1404 1031 q 1420 997 1420 1013 l 1420 826 q 1412 803 1420 814 q 1388 793 1404 793 l 897 793 l 929 617 q 1118 617 1025 617 q 1307 618 1211 617 q 1328 611 1320 618 q 1337 590 1337 604 l 1337 440 q 1329 422 1337 431 q 1307 413 1322 413 l 964 413 l 996 238 l 1416 238 q 1440 230 1432 238 q 1447 206 1447 222 l 1447 31 q 1437 8 1447 17 q 1414 0 1427 0 l 799 0 q 766 25 770 0 q 753 96 759 61 q 742 167 747 131 l 381 167 l 302 25 q 261 0 286 0 l 42 0 q 20 14 20 0 q 23 27 20 18 q 247 421 107 177 q 583 1003 387 665 m 504 390 l 710 390 l 661 666 l 504 390 "},"ğ":{"x_min":74.5,"x_max":984,"ha":1067,"o":"m 721 30 q 729 83 729 53 q 728 145 728 114 q 687 99 708 123 q 641 55 666 75 q 584 21 616 34 q 509 8 552 8 q 336 40 416 8 q 198 129 256 72 q 107 266 139 187 q 74 442 74 346 q 107 620 74 537 q 198 765 139 703 q 336 861 256 826 q 509 897 416 897 q 587 883 553 897 q 649 849 621 870 q 701 802 678 828 q 745 751 724 776 l 771 833 q 779 855 776 845 q 788 871 782 864 q 802 881 794 878 q 825 885 811 885 l 929 885 q 946 882 936 885 q 964 873 956 880 q 979 856 974 865 q 984 833 984 847 l 984 126 q 948 -66 984 18 q 851 -209 913 -151 q 705 -298 789 -267 q 525 -328 621 -328 q 444 -322 487 -328 q 358 -302 401 -315 q 276 -268 316 -289 q 205 -221 236 -248 q 191 -206 197 -215 q 182 -188 184 -198 q 182 -165 180 -177 q 193 -140 184 -153 l 259 -49 q 293 -28 278 -29 q 334 -44 309 -26 q 374 -71 351 -61 q 420 -87 396 -81 q 467 -95 444 -93 q 509 -97 491 -97 q 575 -88 541 -97 q 638 -64 609 -80 q 690 -24 668 -47 q 721 30 713 0 m 324 442 q 338 356 324 396 q 379 287 353 316 q 442 241 405 258 q 525 224 480 224 q 608 240 569 224 q 677 283 648 256 q 724 349 706 311 q 744 430 741 386 l 744 453 q 724 533 741 495 q 677 600 706 571 q 608 645 648 628 q 525 663 569 663 q 442 645 480 663 q 379 597 405 627 q 338 527 353 567 q 324 442 324 487 m 532 981 q 456 996 491 981 q 396 1035 421 1011 q 355 1091 370 1060 q 341 1155 341 1121 q 349 1174 341 1167 q 367 1181 357 1181 l 467 1181 q 479 1176 475 1181 q 483 1165 483 1171 q 496 1136 483 1149 q 535 1124 508 1124 q 571 1137 558 1124 q 584 1165 584 1150 q 587 1176 584 1171 q 599 1181 591 1181 l 700 1181 q 718 1174 710 1181 q 726 1155 726 1167 q 711 1090 726 1121 q 670 1034 696 1058 q 608 996 644 1010 q 532 981 573 981 "},"ﬆ":{"x_min":0,"x_max":0,"ha":1029},"Ū":{"x_min":108,"x_max":987,"ha":1045,"o":"m 377 411 q 391 323 377 359 q 428 265 405 288 q 483 232 452 242 q 547 222 514 222 q 613 234 582 222 q 667 270 644 246 q 704 329 690 294 q 718 411 718 365 l 718 1000 q 726 1021 718 1012 q 749 1031 735 1031 l 952 1031 q 977 1021 968 1031 q 987 1000 987 1012 l 987 415 q 951 211 987 293 q 854 78 915 128 q 714 5 794 27 q 547 -16 635 -16 q 380 6 460 -16 q 240 80 300 29 q 143 213 179 131 q 108 415 108 295 l 108 1000 q 115 1021 108 1012 q 135 1031 123 1031 l 343 1031 q 365 1022 354 1031 q 377 1000 377 1013 l 377 411 m 243 1278 q 267 1303 243 1303 l 808 1303 q 825 1297 818 1303 q 832 1278 832 1291 l 832 1171 q 826 1153 832 1163 q 808 1144 820 1144 l 267 1144 q 243 1171 243 1144 l 243 1278 "},"ª":{"x_min":72,"x_max":619,"ha":710,"o":"m 614 536 q 598 532 605 532 l 489 532 q 467 551 467 532 l 467 589 q 413 540 446 558 q 330 522 380 522 q 229 542 276 522 q 147 597 182 562 q 92 679 112 632 q 72 780 72 726 q 92 881 72 834 q 147 963 112 928 q 229 1018 182 998 q 330 1039 276 1039 q 421 1017 386 1039 q 475 957 455 995 l 487 1010 q 509 1031 487 1031 l 598 1031 q 614 1026 607 1031 q 619 1010 619 1021 l 619 551 q 614 536 619 541 m 228 781 q 235 741 228 760 q 256 709 243 723 q 288 688 270 696 q 328 680 306 680 q 367 688 349 680 q 399 709 385 696 q 421 741 413 723 q 429 781 429 760 l 429 785 q 419 823 427 806 q 398 854 411 840 q 366 874 384 867 q 328 882 349 882 q 288 874 306 882 q 256 853 270 866 q 235 821 243 839 q 228 781 228 802 "},"΅":{"x_min":0,"x_max":0,"ha":597},"Œ":{"x_min":57,"x_max":1619.953125,"ha":1686,"o":"m 57 516 q 75 658 57 590 q 129 785 94 726 q 212 893 163 844 q 319 976 260 942 q 446 1029 378 1010 q 587 1049 513 1049 q 726 1030 660 1049 q 852 978 792 1012 l 852 1002 q 860 1025 852 1016 q 882 1034 868 1034 l 1572 1034 q 1596 1025 1588 1034 q 1604 1000 1604 1016 l 1604 829 q 1596 806 1604 817 q 1572 796 1588 796 l 1122 796 l 1122 624 l 1469 624 q 1491 617 1482 624 q 1499 596 1499 611 l 1499 446 q 1492 428 1499 437 q 1469 419 1484 419 l 1122 419 l 1122 241 l 1588 241 q 1619 209 1619 241 l 1619 34 q 1614 21 1619 27 q 1585 2 1611 2 l 882 2 q 860 9 868 2 q 852 32 852 16 l 852 57 q 727 5 793 23 q 587 -13 660 -13 q 446 5 514 -13 q 319 59 378 24 q 212 142 260 93 q 129 249 163 190 q 75 375 94 307 q 57 516 57 443 m 326 518 q 345 410 326 460 q 399 322 364 360 q 482 264 434 285 q 588 243 530 243 q 693 264 645 243 q 777 322 742 285 q 831 410 812 360 q 851 518 851 460 q 831 625 851 575 q 777 713 812 676 q 693 773 742 751 q 588 794 645 794 q 482 773 530 794 q 399 713 434 751 q 345 625 364 676 q 326 518 326 575 "},"Ą":{"x_min":27.703125,"x_max":1039.21875,"ha":1063,"o":"m 406 1003 q 411 1012 407 1008 q 420 1021 415 1017 q 432 1028 426 1026 q 444 1031 438 1031 l 622 1031 q 642 1023 634 1031 q 654 1010 650 1016 l 672 971 l 1036 31 q 1034 8 1042 17 q 1008 0 1027 0 l 809 0 q 784 5 793 0 q 770 25 775 11 q 743 96 757 61 q 717 167 730 131 l 348 167 q 321 96 335 131 q 295 25 308 61 q 259 0 286 0 l 54 0 q 32 6 41 0 q 29 27 24 13 l 406 1003 m 533 707 q 506 630 520 671 q 479 548 493 590 q 453 466 466 506 q 426 390 439 425 l 639 390 l 533 707 m 980 15 q 991 -2 989 5 q 994 -18 994 -10 q 983 -53 994 -38 q 957 -81 973 -68 q 924 -104 942 -93 q 890 -126 905 -115 q 864 -148 874 -136 q 854 -175 854 -160 q 972 -249 854 -219 q 980 -264 980 -253 q 972 -289 980 -270 q 954 -327 965 -307 q 930 -361 942 -346 q 907 -377 917 -377 l 904 -377 q 807 -337 851 -361 q 733 -285 764 -313 q 685 -229 702 -257 q 669 -175 669 -200 q 679 -131 669 -150 q 706 -97 690 -111 q 740 -70 722 -82 q 774 -49 758 -59 q 801 -29 790 -39 q 812 -9 812 -20 q 797 15 812 4 l 980 15 "},"T":{"x_min":55.453125,"x_max":868.9375,"ha":925,"o":"m 55 1000 q 64 1022 55 1014 q 88 1031 74 1031 l 835 1031 q 857 1023 848 1031 q 868 1000 867 1015 l 868 828 q 860 804 868 815 q 835 793 851 793 l 596 793 l 596 32 q 586 10 596 20 q 563 0 577 0 l 359 0 q 337 9 347 0 q 327 32 327 18 l 327 793 l 88 793 q 64 801 74 793 q 55 828 55 810 l 55 1000 "},"š":{"x_min":46.84375,"x_max":738.953125,"ha":804,"o":"m 215 274 q 255 242 234 255 q 297 221 277 229 q 333 210 318 213 q 354 206 348 206 q 387 208 367 206 q 427 214 408 209 q 459 231 445 219 q 472 264 472 243 q 465 295 472 284 q 443 314 457 306 q 407 329 428 322 q 359 343 386 335 q 222 397 276 366 q 136 467 168 428 q 92 550 104 505 q 79 643 79 594 q 102 748 79 701 q 168 829 125 795 q 269 881 210 863 q 400 900 328 900 q 482 892 444 900 q 555 869 520 885 q 623 829 590 854 q 688 770 656 804 q 701 744 700 757 q 685 718 701 732 q 633 675 658 696 q 582 627 609 653 q 566 618 574 620 q 550 618 557 616 q 535 625 542 620 q 522 637 528 630 q 467 674 498 664 q 409 683 436 683 q 354 671 375 683 q 336 635 334 659 q 349 607 337 617 q 379 591 361 597 q 417 580 397 584 q 453 572 436 577 q 568 528 516 552 q 658 470 620 504 q 717 388 696 436 q 738 271 738 340 q 711 148 738 202 q 636 57 684 94 q 522 1 588 20 q 381 -18 456 -18 q 293 -10 338 -18 q 207 14 249 -2 q 128 57 165 31 q 61 122 90 84 q 50 143 54 132 q 46 164 46 154 q 51 183 47 175 q 63 198 54 192 l 152 288 q 182 297 169 302 q 215 274 195 293 m 426 951 q 419 946 421 947 q 411 945 416 945 q 397 951 405 945 l 219 1128 q 213 1144 213 1132 q 219 1157 213 1150 l 280 1220 q 299 1228 288 1228 q 314 1221 308 1228 l 411 1123 l 510 1222 q 526 1228 517 1230 q 540 1220 535 1226 l 603 1160 q 607 1152 606 1156 q 609 1144 608 1148 q 607 1135 609 1139 q 603 1129 605 1132 l 426 951 "},"Þ":{"x_min":101,"x_max":858,"ha":916,"o":"m 101 1000 q 108 1021 101 1012 q 131 1031 116 1031 l 301 1031 q 323 1022 313 1031 q 334 1000 334 1014 l 334 858 l 536 858 q 625 844 583 858 q 703 808 667 831 q 767 753 739 785 q 816 684 796 721 q 847 605 836 646 q 858 520 858 563 q 834 397 858 457 q 768 290 810 337 q 668 215 726 244 q 540 186 610 186 l 334 186 l 334 30 q 302 0 334 0 l 131 0 q 101 30 101 0 l 101 1000 m 635 521 q 625 574 635 548 q 597 621 615 600 q 554 653 579 641 q 499 666 529 666 l 334 666 l 334 377 q 401 378 368 378 q 468 378 435 378 l 500 378 q 554 389 529 378 q 597 421 579 401 q 624 467 614 441 q 635 521 635 493 "},"j":{"x_min":-44.453125,"x_max":352.8125,"ha":436,"o":"m 86 827 q 104 868 86 854 q 142 882 121 882 l 300 882 q 338 866 325 882 q 352 827 352 850 l 352 30 q 325 -90 352 -34 q 252 -190 298 -147 q 147 -256 206 -232 q 23 -281 88 -281 l 6 -281 q -31 -265 -18 -279 q -44 -231 -44 -251 l -44 -131 q -28 -91 -44 -106 q 9 -76 -13 -76 l 23 -76 q 49 -64 37 -76 q 69 -36 61 -53 q 82 -1 77 -20 q 86 30 86 16 l 86 827 m 83 1179 q 95 1220 83 1208 q 134 1232 108 1232 l 295 1232 q 335 1220 320 1232 q 350 1179 350 1208 l 350 1043 q 346 1025 350 1035 q 335 1007 342 1016 q 318 992 328 998 q 295 986 308 986 l 134 986 q 83 1043 83 986 l 83 1179 "},"Σ":{"x_min":56.25,"x_max":823.671875,"ha":889,"o":"m 56 840 l 56 999 q 64 1022 56 1013 q 86 1031 72 1031 l 776 1031 q 800 1022 791 1031 q 808 997 808 1013 l 808 826 q 800 803 808 814 q 775 793 791 793 l 374 793 l 594 515 l 374 238 l 792 238 q 823 206 823 238 l 823 31 q 818 19 823 24 q 789 0 815 0 l 86 0 q 64 7 72 0 q 56 29 56 14 l 56 194 l 318 514 l 56 840 "},"1":{"x_min":38.265625,"x_max":433,"ha":521,"o":"m 38 925 q 68 968 38 951 l 163 1015 q 198 1028 181 1026 q 243 1031 215 1031 l 399 1031 q 423 1022 413 1031 q 433 1000 433 1014 l 433 30 q 400 0 433 0 l 203 0 q 179 9 186 0 q 173 29 173 18 l 173 794 l 77 747 q 70 745 74 745 q 66 743 67 746 q 45 753 52 743 q 38 776 38 762 l 38 925 "},"›":{"x_min":65.28125,"x_max":592.40625,"ha":613,"o":"m 581 459 q 592 438 592 449 q 581 417 592 428 l 218 53 q 197 44 209 44 q 177 53 187 44 l 76 152 q 65 177 65 163 q 74 198 65 189 l 312 438 l 74 678 q 68 689 69 684 q 65 700 66 695 q 68 711 66 705 q 75 721 70 717 l 174 822 q 197 831 183 831 q 218 823 211 831 l 581 459 "},"ℓ":{"x_min":78,"x_max":527,"ha":585,"o":"m 527 682 q 518 621 527 649 q 490 562 509 592 q 443 497 472 532 q 373 416 414 462 l 311 343 q 285 303 291 319 q 279 272 279 286 q 286 206 279 230 q 317 178 294 182 l 321 178 q 369 162 351 178 q 388 116 388 146 l 388 46 q 320 -15 388 -8 q 229 9 273 -10 q 152 60 185 28 q 98 135 118 91 q 78 232 78 179 l 78 639 q 91 750 78 701 q 134 835 105 800 q 206 889 162 870 q 310 908 250 908 q 400 889 360 908 q 469 839 440 871 q 512 768 497 808 q 527 682 527 727 m 329 685 q 322 708 329 699 q 304 721 315 717 q 276 676 276 714 l 276 591 l 278 592 q 302 621 292 609 q 318 644 311 633 q 326 664 324 654 q 329 685 329 673 "},"<":{"x_min":38.203125,"x_max":577.828125,"ha":619,"o":"m 412 825 q 433 833 420 833 q 456 824 447 833 l 567 712 q 574 702 572 708 q 577 691 576 696 q 574 680 576 686 q 568 669 572 675 l 341 441 l 568 212 q 577 191 577 201 q 566 167 577 178 l 452 56 q 433 46 444 46 q 411 56 421 46 l 48 420 q 38 440 38 430 q 48 462 38 451 l 412 825 "},"t":{"x_min":31.953125,"x_max":570.1875,"ha":597,"o":"m 136 1019 q 151 1051 136 1041 q 191 1072 165 1062 l 349 1127 q 355 1127 352 1127 q 361 1127 359 1127 q 396 1112 387 1127 q 404 1073 404 1098 l 404 854 l 520 854 q 556 841 542 854 q 570 802 570 828 l 570 668 q 556 625 570 638 q 520 611 542 611 l 404 611 l 404 53 q 389 13 404 27 q 347 0 374 0 l 190 0 q 136 53 136 0 l 136 611 l 85 611 q 31 668 31 611 l 31 802 q 85 854 31 854 l 136 854 l 136 1019 "},"¬":{"x_min":66.640625,"x_max":738,"ha":807,"o":"m 66 519 q 97 550 66 550 l 707 550 q 738 519 738 550 l 738 184 q 729 163 738 172 q 707 154 721 154 l 600 154 q 577 162 589 154 q 566 184 566 170 l 566 379 l 97 379 q 66 412 66 379 l 66 519 "},"ù":{"x_min":83.34375,"x_max":920.21875,"ha":975,"o":"m 902 11 q 883 1 893 4 q 863 0 872 0 l 759 0 q 737 4 746 0 q 722 16 728 8 q 711 33 716 24 q 704 53 707 43 l 683 142 q 653 93 672 121 q 602 42 633 66 q 529 2 572 18 q 432 -14 487 -14 q 288 16 353 -14 q 178 99 224 47 q 108 223 133 152 q 83 373 83 293 l 83 828 q 94 868 83 854 q 131 882 106 882 l 291 882 q 332 871 321 882 q 343 832 343 861 l 343 380 q 357 323 343 350 q 393 276 370 296 q 443 243 415 255 q 500 232 471 232 q 552 243 525 232 q 601 275 579 255 q 638 321 624 295 q 653 378 653 348 l 653 830 q 658 853 653 842 q 671 872 662 865 q 688 879 680 877 q 707 882 696 882 l 863 882 q 907 867 893 882 q 920 828 920 852 l 920 51 q 914 26 920 38 q 897 9 908 15 l 902 11 m 619 1016 q 623 1001 621 1010 q 625 984 625 992 q 621 971 625 977 q 607 966 617 966 l 455 966 q 433 972 441 966 q 417 995 425 979 l 349 1144 q 344 1160 346 1152 q 345 1174 343 1168 q 351 1184 346 1180 q 367 1189 357 1189 l 546 1189 q 569 1182 558 1189 q 583 1159 580 1175 l 619 1016 "},"ĉ":{"x_min":71.25,"x_max":824.09375,"ha":872,"o":"m 662 271 q 681 280 672 278 q 694 281 690 281 q 716 276 706 281 q 736 256 726 272 l 814 138 q 820 126 817 133 q 824 115 824 119 q 814 89 824 99 q 792 71 803 79 q 667 7 735 31 q 524 -16 599 -16 q 403 0 461 -16 q 295 45 345 15 q 203 116 245 74 q 133 208 162 157 q 87 317 103 259 q 71 440 71 376 q 87 563 71 504 q 133 672 103 622 q 203 764 162 723 q 295 834 245 805 q 403 880 345 864 q 524 896 461 896 q 664 875 599 896 q 784 816 728 855 l 782 818 q 806 797 797 809 q 815 766 815 784 q 807 741 815 754 l 745 636 q 698 602 726 602 q 683 605 692 602 q 662 616 674 608 q 597 649 632 636 q 522 662 562 662 q 442 644 478 662 q 379 595 405 626 q 338 525 353 565 q 324 440 324 484 q 338 354 324 394 q 379 285 353 314 q 442 239 405 256 q 522 222 478 222 q 596 235 562 222 q 662 271 631 249 m 517 1251 q 524 1255 522 1254 q 532 1257 527 1257 q 546 1251 538 1257 l 724 1073 q 730 1057 730 1069 q 724 1044 730 1050 l 663 981 q 644 973 655 973 q 628 980 635 973 l 532 1078 l 433 979 q 417 973 426 971 q 403 981 408 975 l 340 1041 q 336 1049 337 1045 q 334 1057 335 1053 q 336 1066 334 1062 q 340 1072 337 1069 l 517 1251 "},"ï":{"x_min":-1,"x_max":496,"ha":495,"o":"m 120 827 q 132 866 120 850 q 171 882 145 882 l 330 882 q 348 878 339 882 q 366 867 358 874 q 381 850 375 859 q 387 827 387 840 l 387 53 q 372 13 387 27 q 330 0 357 0 l 171 0 q 120 53 120 0 l 120 827 m -1 1159 q 28 1189 -1 1189 l 164 1189 q 183 1181 174 1189 q 193 1159 193 1173 l 193 1028 q 185 1005 193 1016 q 164 995 177 995 l 28 995 q -1 1028 -1 995 l -1 1159 m 302 1159 q 332 1189 302 1189 l 466 1189 q 496 1159 496 1189 l 496 1028 q 488 1005 496 1016 q 466 995 480 995 l 332 995 q 302 1028 302 995 l 302 1159 "},"ī":{"x_min":-46.828125,"x_max":542.796875,"ha":495,"o":"m 120 827 q 132 866 120 850 q 171 882 145 882 l 330 882 q 348 878 339 882 q 366 867 358 874 q 381 850 375 859 q 387 827 387 840 l 387 53 q 372 13 387 27 q 330 0 357 0 l 171 0 q 120 53 120 0 l 120 827 m -46 1156 q -22 1181 -46 1181 l 518 1181 q 535 1175 528 1181 q 542 1156 542 1169 l 542 1049 q 536 1031 542 1041 q 518 1022 530 1022 l -22 1022 q -46 1049 -46 1022 l -46 1156 "},"Ò":{"x_min":64,"x_max":1127,"ha":1185,"o":"m 333 515 q 352 407 333 457 q 406 320 371 357 q 489 262 441 283 q 595 241 537 241 q 700 262 652 241 q 784 320 749 283 q 838 407 819 357 q 858 515 858 457 q 838 622 858 572 q 784 710 819 672 q 700 769 749 747 q 595 791 652 791 q 489 769 537 791 q 406 710 441 747 q 352 622 371 672 q 333 515 333 572 m 64 514 q 82 656 64 588 q 136 783 101 724 q 219 891 171 842 q 326 974 267 940 q 453 1027 385 1008 q 595 1047 521 1047 q 736 1027 668 1047 q 863 974 804 1008 q 971 891 922 940 q 1054 783 1019 842 q 1107 656 1088 724 q 1127 514 1127 588 q 1107 373 1127 441 q 1054 247 1088 305 q 971 140 1019 188 q 863 57 922 91 q 736 3 804 22 q 595 -15 668 -15 q 453 3 521 -15 q 326 57 385 22 q 219 140 267 91 q 136 247 171 188 q 82 373 101 305 q 64 514 64 441 m 674 1167 q 678 1152 676 1161 q 680 1135 680 1143 q 676 1122 680 1128 q 662 1117 672 1117 l 510 1117 q 488 1123 496 1117 q 472 1146 480 1130 l 404 1295 q 399 1311 401 1303 q 400 1325 398 1319 q 406 1335 401 1331 q 422 1340 412 1340 l 601 1340 q 624 1333 613 1340 q 638 1310 635 1326 l 674 1167 "},"Ď":{"x_min":101,"x_max":1005,"ha":1074,"o":"m 1005 514 q 986 374 1005 441 q 932 251 967 308 q 849 147 898 193 q 742 68 801 100 q 616 17 684 35 q 475 0 548 0 l 132 0 q 110 5 120 0 q 101 29 101 11 l 101 999 q 108 1022 101 1013 q 132 1032 116 1032 l 475 1032 q 615 1013 548 1032 q 742 962 683 995 q 849 882 800 929 q 932 778 898 836 q 985 654 966 720 q 1005 514 1005 587 m 370 783 l 370 249 l 428 249 q 459 250 444 249 q 490 252 474 251 q 587 277 542 256 q 666 333 632 299 q 718 414 699 367 q 738 515 738 460 q 716 622 738 573 q 656 707 694 671 q 568 763 619 743 q 461 783 518 783 l 370 783 m 490 1101 q 483 1096 485 1097 q 475 1095 480 1095 q 461 1101 469 1095 l 283 1278 q 277 1294 277 1282 q 283 1307 277 1300 l 344 1370 q 363 1378 352 1378 q 378 1371 372 1378 l 475 1273 l 574 1372 q 590 1378 581 1380 q 604 1370 599 1376 l 667 1310 q 671 1302 670 1306 q 673 1294 672 1298 q 671 1285 673 1289 q 667 1279 669 1282 l 490 1101 "},"&":{"x_min":73,"x_max":1199.828125,"ha":1247,"o":"m 904 499 q 913 498 906 498 q 950 509 933 498 q 976 540 967 520 q 984 551 981 544 q 986 563 986 558 q 996 583 990 576 q 1013 590 1003 590 q 1019 590 1017 590 l 1174 559 q 1191 548 1183 559 q 1199 526 1199 537 q 1199 519 1199 521 q 1165 420 1190 465 q 1103 345 1140 376 q 1022 296 1067 314 q 928 279 977 279 q 883 283 906 279 l 838 292 q 814 178 833 226 q 767 96 796 131 q 701 41 738 62 q 622 8 664 20 q 535 -7 580 -2 q 445 -12 489 -12 q 302 12 370 -12 q 183 80 234 36 q 102 184 132 124 q 73 315 73 244 q 83 407 73 368 q 112 479 93 447 q 156 536 130 511 q 214 583 182 561 q 162 662 182 616 q 142 762 142 708 q 166 873 142 822 q 232 963 191 925 q 327 1022 273 1000 q 438 1044 380 1044 q 549 1028 496 1044 q 644 979 603 1013 q 709 891 685 945 q 734 757 734 836 q 724 733 734 741 q 702 724 715 724 q 631 724 667 724 q 559 724 595 724 q 530 750 530 724 q 526 782 530 767 q 513 806 522 796 q 489 823 504 817 q 452 829 474 829 q 411 820 426 829 q 386 798 395 811 q 375 770 378 785 q 372 743 372 755 q 375 721 372 736 q 388 691 379 707 q 411 662 397 676 q 447 645 426 649 q 472 617 472 641 q 471 609 472 612 l 444 479 q 434 460 442 466 q 417 455 426 455 q 407 456 412 455 q 397 456 402 456 q 361 445 375 456 q 338 417 346 433 q 327 384 330 401 q 324 356 324 367 q 329 310 324 335 q 351 264 335 285 q 393 229 366 243 q 461 215 420 215 q 513 222 488 215 q 557 246 538 230 q 589 285 577 262 q 603 338 601 308 l 562 346 q 546 357 552 349 q 540 374 540 365 q 541 381 540 380 q 555 457 548 419 q 571 534 563 494 q 580 551 573 545 q 597 558 587 558 q 603 557 602 558 l 904 499 "},"˝":{"x_min":67.359375,"x_max":657.84375,"ha":716,"o":"m 136 1152 q 173 1182 150 1182 l 320 1182 q 337 1177 332 1182 q 343 1167 343 1173 q 342 1153 344 1161 q 336 1137 339 1145 l 275 995 q 258 972 266 979 q 237 966 250 966 l 85 966 q 67 981 67 966 q 68 993 67 986 q 73 1006 68 999 l 136 1152 m 450 1152 q 487 1182 463 1182 l 634 1182 q 651 1177 646 1182 q 657 1167 657 1173 q 655 1153 658 1161 q 650 1137 653 1145 l 588 995 q 572 972 580 979 q 551 966 564 966 l 399 966 q 381 981 381 966 q 381 993 381 986 q 387 1006 382 999 l 450 1152 "},"I":{"x_min":114,"x_max":383,"ha":495,"o":"m 114 1000 q 121 1021 114 1012 q 144 1031 129 1031 l 348 1031 q 371 1022 359 1031 q 383 1000 383 1014 l 383 30 q 348 0 383 0 l 144 0 q 114 30 114 0 l 114 1000 "},"G":{"x_min":75,"x_max":953,"ha":1043,"o":"m 762 741 q 687 780 727 766 q 601 794 646 794 q 495 772 543 794 q 413 712 447 750 q 359 624 378 675 q 340 517 340 574 q 359 410 340 460 q 413 323 378 360 q 495 264 447 286 q 600 243 543 243 q 649 246 625 243 q 700 255 672 249 l 700 437 q 707 459 700 450 q 730 468 715 468 l 919 468 q 941 459 929 468 q 953 437 953 451 l 953 101 q 932 70 953 82 q 860 32 900 48 q 778 5 821 16 q 690 -9 735 -4 q 605 -15 646 -15 q 464 3 531 -15 q 337 57 396 22 q 230 140 278 91 q 147 247 181 188 q 93 373 112 305 q 75 514 75 441 q 93 656 75 588 q 147 783 112 724 q 230 891 182 842 q 337 974 278 940 q 464 1027 396 1008 q 606 1047 532 1047 q 763 1023 689 1047 q 902 956 837 1000 q 920 938 914 949 q 917 912 926 927 l 805 750 q 787 735 796 739 q 762 741 778 731 "},"`":{"x_min":50.078125,"x_max":331.28125,"ha":383,"o":"m 325 1016 q 329 1001 327 1010 q 331 984 331 992 q 327 971 331 977 q 313 966 323 966 l 161 966 q 139 972 147 966 q 123 995 131 979 l 55 1144 q 50 1160 52 1152 q 51 1174 49 1168 q 57 1184 52 1180 q 73 1189 63 1189 l 252 1189 q 275 1182 264 1189 q 289 1159 286 1175 l 325 1016 "},"·":{"x_min":84,"x_max":330,"ha":415,"o":"m 84 522 q 91 544 84 536 q 114 553 99 553 l 298 553 q 319 544 309 553 q 330 522 330 536 l 330 354 q 322 331 330 341 q 298 322 314 322 l 114 322 q 84 354 84 322 l 84 522 "},"ŏ":{"x_min":73.25,"x_max":985.140625,"ha":1055,"o":"m 73 440 q 89 563 73 504 q 135 672 105 622 q 206 764 164 723 q 298 834 247 805 q 407 880 348 864 q 530 896 466 896 q 707 860 624 896 q 852 764 790 825 q 949 619 913 702 q 985 440 985 536 q 968 317 985 376 q 922 208 952 259 q 852 116 893 157 q 760 45 810 74 q 651 0 709 15 q 530 -16 593 -16 q 407 0 466 -16 q 298 45 348 15 q 206 116 247 74 q 135 208 164 157 q 89 317 105 259 q 73 440 73 376 m 326 440 q 340 354 326 394 q 381 285 355 314 q 444 239 407 256 q 528 222 481 222 q 609 239 573 222 q 671 285 646 256 q 710 354 696 314 q 724 440 724 394 q 710 525 724 484 q 671 595 696 565 q 609 644 646 626 q 528 662 573 662 q 444 644 481 662 q 381 595 407 626 q 340 525 355 565 q 326 440 326 484 m 525 981 q 449 996 484 981 q 389 1035 414 1011 q 348 1091 363 1060 q 334 1155 334 1121 q 342 1174 334 1167 q 360 1181 350 1181 l 460 1181 q 472 1176 468 1181 q 476 1165 476 1171 q 489 1136 476 1149 q 528 1124 501 1124 q 564 1137 551 1124 q 577 1165 577 1150 q 580 1176 577 1171 q 592 1181 584 1181 l 693 1181 q 711 1174 703 1181 q 719 1155 719 1167 q 704 1090 719 1121 q 663 1034 689 1058 q 601 996 637 1010 q 525 981 566 981 "},"¿":{"x_min":44.1875,"x_max":742.015625,"ha":779,"o":"m 270 428 q 271 471 270 455 q 278 495 273 487 q 294 505 284 503 q 320 507 304 507 l 483 507 q 506 497 498 507 q 515 473 515 486 q 514 413 515 436 q 510 374 512 389 q 505 349 508 358 q 496 330 501 339 q 452 276 476 299 q 403 234 428 253 q 354 199 378 215 q 312 163 330 182 q 282 120 293 144 q 271 63 271 96 q 280 20 271 41 q 306 -16 290 0 q 345 -41 323 -32 q 390 -50 366 -50 q 435 -41 414 -50 q 473 -14 457 -31 q 500 23 490 2 q 510 67 510 45 l 510 83 q 518 100 510 95 q 539 107 526 106 q 565 108 551 108 q 591 107 580 107 l 711 107 q 735 98 728 107 q 742 79 742 88 l 742 56 q 713 -77 742 -16 q 636 -182 684 -138 q 524 -250 588 -226 q 391 -274 461 -274 q 257 -248 320 -274 q 146 -177 194 -223 q 71 -69 98 -132 q 44 65 44 -7 q 60 175 44 131 q 102 249 77 219 q 157 298 128 279 q 211 337 186 318 q 253 376 236 355 q 270 428 270 397 m 513 682 q 505 660 513 668 q 482 652 497 652 l 299 652 q 278 660 288 652 q 268 682 268 668 l 268 851 q 276 873 268 863 q 300 883 284 883 l 483 883 q 514 851 514 883 l 513 682 "},"ý":{"x_min":24.21875,"x_max":962.90625,"ha":986,"o":"m 29 815 q 29 863 18 843 q 77 883 40 883 l 248 883 q 277 872 266 883 q 293 845 288 861 l 490 286 l 682 845 q 702 875 690 867 q 734 883 713 883 l 913 883 q 943 877 932 883 q 959 863 954 872 q 962 844 963 855 q 957 823 961 833 q 899 680 930 758 q 834 519 868 603 q 766 349 800 435 q 698 179 731 262 q 634 19 665 96 q 578 -121 604 -57 q 534 -234 553 -185 q 506 -309 516 -283 l 508 -305 q 491 -336 503 -324 q 460 -347 478 -347 l 300 -347 q 257 -335 268 -347 q 245 -299 245 -323 q 248 -285 245 -290 q 252 -279 250 -280 l 361 3 l 29 815 m 435 1159 q 450 1182 439 1175 q 472 1189 460 1189 l 651 1189 q 667 1184 662 1189 q 674 1174 672 1180 q 674 1160 676 1168 q 669 1144 673 1152 l 601 995 q 585 972 593 979 q 564 966 577 966 l 412 966 q 398 971 401 966 q 394 984 394 977 q 396 1001 394 992 q 399 1016 398 1010 l 435 1159 "},"º":{"x_min":72,"x_max":622,"ha":710,"o":"m 72 767 q 93 874 72 824 q 152 962 115 925 q 239 1022 189 1000 q 346 1044 289 1044 q 453 1022 403 1044 q 541 962 504 1000 q 600 874 579 925 q 622 767 622 824 q 600 660 622 710 q 541 572 579 610 q 453 513 504 535 q 346 492 403 492 q 239 513 289 492 q 152 572 189 535 q 93 660 115 610 q 72 767 72 710 m 246 767 q 253 727 246 746 q 275 695 261 709 q 306 674 288 682 q 345 666 324 666 q 384 674 366 666 q 416 695 403 682 q 438 727 430 709 q 446 767 446 746 q 438 806 446 787 q 417 838 430 824 q 385 859 403 851 q 345 868 367 868 q 306 859 324 868 q 275 838 288 851 q 253 806 261 824 q 246 767 246 787 "},"∞":{"x_min":71,"x_max":826,"ha":896,"o":"m 71 363 q 90 444 71 406 q 140 511 109 482 q 210 556 171 539 q 291 573 250 573 q 352 565 328 573 q 392 546 375 557 q 421 520 409 534 q 448 495 434 507 q 477 520 464 507 q 507 546 491 534 q 547 565 524 557 q 605 573 571 573 q 687 556 647 573 q 757 511 727 539 q 807 444 788 482 q 826 363 826 406 q 807 282 826 320 q 757 215 788 244 q 687 170 727 187 q 605 154 647 154 q 545 161 569 154 q 506 181 522 169 q 476 207 489 192 q 448 233 464 221 q 422 207 434 221 q 394 181 410 192 q 354 161 378 169 q 291 154 330 154 q 210 170 250 154 q 140 215 171 187 q 90 282 109 244 q 71 363 71 320 m 197 363 q 204 326 197 343 q 224 297 211 309 q 255 277 238 284 q 293 270 272 270 q 331 277 313 270 q 361 297 348 284 q 382 326 374 309 q 390 363 390 343 q 382 400 390 383 q 361 429 374 417 q 331 450 348 442 q 293 458 313 458 q 255 450 272 458 q 224 429 238 442 q 204 400 211 417 q 197 363 197 383 m 509 363 q 516 326 509 343 q 536 297 523 309 q 567 277 549 284 q 604 270 584 270 q 642 277 624 270 q 672 297 660 284 q 693 326 685 309 q 701 363 701 343 q 693 400 701 383 q 672 429 685 417 q 642 450 660 442 q 604 458 624 458 q 567 450 584 458 q 536 429 549 442 q 516 400 523 417 q 509 363 509 383 "},"ź":{"x_min":60.859375,"x_max":784.53125,"ha":876,"o":"m 81 831 q 95 870 81 855 q 136 885 110 885 l 721 885 q 760 871 743 885 q 777 831 777 858 l 777 710 q 776 695 777 704 q 769 679 775 687 l 386 225 l 729 225 q 769 211 754 225 q 784 168 784 197 l 784 59 q 780 38 784 49 q 769 19 776 27 q 752 5 762 10 q 729 0 742 0 l 117 0 q 95 5 106 0 q 77 18 85 10 q 65 37 69 27 q 60 59 60 48 l 60 155 q 62 174 60 165 q 72 193 64 183 q 170 304 119 244 q 273 426 221 364 q 376 548 325 488 q 474 661 428 609 l 136 661 q 95 675 110 661 q 81 718 81 688 l 81 831 m 397 1159 q 412 1182 401 1175 q 434 1189 422 1189 l 613 1189 q 629 1184 624 1189 q 636 1174 634 1180 q 636 1160 638 1168 q 631 1144 635 1152 l 563 995 q 547 972 555 979 q 526 966 539 966 l 374 966 q 360 971 363 966 q 356 984 356 977 q 358 1001 356 992 q 361 1016 360 1010 l 397 1159 "},"ű":{"x_min":83.34375,"x_max":920.21875,"ha":975,"o":"m 902 11 q 883 1 893 4 q 863 0 872 0 l 759 0 q 737 4 746 0 q 722 16 728 8 q 711 33 716 24 q 704 53 707 43 l 683 142 q 653 93 672 121 q 602 42 633 66 q 529 2 572 18 q 432 -14 487 -14 q 288 16 353 -14 q 178 99 224 47 q 108 223 133 152 q 83 373 83 293 l 83 828 q 94 868 83 854 q 131 882 106 882 l 291 882 q 332 871 321 882 q 343 832 343 861 l 343 380 q 357 323 343 350 q 393 276 370 296 q 443 243 415 255 q 500 232 471 232 q 552 243 525 232 q 601 275 579 255 q 638 321 624 295 q 653 378 653 348 l 653 830 q 658 853 653 842 q 671 872 662 865 q 688 879 680 877 q 707 882 696 882 l 863 882 q 907 867 893 882 q 920 828 920 852 l 920 51 q 914 26 920 38 q 897 9 908 15 l 902 11 m 301 1159 q 338 1189 315 1189 l 485 1189 q 502 1184 497 1189 q 508 1174 508 1180 q 507 1160 509 1168 q 501 1144 504 1152 l 440 1002 q 423 979 431 986 q 402 973 415 973 l 250 973 q 232 988 232 973 q 233 1000 232 993 q 238 1013 233 1006 l 301 1159 m 615 1159 q 652 1189 628 1189 l 799 1189 q 816 1184 811 1189 q 822 1174 822 1180 q 820 1160 823 1168 q 815 1144 818 1152 l 753 1002 q 737 979 745 986 q 716 973 729 973 l 564 973 q 546 988 546 973 q 546 1000 546 993 q 552 1013 547 1006 l 615 1159 "},"Ǽ":{"x_min":20.140625,"x_max":1447.34375,"ha":1529,"o":"m 583 1003 q 601 1021 588 1012 q 627 1031 613 1031 l 1389 1031 q 1412 1022 1404 1031 q 1420 997 1420 1013 l 1420 826 q 1412 803 1420 814 q 1388 793 1404 793 l 897 793 l 929 617 q 1118 617 1025 617 q 1307 618 1211 617 q 1328 611 1320 618 q 1337 590 1337 604 l 1337 440 q 1329 422 1337 431 q 1307 413 1322 413 l 964 413 l 996 238 l 1416 238 q 1440 230 1432 238 q 1447 206 1447 222 l 1447 31 q 1437 8 1447 17 q 1414 0 1427 0 l 799 0 q 766 25 770 0 q 753 96 759 61 q 742 167 747 131 l 381 167 l 302 25 q 261 0 286 0 l 42 0 q 20 14 20 0 q 23 27 20 18 q 247 421 107 177 q 583 1003 387 665 m 504 390 l 710 390 l 661 666 l 504 390 m 677 1308 q 692 1331 681 1324 q 714 1338 702 1338 l 893 1338 q 909 1333 904 1338 q 916 1323 914 1329 q 916 1309 918 1317 q 911 1293 915 1301 l 843 1144 q 827 1121 835 1128 q 806 1115 819 1115 l 654 1115 q 640 1120 643 1115 q 636 1133 636 1126 q 638 1150 636 1141 q 641 1165 640 1159 l 677 1308 "},"ń":{"x_min":83.34375,"x_max":920.21875,"ha":976,"o":"m 101 870 q 120 880 110 878 q 139 882 130 882 l 244 882 q 265 877 256 882 q 281 865 275 873 q 291 848 287 857 q 298 828 295 838 l 320 739 q 350 788 330 760 q 400 839 370 815 q 473 879 431 863 q 570 896 515 896 q 714 865 650 896 q 824 782 779 835 q 895 659 870 729 q 920 509 920 588 l 920 54 q 908 14 920 27 q 872 0 897 0 l 711 0 q 670 10 682 0 q 659 49 659 20 l 659 502 q 646 558 659 531 q 610 605 632 585 q 560 638 588 626 q 502 650 531 650 q 451 638 477 650 q 403 607 425 627 q 367 561 381 588 q 350 503 352 534 l 350 52 q 345 28 350 40 q 331 10 341 16 q 314 2 322 4 q 296 0 306 0 l 139 0 q 96 15 109 0 q 83 54 83 29 l 83 830 q 89 855 83 844 q 105 872 95 866 l 101 870 m 464 1159 q 479 1182 468 1175 q 501 1189 489 1189 l 680 1189 q 696 1184 691 1189 q 703 1174 701 1180 q 703 1160 705 1168 q 698 1144 702 1152 l 630 995 q 614 972 622 979 q 593 966 606 966 l 441 966 q 427 971 430 966 q 423 984 423 977 q 425 1001 423 992 q 428 1016 427 1010 l 464 1159 "},"Ș":{"x_min":52.1875,"x_max":857,"ha":911,"o":"m 241 333 q 271 307 253 323 q 314 275 290 290 q 384 238 349 251 q 457 225 418 225 q 516 232 492 225 q 554 254 540 240 q 574 284 568 267 q 580 321 580 301 q 563 359 580 342 q 523 390 547 376 q 474 412 500 403 q 430 428 448 421 q 284 490 346 457 q 180 565 221 524 q 117 656 138 607 q 97 767 97 706 q 123 884 97 831 q 197 974 149 937 q 313 1032 245 1012 q 465 1053 381 1053 q 586 1038 528 1053 q 700 993 644 1024 q 745 964 724 979 q 782 935 766 949 q 808 909 798 921 q 817 887 817 896 q 812 871 817 878 q 799 853 808 863 l 693 740 q 669 728 681 728 q 651 734 659 728 q 634 748 643 739 l 627 753 q 597 778 614 765 q 560 800 579 790 q 519 817 541 810 q 475 824 498 824 q 432 820 452 824 q 397 808 412 816 q 373 786 382 799 q 364 753 364 772 q 373 719 364 733 q 402 693 383 705 q 451 670 422 681 q 518 647 479 659 q 653 596 591 622 q 761 532 716 569 q 831 445 806 496 q 857 322 857 395 q 825 184 857 246 q 740 78 794 122 q 611 10 685 34 q 453 -13 538 -13 q 296 15 373 -13 q 152 92 219 44 q 106 131 125 112 q 75 163 86 151 l 73 165 q 72 166 73 166 q 70 167 71 167 q 69 169 70 169 q 68 170 68 170 q 52 198 52 188 q 68 225 52 210 l 188 339 q 211 350 202 350 q 225 345 218 350 q 241 333 232 341 m 332 -176 q 339 -156 332 -164 q 359 -149 346 -149 l 523 -149 q 543 -156 534 -149 q 553 -176 553 -163 l 553 -354 q 522 -464 553 -412 q 435 -549 492 -515 q 426 -550 434 -550 q 413 -547 417 -550 q 404 -542 408 -545 l 361 -505 q 352 -495 354 -500 q 349 -485 349 -490 q 358 -469 349 -476 q 376 -451 366 -461 q 395 -428 387 -441 q 404 -395 404 -414 l 404 -368 q 392 -355 404 -357 l 357 -355 q 332 -327 332 -354 l 332 -176 "},";":{"x_min":90,"x_max":340,"ha":424,"o":"m 90 200 q 97 222 90 214 q 120 231 105 231 l 304 231 q 326 222 316 231 q 337 200 337 214 l 337 1 q 302 -122 337 -64 q 205 -216 268 -180 q 196 -218 203 -218 q 180 -215 186 -218 q 171 -208 174 -213 l 123 -168 q 113 -157 115 -162 q 110 -145 110 -151 q 119 -127 110 -136 q 140 -107 129 -118 q 161 -80 152 -95 q 171 -45 171 -65 l 171 -14 q 158 0 171 -1 l 118 0 q 90 30 90 1 l 90 200 m 94 752 q 101 774 94 766 q 124 783 109 783 l 308 783 q 329 774 319 783 q 340 752 340 766 l 340 584 q 332 561 340 571 q 308 552 324 552 l 124 552 q 94 584 94 552 l 94 752 "},"Ġ":{"x_min":75,"x_max":953,"ha":1043,"o":"m 762 741 q 687 780 727 766 q 601 794 646 794 q 495 772 543 794 q 413 712 447 750 q 359 624 378 675 q 340 517 340 574 q 359 410 340 460 q 413 323 378 360 q 495 264 447 286 q 600 243 543 243 q 649 246 625 243 q 700 255 672 249 l 700 437 q 707 459 700 450 q 730 468 715 468 l 919 468 q 941 459 929 468 q 953 437 953 451 l 953 101 q 932 70 953 82 q 860 32 900 48 q 778 5 821 16 q 690 -9 735 -4 q 605 -15 646 -15 q 464 3 531 -15 q 337 57 396 22 q 230 140 278 91 q 147 247 181 188 q 93 373 112 305 q 75 514 75 441 q 93 656 75 588 q 147 783 112 724 q 230 891 182 842 q 337 974 278 940 q 464 1027 396 1008 q 606 1047 532 1047 q 763 1023 689 1047 q 902 956 837 1000 q 920 938 914 949 q 917 912 926 927 l 805 750 q 787 735 796 739 q 762 741 778 731 m 497 1309 q 526 1339 497 1339 l 662 1339 q 681 1331 672 1339 q 691 1309 691 1323 l 691 1178 q 683 1155 691 1166 q 662 1145 675 1145 l 526 1145 q 497 1178 497 1145 l 497 1309 "},"6":{"x_min":64,"x_max":791,"ha":860,"o":"m 67 297 q 64 321 65 309 q 64 345 64 333 q 108 514 64 436 q 110 518 109 515 q 120 534 112 520 q 145 578 128 548 q 192 661 161 607 q 268 797 222 715 q 382 1000 314 880 q 400 1023 389 1015 q 427 1031 410 1031 l 625 1031 q 652 1015 652 1031 q 650 1005 652 1012 q 647 997 649 999 q 605 922 623 954 q 571 864 586 890 q 544 816 557 838 q 521 774 532 794 q 497 733 509 754 q 472 687 486 712 q 597 650 538 679 q 698 574 655 620 q 766 467 741 527 q 791 338 791 407 q 762 201 791 265 q 684 89 734 136 q 569 14 635 41 q 427 -13 502 -13 q 295 9 357 -13 q 184 73 232 32 q 104 171 135 114 q 67 297 73 228 m 307 337 q 315 285 307 309 q 338 244 323 262 q 375 217 354 227 q 424 208 397 208 q 473 217 451 208 q 510 244 495 227 q 533 285 525 262 q 542 337 542 309 q 533 387 542 364 q 510 429 525 411 q 473 457 495 446 q 424 467 451 467 q 375 457 397 467 q 338 429 354 446 q 315 387 323 411 q 307 337 307 364 "},"ά":{"x_min":71.953125,"x_max":1006.046875,"ha":1090,"o":"m 1006 51 q 1001 28 1006 39 q 988 11 997 17 q 969 1 980 4 q 951 0 959 0 l 815 0 q 791 3 800 0 q 776 14 782 7 q 767 31 771 21 q 759 53 763 41 l 739 105 q 698 65 720 86 q 649 26 676 44 q 591 -3 622 8 q 524 -16 560 -16 q 403 0 461 -16 q 295 45 345 15 q 203 116 244 74 q 133 208 162 157 q 87 317 103 259 q 71 440 71 376 q 107 619 71 536 q 203 764 142 702 q 347 860 265 825 q 524 896 430 896 q 603 883 567 896 q 669 849 640 870 q 723 802 699 828 q 765 748 747 775 l 792 832 q 804 860 799 849 q 814 876 808 871 q 826 883 819 881 q 848 885 834 885 l 951 885 q 969 882 959 885 q 988 873 980 880 q 1001 855 997 865 q 1006 833 1006 846 l 1006 51 m 321 440 q 336 354 321 394 q 376 285 350 314 q 440 239 403 256 q 522 222 477 222 q 609 239 569 222 q 678 285 649 256 q 724 354 708 314 q 741 440 741 394 q 724 525 741 484 q 678 595 708 565 q 609 644 649 626 q 522 662 569 662 q 440 644 477 662 q 376 595 403 626 q 336 525 350 565 q 321 440 321 484 m 369 773 q 346 781 355 774 q 337 803 337 788 l 314 1008 q 319 1026 312 1019 q 338 1033 326 1033 l 491 1033 q 512 1025 504 1033 q 517 1003 520 1017 l 496 803 q 486 782 495 791 q 466 773 478 773 l 369 773 l 369 773 "},"n":{"x_min":83.34375,"x_max":920.21875,"ha":1004,"o":"m 101 870 q 120 880 110 878 q 139 882 130 882 l 244 882 q 265 877 256 882 q 281 865 275 873 q 291 848 287 857 q 298 828 295 838 l 320 739 q 350 788 330 760 q 400 839 370 815 q 473 879 431 863 q 570 896 515 896 q 714 865 650 896 q 824 782 779 835 q 895 659 870 729 q 920 509 920 588 l 920 54 q 908 14 920 27 q 872 0 897 0 l 711 0 q 670 10 682 0 q 659 49 659 20 l 659 502 q 646 558 659 531 q 610 605 632 585 q 560 638 588 626 q 502 650 531 650 q 451 638 477 650 q 403 607 425 627 q 367 561 381 588 q 350 503 352 534 l 350 52 q 345 28 350 40 q 331 10 341 16 q 314 2 322 4 q 296 0 306 0 l 139 0 q 96 15 109 0 q 83 54 83 29 l 83 830 q 89 855 83 844 q 105 872 95 866 l 101 870 "},"ģ":{"x_min":74.5,"x_max":984,"ha":1067,"o":"m 721 30 q 729 83 729 53 q 728 145 728 114 q 687 99 708 123 q 641 55 666 75 q 584 21 616 34 q 509 8 552 8 q 336 40 416 8 q 198 129 256 72 q 107 266 139 187 q 74 442 74 346 q 107 620 74 537 q 198 765 139 703 q 336 861 256 826 q 509 897 416 897 q 587 883 553 897 q 649 849 621 870 q 701 802 678 828 q 745 751 724 776 l 771 833 q 779 855 776 845 q 788 871 782 864 q 802 881 794 878 q 825 885 811 885 l 929 885 q 946 882 936 885 q 964 873 956 880 q 979 856 974 865 q 984 833 984 847 l 984 126 q 948 -66 984 18 q 851 -209 913 -151 q 705 -298 789 -267 q 525 -328 621 -328 q 444 -322 487 -328 q 358 -302 401 -315 q 276 -268 316 -289 q 205 -221 236 -248 q 191 -206 197 -215 q 182 -188 184 -198 q 182 -165 180 -177 q 193 -140 184 -153 l 259 -49 q 293 -28 278 -29 q 334 -44 309 -26 q 374 -71 351 -61 q 420 -87 396 -81 q 467 -95 444 -93 q 509 -97 491 -97 q 575 -88 541 -97 q 638 -64 609 -80 q 690 -24 668 -47 q 721 30 713 0 m 324 442 q 338 356 324 396 q 379 287 353 316 q 442 241 405 258 q 525 224 480 224 q 608 240 569 224 q 677 283 648 256 q 724 349 706 311 q 744 430 741 386 l 744 453 q 724 533 741 495 q 677 600 706 571 q 608 645 648 628 q 525 663 569 663 q 442 645 480 663 q 379 597 405 627 q 338 527 353 567 q 324 442 324 487 m 628 1070 q 620 1048 628 1056 q 597 1040 612 1040 l 429 1040 q 407 1048 417 1040 q 397 1070 397 1056 l 397 1220 q 399 1279 397 1250 q 433 1379 403 1333 q 517 1456 462 1424 q 522 1458 517 1456 q 532 1460 526 1459 q 542 1463 537 1462 q 548 1464 547 1464 q 557 1461 553 1464 q 565 1454 560 1458 l 591 1433 q 605 1419 603 1425 q 607 1408 607 1413 q 598 1390 607 1400 q 577 1368 588 1381 q 556 1338 565 1354 q 547 1300 547 1321 l 547 1269 q 559 1255 547 1257 l 599 1255 q 620 1246 613 1255 q 628 1224 628 1238 l 628 1070 "},"¤":{"x_min":62.140625,"x_max":685.953125,"ha":749,"o":"m 303 347 q 323 296 303 316 q 374 276 343 276 q 425 296 405 276 q 446 347 446 316 q 425 398 446 378 q 374 419 405 419 q 323 398 343 419 q 303 347 303 378 m 178 646 q 203 659 191 659 q 229 646 217 659 l 287 587 q 334 598 312 594 q 373 602 355 602 q 412 598 391 602 q 458 588 433 594 l 517 646 q 528 654 522 652 q 540 658 535 657 q 567 645 557 658 l 672 541 q 681 529 677 535 q 684 513 684 522 q 672 490 684 501 l 614 430 q 624 387 620 407 q 629 350 629 366 q 625 308 629 329 q 615 261 622 286 l 673 202 q 685 178 685 188 q 683 163 685 170 q 672 152 680 157 q 624 104 648 128 q 576 56 601 80 q 562 43 569 49 q 542 38 554 38 q 524 43 532 38 q 509 55 516 48 l 458 104 q 373 91 408 91 q 333 94 355 91 q 287 104 312 98 l 228 46 q 204 35 217 35 q 190 37 196 35 q 178 47 183 39 l 170 54 q 122 102 146 78 q 73 151 98 127 q 64 162 67 156 q 62 176 62 168 q 73 202 62 191 l 80 210 q 105 235 93 222 q 131 261 118 248 q 121 306 125 285 q 117 346 117 326 q 121 384 117 362 q 131 430 125 406 q 111 450 122 439 q 88 472 99 460 q 70 494 78 483 q 62 513 63 505 q 65 528 63 521 q 74 542 68 536 l 178 646 "},"∂":{"x_min":0,"x_max":0,"ha":778},"Ĝ":{"x_min":75,"x_max":953,"ha":1043,"o":"m 762 741 q 687 780 727 766 q 601 794 646 794 q 495 772 543 794 q 413 712 447 750 q 359 624 378 675 q 340 517 340 574 q 359 410 340 460 q 413 323 378 360 q 495 264 447 286 q 600 243 543 243 q 649 246 625 243 q 700 255 672 249 l 700 437 q 707 459 700 450 q 730 468 715 468 l 919 468 q 941 459 929 468 q 953 437 953 451 l 953 101 q 932 70 953 82 q 860 32 900 48 q 778 5 821 16 q 690 -9 735 -4 q 605 -15 646 -15 q 464 3 531 -15 q 337 57 396 22 q 230 140 278 91 q 147 247 181 188 q 93 373 112 305 q 75 514 75 441 q 93 656 75 588 q 147 783 112 724 q 230 891 182 842 q 337 974 278 940 q 464 1027 396 1008 q 606 1047 532 1047 q 763 1023 689 1047 q 902 956 837 1000 q 920 938 914 949 q 917 912 926 927 l 805 750 q 787 735 796 739 q 762 741 778 731 m 578 1377 q 585 1381 583 1380 q 593 1383 588 1383 q 607 1377 599 1383 l 785 1199 q 791 1183 791 1195 q 785 1170 791 1176 l 724 1107 q 705 1099 716 1099 q 689 1106 696 1099 l 593 1204 l 494 1105 q 478 1099 487 1097 q 464 1107 469 1101 l 401 1167 q 397 1175 398 1171 q 395 1183 396 1179 q 397 1192 395 1188 q 401 1198 398 1195 l 578 1377 "},"p":{"x_min":83.953125,"x_max":1004.609375,"ha":1061,"o":"m 102 873 q 120 882 111 880 q 139 885 130 885 l 243 885 q 265 880 256 885 q 279 869 274 876 q 289 852 285 862 q 296 832 292 843 l 325 748 q 364 799 344 773 q 411 847 384 825 q 476 882 438 868 q 567 896 513 896 q 743 860 662 896 q 881 764 823 825 q 971 619 939 702 q 1004 440 1004 536 q 971 261 1004 344 q 881 116 939 177 q 743 19 823 54 q 567 -16 662 -16 q 489 -5 522 -16 q 432 22 457 5 q 387 61 406 40 q 349 102 367 81 l 349 -220 q 336 -256 349 -241 q 297 -270 324 -270 l 139 -270 q 121 -267 131 -270 q 103 -257 111 -264 q 89 -242 95 -251 q 83 -220 83 -232 l 83 833 q 89 856 83 847 q 102 873 94 865 m 750 440 q 735 524 750 484 q 694 594 720 564 q 631 641 668 624 q 550 659 594 659 q 467 642 506 659 q 398 598 427 626 q 350 531 368 570 q 329 450 331 493 l 329 440 q 347 354 329 394 q 394 284 364 313 q 464 237 424 254 q 550 220 504 220 q 631 237 594 220 q 694 284 668 254 q 735 354 720 313 q 750 440 750 394 "},"‡":{"x_min":39.078125,"x_max":574.234375,"ha":614,"o":"m 39 310 q 69 341 39 341 l 212 341 l 212 491 l 69 491 q 39 524 39 491 l 39 650 q 69 681 39 681 l 212 681 l 212 1000 q 219 1021 212 1012 q 242 1031 227 1031 l 367 1031 q 390 1022 378 1031 q 402 1000 402 1014 l 402 681 l 543 681 q 565 673 556 681 q 574 650 574 665 l 574 524 q 565 502 574 513 q 543 491 557 491 l 402 491 l 402 341 l 543 341 q 565 333 556 341 q 574 310 574 325 l 574 184 q 565 162 574 173 q 543 151 557 151 l 402 151 l 402 -235 q 367 -266 402 -266 l 242 -266 q 212 -235 212 -266 l 212 151 l 69 151 q 39 184 39 151 l 39 310 "},"ň":{"x_min":83.34375,"x_max":920.21875,"ha":976,"o":"m 101 870 q 120 880 110 878 q 139 882 130 882 l 244 882 q 265 877 256 882 q 281 865 275 873 q 291 848 287 857 q 298 828 295 838 l 320 739 q 350 788 330 760 q 400 839 370 815 q 473 879 431 863 q 570 896 515 896 q 714 865 650 896 q 824 782 779 835 q 895 659 870 729 q 920 509 920 588 l 920 54 q 908 14 920 27 q 872 0 897 0 l 711 0 q 670 10 682 0 q 659 49 659 20 l 659 502 q 646 558 659 531 q 610 605 632 585 q 560 638 588 626 q 502 650 531 650 q 451 638 477 650 q 403 607 425 627 q 367 561 381 588 q 350 503 352 534 l 350 52 q 345 28 350 40 q 331 10 341 16 q 314 2 322 4 q 296 0 306 0 l 139 0 q 96 15 109 0 q 83 54 83 29 l 83 830 q 89 855 83 844 q 105 872 95 866 l 101 870 m 570 953 q 563 948 565 949 q 555 947 560 947 q 541 953 549 947 l 363 1130 q 357 1146 357 1134 q 363 1159 357 1152 l 424 1222 q 443 1230 432 1230 q 458 1223 452 1230 l 555 1125 l 654 1224 q 670 1230 661 1232 q 684 1222 679 1228 l 747 1162 q 751 1154 750 1158 q 753 1146 752 1150 q 751 1137 753 1141 q 747 1131 749 1134 l 570 953 "},"√":{"x_min":47.21875,"x_max":916.734375,"ha":955,"o":"m 300 612 q 337 587 327 612 q 348 550 341 576 q 365 490 355 524 q 386 416 375 456 q 408 336 397 376 q 429 259 419 296 q 445 194 438 222 q 468 255 454 215 q 499 348 481 296 q 535 463 516 401 q 576 589 555 525 q 616 717 596 653 q 654 835 636 780 q 687 934 672 890 q 711 1005 702 978 q 748 1031 721 1031 l 884 1031 q 916 1006 916 1031 q 916 1001 916 1003 q 914 994 915 998 l 913 987 l 516 -173 q 512 -181 514 -176 q 507 -189 511 -185 q 496 -196 503 -193 q 479 -199 490 -199 l 402 -199 q 385 -196 391 -199 q 374 -189 378 -193 q 369 -181 370 -185 q 366 -173 367 -176 l 179 430 l 79 430 q 47 462 47 430 l 47 582 q 79 612 47 612 l 300 612 "},"⁴":{"x_min":24.421875,"x_max":483.703125,"ha":518,"o":"m 59 527 q 32 538 39 527 q 24 562 24 549 q 26 575 24 569 q 32 586 29 581 l 283 1015 q 296 1030 291 1027 q 309 1034 302 1034 l 379 1034 q 400 1023 392 1034 q 408 1002 408 1012 l 408 658 l 449 658 q 473 651 462 658 q 483 628 483 644 l 483 557 q 473 536 483 545 q 449 527 462 527 l 408 527 l 408 473 q 401 451 408 458 q 376 444 394 444 l 309 444 q 280 473 280 444 l 280 527 l 59 527 m 280 658 l 280 777 l 211 658 l 280 658 "},"ę":{"x_min":72.5625,"x_max":938.59375,"ha":1004,"o":"m 839 105 q 701 17 778 49 q 539 -13 625 -13 q 360 20 444 -13 q 211 117 275 55 q 110 261 147 178 q 72 443 72 345 q 87 561 72 504 q 129 668 102 618 q 196 760 157 718 q 284 832 235 802 q 389 879 333 862 q 510 895 446 895 q 621 880 567 895 q 723 837 676 865 q 810 770 771 809 q 878 685 850 732 q 922 587 907 639 q 938 479 938 534 q 937 420 938 443 q 926 383 936 397 q 894 364 917 370 q 828 359 871 359 l 328 359 q 356 285 335 315 q 405 237 377 255 q 464 212 433 220 q 523 204 495 204 q 574 210 548 204 q 625 223 601 215 q 670 244 650 232 q 703 268 691 255 q 722 281 714 277 q 739 286 730 286 q 758 279 749 286 q 779 261 767 273 l 853 178 q 862 162 860 169 q 864 147 864 154 q 857 123 864 133 q 839 105 849 113 m 505 684 q 452 673 478 684 q 405 644 427 662 q 365 603 383 626 q 336 556 347 580 l 691 556 q 659 606 676 584 q 620 647 642 629 q 570 674 598 664 q 505 684 542 684 m 623 0 q 634 -17 632 -9 q 637 -33 637 -25 q 626 -68 637 -53 q 600 -96 616 -83 q 567 -119 585 -108 q 533 -141 548 -130 q 507 -163 517 -151 q 497 -190 497 -175 q 615 -264 497 -234 q 623 -279 623 -268 q 615 -304 623 -285 q 597 -342 608 -322 q 573 -376 585 -361 q 550 -392 560 -392 l 547 -392 q 450 -352 494 -376 q 376 -300 407 -328 q 328 -244 345 -272 q 312 -190 312 -215 q 322 -146 312 -165 q 349 -112 333 -126 q 383 -85 365 -97 q 417 -64 401 -74 q 444 -44 433 -54 q 455 -24 455 -35 q 440 0 455 -10 l 623 0 "},"S":{"x_min":52.1875,"x_max":857,"ha":911,"o":"m 241 333 q 271 307 253 323 q 314 275 290 290 q 384 238 349 251 q 457 225 418 225 q 516 232 492 225 q 554 254 540 240 q 574 284 568 267 q 580 321 580 301 q 563 359 580 342 q 523 390 547 376 q 474 412 500 403 q 430 428 448 421 q 284 490 346 457 q 180 565 221 524 q 117 656 138 607 q 97 767 97 706 q 123 884 97 831 q 197 974 149 937 q 313 1032 245 1012 q 465 1053 381 1053 q 586 1038 528 1053 q 700 993 644 1024 q 745 964 724 979 q 782 935 766 949 q 808 909 798 921 q 817 887 817 896 q 812 871 817 878 q 799 853 808 863 l 693 740 q 669 728 681 728 q 651 734 659 728 q 634 748 643 739 l 627 753 q 597 778 614 765 q 560 800 579 790 q 519 817 541 810 q 475 824 498 824 q 432 820 452 824 q 397 808 412 816 q 373 786 382 799 q 364 753 364 772 q 373 719 364 733 q 402 693 383 705 q 451 670 422 681 q 518 647 479 659 q 653 596 591 622 q 761 532 716 569 q 831 445 806 496 q 857 322 857 395 q 825 184 857 246 q 740 78 794 122 q 611 10 685 34 q 453 -13 538 -13 q 296 15 373 -13 q 152 92 219 44 q 106 131 125 112 q 75 163 86 151 l 73 165 q 72 166 73 166 q 70 167 71 167 q 69 169 70 169 q 68 170 68 170 q 52 198 52 188 q 68 225 52 210 l 188 339 q 211 350 202 350 q 225 345 218 350 q 241 333 232 341 "},"/":{"x_min":20.140625,"x_max":733.390625,"ha":767,"o":"m 461 1000 q 477 1021 466 1012 q 505 1031 488 1031 l 697 1031 q 722 1025 711 1031 q 733 1009 733 1019 q 732 1000 733 1001 l 293 30 q 278 6 285 13 q 256 0 271 0 l 48 0 q 20 18 20 0 q 20 20 20 19 l 22 30 l 461 1000 "},"į":{"x_min":13,"x_max":380.328125,"ha":495,"o":"m 113 827 q 126 866 113 850 q 165 882 138 882 l 324 882 q 342 878 332 882 q 360 867 351 874 q 374 850 368 859 q 380 827 380 840 l 380 53 q 365 13 380 27 q 324 0 351 0 l 165 0 q 113 53 113 0 l 113 827 m 113 1179 q 126 1220 113 1208 q 165 1232 138 1232 l 326 1232 q 365 1220 350 1232 q 380 1179 380 1208 l 380 1043 q 376 1025 380 1035 q 365 1007 372 1016 q 348 992 358 998 q 326 986 338 986 l 165 986 q 113 1043 113 986 l 113 1179 m 324 8 q 335 -9 333 -1 q 338 -25 338 -17 q 327 -60 338 -45 q 301 -88 317 -75 q 268 -111 286 -100 q 234 -133 249 -122 q 208 -155 218 -143 q 198 -182 198 -167 q 316 -256 198 -226 q 324 -271 324 -260 q 316 -296 324 -277 q 298 -334 309 -314 q 274 -368 286 -353 q 251 -384 261 -384 l 248 -384 q 151 -344 195 -368 q 77 -292 108 -320 q 29 -236 46 -264 q 13 -182 13 -207 q 23 -138 13 -157 q 50 -104 34 -118 q 84 -77 66 -89 q 118 -56 102 -66 q 145 -36 134 -46 q 156 -16 156 -27 q 141 8 156 -2 l 324 8 "},"Ŧ":{"x_min":55.453125,"x_max":868.9375,"ha":925,"o":"m 55 1000 q 64 1022 55 1014 q 88 1031 74 1031 l 835 1031 q 857 1023 848 1031 q 868 1000 867 1015 l 868 828 q 860 804 868 815 q 835 793 851 793 l 596 793 l 596 32 q 586 10 596 20 q 563 0 577 0 l 359 0 q 337 9 347 0 q 327 32 327 18 l 327 793 l 88 793 q 64 801 74 793 q 55 828 55 810 l 55 1000 m 682 731 q 703 723 694 731 q 712 700 712 715 l 712 565 q 704 543 712 553 q 682 534 695 534 l 231 534 q 198 565 198 534 l 198 700 q 231 731 198 731 l 682 731 "},"Τ":{"x_min":55.453125,"x_max":868.9375,"ha":925,"o":"m 55 1000 q 64 1022 55 1014 q 88 1031 74 1031 l 835 1031 q 857 1023 848 1031 q 868 1000 867 1015 l 868 828 q 860 804 868 815 q 835 793 851 793 l 596 793 l 596 32 q 586 10 596 20 q 563 0 577 0 l 359 0 q 337 9 347 0 q 327 32 327 18 l 327 793 l 88 793 q 64 801 74 793 q 55 828 55 810 l 55 1000 "},"y":{"x_min":24.21875,"x_max":962.90625,"ha":986,"o":"m 29 815 q 29 863 18 843 q 77 883 40 883 l 248 883 q 277 872 266 883 q 293 845 288 861 l 490 286 l 682 845 q 702 875 690 867 q 734 883 713 883 l 913 883 q 943 877 932 883 q 959 863 954 872 q 962 844 963 855 q 957 823 961 833 q 899 680 930 758 q 834 519 868 603 q 766 349 800 435 q 698 179 731 262 q 634 19 665 96 q 578 -121 604 -57 q 534 -234 553 -185 q 506 -309 516 -283 l 508 -305 q 491 -336 503 -324 q 460 -347 478 -347 l 300 -347 q 257 -335 268 -347 q 245 -299 245 -323 q 248 -285 245 -290 q 252 -279 250 -280 l 361 3 l 29 815 "},"≈":{"x_min":0,"x_max":0,"ha":385},"Π":{"x_min":104,"x_max":908,"ha":1000,"o":"m 634 785 l 378 785 l 378 29 q 345 0 378 0 l 134 0 q 104 29 104 0 l 104 999 q 134 1031 104 1031 l 875 1031 q 897 1022 887 1031 q 908 1000 908 1014 l 908 30 q 875 0 908 0 l 664 0 q 634 30 634 0 l 634 785 "},"ǿ":{"x_min":73,"x_max":985,"ha":1055,"o":"m 327 440 q 341 354 327 394 q 381 285 355 314 q 444 239 407 256 q 528 222 481 222 q 609 239 573 222 q 671 285 646 256 q 710 354 696 314 q 724 440 724 394 q 710 525 724 484 q 671 595 696 565 q 609 644 646 626 q 528 662 573 662 q 444 644 481 662 q 381 595 407 626 q 341 525 355 565 q 327 440 327 484 m 236 88 q 168 158 199 119 q 117 241 138 196 q 84 336 95 286 q 73 440 73 386 q 89 563 73 504 q 135 672 105 622 q 206 764 164 723 q 298 834 247 805 q 407 880 348 864 q 530 896 466 896 q 565 894 548 896 q 599 890 582 893 l 614 923 q 631 944 620 935 q 659 954 641 954 l 851 954 q 876 948 865 954 q 887 932 887 942 q 885 923 887 924 l 824 788 q 941 636 898 726 q 985 440 985 547 q 968 317 985 376 q 922 208 952 258 q 851 116 893 157 q 759 45 810 74 q 651 0 709 15 q 530 -16 593 -16 q 495 -14 512 -16 q 462 -11 478 -13 l 446 -46 q 432 -70 439 -63 q 410 -77 425 -77 l 202 -77 q 173 -58 173 -77 q 174 -56 173 -57 l 176 -46 l 236 88 m 436 1159 q 450 1182 439 1175 q 472 1189 461 1189 l 652 1189 q 667 1184 662 1189 q 674 1174 672 1180 q 675 1160 676 1168 q 670 1144 673 1152 l 602 995 q 585 972 593 979 q 564 966 577 966 l 412 966 q 398 971 402 966 q 394 984 394 977 q 396 1001 394 992 q 400 1016 398 1010 l 436 1159 "},"g":{"x_min":74.5,"x_max":984,"ha":1067,"o":"m 721 30 q 729 83 729 53 q 728 145 728 114 q 687 99 708 123 q 641 55 666 75 q 584 21 616 34 q 509 8 552 8 q 336 40 416 8 q 198 129 256 72 q 107 266 139 187 q 74 442 74 346 q 107 620 74 537 q 198 765 139 703 q 336 861 256 826 q 509 897 416 897 q 587 883 553 897 q 649 849 621 870 q 701 802 678 828 q 745 751 724 776 l 771 833 q 779 855 776 845 q 788 871 782 864 q 802 881 794 878 q 825 885 811 885 l 929 885 q 946 882 936 885 q 964 873 956 880 q 979 856 974 865 q 984 833 984 847 l 984 126 q 948 -66 984 18 q 851 -209 913 -151 q 705 -298 789 -267 q 525 -328 621 -328 q 444 -322 487 -328 q 358 -302 401 -315 q 276 -268 316 -289 q 205 -221 236 -248 q 191 -206 197 -215 q 182 -188 184 -198 q 182 -165 180 -177 q 193 -140 184 -153 l 259 -49 q 293 -28 278 -29 q 334 -44 309 -26 q 374 -71 351 -61 q 420 -87 396 -81 q 467 -95 444 -93 q 509 -97 491 -97 q 575 -88 541 -97 q 638 -64 609 -80 q 690 -24 668 -47 q 721 30 713 0 m 324 442 q 338 356 324 396 q 379 287 353 316 q 442 241 405 258 q 525 224 480 224 q 608 240 569 224 q 677 283 648 256 q 724 349 706 311 q 744 430 741 386 l 744 453 q 724 533 741 495 q 677 600 706 571 q 608 645 648 628 q 525 663 569 663 q 442 645 480 663 q 379 597 405 627 q 338 527 353 567 q 324 442 324 487 "},"ĸ":{"x_min":83,"x_max":968.796875,"ha":981,"o":"m 83 835 q 83 856 83 847 q 89 873 84 866 q 105 884 94 880 q 137 888 117 888 l 303 888 q 325 883 316 888 q 339 872 334 878 q 346 857 344 865 q 348 842 348 849 l 348 584 l 597 861 q 641 882 615 882 l 854 882 q 892 852 892 882 q 889 839 892 844 q 879 825 887 834 l 594 524 l 953 63 l 952 63 q 964 44 961 54 q 968 27 968 35 q 960 5 968 11 q 934 0 951 0 l 699 0 q 677 9 687 0 q 654 36 666 18 l 427 357 l 350 277 l 350 53 q 348 38 350 47 q 341 21 346 29 q 327 6 336 12 q 303 0 318 0 l 128 0 q 107 6 116 0 q 93 21 98 13 q 85 37 87 29 q 83 45 83 44 l 83 835 "},"²":{"x_min":82,"x_max":489,"ha":581,"o":"m 284 573 l 457 573 q 489 541 489 573 l 489 479 q 480 456 489 465 q 457 448 471 448 l 115 448 q 92 456 102 448 q 82 479 82 465 l 82 535 q 86 548 82 542 q 86 549 85 547 q 88 552 87 550 l 332 802 l 331 802 q 350 828 345 818 q 355 851 355 838 q 349 875 355 863 q 334 896 343 887 q 311 910 324 905 q 283 916 298 916 q 256 910 269 916 q 234 895 243 904 q 220 873 225 885 q 215 847 215 860 l 215 815 q 184 787 215 787 l 116 787 q 93 796 100 787 q 87 816 87 806 l 87 847 q 102 923 87 888 q 145 984 118 958 q 208 1023 172 1009 q 284 1038 243 1038 q 360 1024 323 1038 q 426 987 398 1011 q 471 929 454 963 q 489 854 489 896 q 471 775 489 810 q 428 717 454 741 l 428 718 l 284 573 "},"–":{"x_min":115.984375,"x_max":817.421875,"ha":932,"o":"m 115 487 q 146 518 115 518 l 786 518 q 808 510 799 518 q 817 487 817 502 l 817 365 q 809 343 817 354 q 786 332 800 332 l 146 332 q 115 365 115 332 l 115 487 "},"ë":{"x_min":72.5625,"x_max":938.59375,"ha":1004,"o":"m 839 105 q 701 17 778 49 q 539 -13 625 -13 q 360 20 444 -13 q 211 117 275 55 q 110 261 147 178 q 72 443 72 345 q 87 561 72 504 q 129 668 102 618 q 196 760 157 718 q 284 832 235 802 q 389 879 333 862 q 510 895 446 895 q 621 880 567 895 q 723 837 676 865 q 810 770 771 809 q 878 685 850 732 q 922 587 907 639 q 938 479 938 534 q 937 420 938 443 q 926 383 936 397 q 894 364 917 370 q 828 359 871 359 l 328 359 q 356 285 335 315 q 405 237 377 255 q 464 212 433 220 q 523 204 495 204 q 574 210 548 204 q 625 223 601 215 q 670 244 650 232 q 703 268 691 255 q 722 281 714 277 q 739 286 730 286 q 758 279 749 286 q 779 261 767 273 l 853 178 q 862 162 860 169 q 864 147 864 154 q 857 123 864 133 q 839 105 849 113 m 505 684 q 452 673 478 684 q 405 644 427 662 q 365 603 383 626 q 336 556 347 580 l 691 556 q 659 606 676 584 q 620 647 642 629 q 570 674 598 664 q 505 684 542 684 m 253 1159 q 282 1189 253 1189 l 418 1189 q 437 1181 428 1189 q 447 1159 447 1173 l 447 1028 q 439 1005 447 1016 q 418 995 431 995 l 282 995 q 253 1028 253 995 l 253 1159 m 556 1159 q 586 1189 556 1189 l 720 1189 q 750 1159 750 1189 l 750 1028 q 742 1005 750 1016 q 720 995 734 995 l 586 995 q 556 1028 556 995 l 556 1159 "},"ƒ":{"x_min":15.84375,"x_max":501.453125,"ha":532,"o":"m 56 655 q 92 690 56 690 l 136 690 l 136 751 q 145 818 136 785 q 171 881 154 851 q 210 938 188 912 q 259 985 233 964 q 354 1032 303 1017 q 461 1047 404 1047 q 491 1037 481 1047 q 501 1011 501 1027 l 501 855 q 493 833 501 841 q 473 825 486 825 l 470 825 q 435 819 451 825 q 407 805 419 814 q 388 781 395 795 q 382 749 382 767 l 382 690 l 454 690 q 480 681 470 690 q 491 655 491 673 l 491 531 q 481 504 491 516 q 454 493 471 493 l 382 493 l 382 29 q 351 -112 382 -47 q 261 -224 321 -177 q 162 -270 217 -256 q 52 -284 107 -284 q 15 -249 15 -284 l 15 -93 q 23 -71 15 -79 q 44 -63 31 -63 l 47 -63 q 79 -58 63 -63 q 108 -44 95 -53 q 128 -20 120 -34 q 136 11 136 -6 l 136 493 l 92 493 q 56 531 56 493 l 56 655 "},"J":{"x_min":-100.09375,"x_max":512,"ha":627,"o":"m 243 1003 q 270 1031 243 1028 l 474 1031 q 512 994 512 1031 l 512 43 q 484 -85 512 -24 q 410 -189 457 -145 q 302 -260 364 -234 q 173 -286 241 -286 q 94 -276 133 -286 q 20 -250 55 -267 q -44 -206 -14 -232 q -98 -146 -75 -180 q -100 -135 -100 -145 q -88 -108 -100 -117 l 31 4 q 43 12 37 9 q 55 15 49 15 q 75 7 65 15 q 96 -9 84 0 q 122 -26 107 -18 q 159 -34 138 -34 q 190 -27 175 -34 q 217 -11 206 -21 q 236 13 229 0 q 243 43 243 27 l 243 1003 "},"Ã":{"x_min":27.703125,"x_max":1039.21875,"ha":1063,"o":"m 406 1003 q 411 1012 407 1008 q 420 1021 415 1017 q 432 1028 426 1026 q 444 1031 438 1031 l 622 1031 q 642 1023 634 1031 q 654 1010 650 1016 l 672 971 l 1036 31 q 1034 8 1042 17 q 1008 0 1027 0 l 809 0 q 784 5 793 0 q 770 25 775 11 q 743 96 757 61 q 717 167 730 131 l 348 167 q 321 96 335 131 q 295 25 308 61 q 259 0 286 0 l 54 0 q 32 6 41 0 q 29 27 24 13 l 406 1003 m 533 707 q 506 630 520 671 q 479 548 493 590 q 453 466 466 506 q 426 390 439 425 l 639 390 l 533 707 m 290 1250 q 321 1285 303 1269 q 360 1311 339 1300 q 403 1327 381 1321 q 448 1333 426 1333 q 475 1330 460 1333 q 507 1320 489 1327 q 546 1302 524 1313 q 594 1273 567 1290 q 609 1265 601 1268 q 625 1262 616 1262 q 649 1268 639 1262 q 667 1283 659 1274 l 690 1311 q 704 1320 696 1320 q 717 1314 711 1321 l 789 1252 q 799 1239 796 1244 q 794 1224 801 1233 l 773 1197 q 705 1137 746 1159 q 618 1116 664 1116 q 563 1125 591 1116 q 510 1150 535 1134 l 471 1175 q 457 1182 464 1179 q 440 1185 450 1185 q 416 1179 426 1185 q 398 1165 406 1174 l 377 1137 q 362 1129 373 1130 q 346 1134 352 1128 l 274 1195 q 268 1201 271 1198 q 266 1211 266 1205 q 266 1214 266 1211 q 269 1220 266 1216 q 276 1231 271 1224 q 290 1250 281 1239 "},"ŷ":{"x_min":24.21875,"x_max":962.90625,"ha":986,"o":"m 29 815 q 29 863 18 843 q 77 883 40 883 l 248 883 q 277 872 266 883 q 293 845 288 861 l 490 286 l 682 845 q 702 875 690 867 q 734 883 713 883 l 913 883 q 943 877 932 883 q 959 863 954 872 q 962 844 963 855 q 957 823 961 833 q 899 680 930 758 q 834 519 868 603 q 766 349 800 435 q 698 179 731 262 q 634 19 665 96 q 578 -121 604 -57 q 534 -234 553 -185 q 506 -309 516 -283 l 508 -305 q 491 -336 503 -324 q 460 -347 478 -347 l 300 -347 q 257 -335 268 -347 q 245 -299 245 -323 q 248 -285 245 -290 q 252 -279 250 -280 l 361 3 l 29 815 m 477 1251 q 484 1255 482 1254 q 492 1257 487 1257 q 506 1251 498 1257 l 684 1073 q 690 1057 690 1069 q 684 1044 690 1050 l 623 981 q 604 973 615 973 q 588 980 595 973 l 492 1078 l 393 979 q 377 973 386 971 q 363 981 368 975 l 300 1041 q 296 1049 297 1045 q 294 1057 295 1053 q 296 1066 294 1062 q 300 1072 297 1069 l 477 1251 "},"ŕ":{"x_min":83.34375,"x_max":778.203125,"ha":799,"o":"m 83 830 q 88 853 83 842 q 101 870 93 864 q 138 882 119 882 l 243 882 q 264 877 256 882 q 277 864 272 872 q 286 847 282 857 q 295 827 290 837 q 301 814 297 825 q 310 790 305 803 q 319 766 315 777 q 325 751 324 755 q 365 799 346 774 q 406 846 384 825 q 454 882 427 868 q 516 896 480 896 q 583 890 554 896 q 639 874 613 884 q 692 846 666 863 q 748 807 718 830 q 766 731 796 782 l 703 623 q 669 598 689 602 q 625 604 649 593 q 564 647 595 633 q 494 662 534 662 q 446 654 467 662 q 409 632 426 646 q 378 599 393 618 q 349 556 363 580 l 349 53 q 336 13 349 27 q 293 0 323 0 l 137 0 q 83 53 83 0 l 83 830 m 307 1159 q 322 1182 311 1175 q 344 1189 332 1189 l 523 1189 q 539 1184 534 1189 q 546 1174 544 1180 q 546 1160 548 1168 q 541 1144 545 1152 l 473 995 q 457 972 465 979 q 436 966 449 966 l 284 966 q 270 971 273 966 q 266 984 266 977 q 268 1001 266 992 q 271 1016 270 1010 l 307 1159 "},"©":{"x_min":58,"x_max":1273,"ha":1345,"o":"m 667 1123 q 827 1101 749 1123 q 971 1040 904 1079 q 1094 945 1038 1000 q 1189 822 1150 889 q 1251 676 1229 754 q 1273 514 1273 598 q 1251 354 1273 431 q 1190 210 1229 277 q 1095 87 1150 143 q 971 -7 1039 31 q 826 -69 904 -47 q 664 -91 748 -91 q 503 -69 581 -91 q 359 -8 426 -47 q 236 86 292 31 q 141 210 180 142 q 79 355 101 277 q 58 518 58 433 q 79 677 58 600 q 140 822 101 754 q 235 944 180 889 q 359 1039 291 1000 q 504 1101 426 1079 q 667 1123 582 1123 m 453 881 q 360 808 400 850 q 291 718 319 766 q 248 616 263 670 q 234 507 234 562 q 249 393 234 447 q 294 291 265 338 q 363 206 323 244 q 450 141 403 168 q 551 99 498 114 q 661 85 605 85 q 772 99 717 85 q 878 146 826 114 q 971 217 931 176 q 1041 308 1012 259 q 1084 412 1069 357 q 1099 523 1099 467 q 1082 641 1099 586 q 1036 743 1065 697 q 966 826 1006 789 q 879 889 926 863 q 781 928 833 914 q 677 942 729 942 q 564 927 620 942 q 453 881 507 912 m 862 794 q 872 787 867 791 q 881 779 877 783 q 885 768 884 774 q 881 756 886 763 l 869 733 q 853 702 862 721 q 833 666 843 683 q 814 636 823 648 q 798 623 805 623 q 791 625 794 623 q 740 644 769 638 q 680 650 711 650 q 624 639 650 650 q 580 610 598 629 q 551 566 561 591 q 541 509 541 540 q 551 452 541 478 q 579 408 561 427 q 621 380 597 390 q 675 371 645 371 q 709 372 695 371 q 734 375 722 373 q 756 382 745 377 q 785 393 768 386 q 803 396 800 398 q 812 387 807 394 l 884 269 q 882 249 890 257 q 867 236 875 241 q 775 193 823 209 q 673 178 727 178 q 544 204 604 178 q 438 275 483 230 q 367 381 393 320 q 341 512 341 442 q 367 642 341 581 q 439 749 393 704 q 546 820 485 794 q 676 847 607 847 q 775 833 730 847 q 863 793 820 819 q 862 794 863 793 "},"˘":{"x_min":33.34375,"x_max":418.78125,"ha":454,"o":"m 224 981 q 148 996 183 981 q 88 1035 113 1011 q 47 1091 62 1060 q 33 1155 33 1121 q 41 1174 33 1167 q 59 1181 49 1181 l 159 1181 q 171 1176 167 1181 q 175 1165 175 1171 q 188 1136 175 1149 q 227 1124 200 1124 q 263 1137 250 1124 q 276 1165 276 1150 q 279 1176 276 1171 q 291 1181 283 1181 l 392 1181 q 410 1174 402 1181 q 418 1155 418 1167 q 403 1090 418 1121 q 362 1034 388 1058 q 300 996 336 1010 q 224 981 265 981 "},"≥":{"x_min":33.34375,"x_max":542.40625,"ha":547,"o":"m 178 273 q 167 266 174 268 q 155 264 161 264 q 136 273 145 264 l 70 339 q 57 351 64 344 q 45 365 51 358 q 36 378 40 372 q 33 391 33 385 l 33 394 l 36 406 l 54 426 l 272 644 q 163 753 218 699 q 54 861 109 807 q 40 879 47 871 q 34 898 34 887 q 46 923 34 909 q 68 947 58 936 l 134 1012 q 156 1021 143 1021 q 172 1015 164 1021 q 186 1004 181 1009 l 526 665 q 536 643 536 655 q 527 623 536 633 q 353 448 438 534 q 178 273 267 361 m 511 163 q 542 132 542 163 l 542 33 q 511 1 542 1 l 86 1 q 63 11 72 1 q 55 33 55 21 l 55 132 q 64 155 55 147 q 86 163 73 163 l 511 163 "},"Ă":{"x_min":27.703125,"x_max":1039.21875,"ha":1063,"o":"m 406 1003 q 411 1012 407 1008 q 420 1021 415 1017 q 432 1028 426 1026 q 444 1031 438 1031 l 622 1031 q 642 1023 634 1031 q 654 1010 650 1016 l 672 971 l 1036 31 q 1034 8 1042 17 q 1008 0 1027 0 l 809 0 q 784 5 793 0 q 770 25 775 11 q 743 96 757 61 q 717 167 730 131 l 348 167 q 321 96 335 131 q 295 25 308 61 q 259 0 286 0 l 54 0 q 32 6 41 0 q 29 27 24 13 l 406 1003 m 533 707 q 506 630 520 671 q 479 548 493 590 q 453 466 466 506 q 426 390 439 425 l 639 390 l 533 707 m 530 1118 q 454 1133 489 1118 q 394 1172 419 1148 q 353 1228 368 1197 q 339 1292 339 1258 q 347 1311 339 1304 q 365 1318 355 1318 l 465 1318 q 477 1313 473 1318 q 481 1302 481 1308 q 494 1273 481 1286 q 533 1261 506 1261 q 569 1274 556 1261 q 582 1302 582 1287 q 585 1313 582 1308 q 597 1318 589 1318 l 698 1318 q 716 1311 708 1318 q 724 1292 724 1304 q 709 1227 724 1258 q 668 1171 694 1195 q 606 1133 642 1147 q 530 1118 571 1118 "},"D":{"x_min":101,"x_max":1005,"ha":1074,"o":"m 1005 514 q 986 374 1005 441 q 932 251 967 308 q 849 147 898 193 q 742 68 801 100 q 616 17 684 35 q 475 0 548 0 l 132 0 q 110 5 120 0 q 101 29 101 11 l 101 999 q 108 1022 101 1013 q 132 1032 116 1032 l 475 1032 q 615 1013 548 1032 q 742 962 683 995 q 849 882 800 929 q 932 778 898 836 q 985 654 966 720 q 1005 514 1005 587 m 370 783 l 370 249 l 428 249 q 459 250 444 249 q 490 252 474 251 q 587 277 542 256 q 666 333 632 299 q 718 414 699 367 q 738 515 738 460 q 716 622 738 573 q 656 707 694 671 q 568 763 619 743 q 461 783 518 783 l 370 783 "},"ł":{"x_min":-36.125,"x_max":474.09375,"ha":431,"o":"m 414 718 q 429 718 422 721 q 442 704 437 714 l 472 630 q 472 612 475 620 q 459 600 469 603 l 25 441 q -4 456 4 434 l -34 529 q -19 560 -40 551 l 414 718 m 86 1091 q 97 1128 86 1113 q 136 1143 109 1143 l 306 1143 q 320 1140 313 1143 q 335 1129 328 1136 q 346 1112 341 1122 q 350 1091 350 1102 l 350 53 q 335 13 350 27 q 297 0 320 0 l 136 0 q 97 13 109 0 q 86 53 86 27 l 86 1091 "},"ÿ":{"x_min":24.21875,"x_max":962.90625,"ha":986,"o":"m 29 815 q 29 863 18 843 q 77 883 40 883 l 248 883 q 277 872 266 883 q 293 845 288 861 l 490 286 l 682 845 q 702 875 690 867 q 734 883 713 883 l 913 883 q 943 877 932 883 q 959 863 954 872 q 962 844 963 855 q 957 823 961 833 q 899 680 930 758 q 834 519 868 603 q 766 349 800 435 q 698 179 731 262 q 634 19 665 96 q 578 -121 604 -57 q 534 -234 553 -185 q 506 -309 516 -283 l 508 -305 q 491 -336 503 -324 q 460 -347 478 -347 l 300 -347 q 257 -335 268 -347 q 245 -299 245 -323 q 248 -285 245 -290 q 252 -279 250 -280 l 361 3 l 29 815 m 244 1159 q 273 1189 244 1189 l 409 1189 q 428 1181 419 1189 q 438 1159 438 1173 l 438 1028 q 430 1005 438 1016 q 409 995 422 995 l 273 995 q 244 1028 244 995 l 244 1159 m 547 1159 q 577 1189 547 1189 l 711 1189 q 741 1159 741 1189 l 741 1028 q 733 1005 741 1016 q 711 995 725 995 l 577 995 q 547 1028 547 995 l 547 1159 "},"ĺ":{"x_min":83.34375,"x_max":386.453125,"ha":431,"o":"m 83 1091 q 94 1128 83 1113 q 132 1143 105 1143 l 302 1143 q 317 1140 309 1143 q 331 1129 325 1136 q 342 1112 338 1122 q 347 1091 347 1102 l 347 53 q 332 13 347 27 q 293 0 317 0 l 132 0 q 94 13 105 0 q 83 53 83 27 l 83 1091 m 146 1442 q 161 1465 150 1458 q 183 1472 171 1472 l 362 1472 q 378 1467 373 1472 q 385 1457 383 1463 q 385 1443 387 1451 q 380 1427 384 1435 l 312 1278 q 296 1255 304 1262 q 275 1249 288 1249 l 123 1249 q 109 1254 112 1249 q 105 1267 105 1260 q 107 1284 105 1275 q 110 1299 109 1293 l 146 1442 "},"Ł":{"x_min":-28.546875,"x_max":768.53125,"ha":819,"o":"m 87 409 l 32 390 q 2 405 12 383 l -26 483 q -11 513 -33 504 l 87 549 l 87 1001 q 95 1022 87 1013 q 118 1032 103 1032 l 324 1032 q 345 1023 335 1032 q 356 1001 355 1015 l 356 647 l 422 671 q 449 657 440 678 l 478 579 q 479 561 482 570 q 467 549 476 552 l 356 508 l 356 246 l 737 246 q 759 237 750 246 q 768 214 768 229 l 768 31 q 760 10 768 20 q 737 0 752 0 l 117 0 q 87 30 87 0 l 87 409 "}}}
